<?xml version="1.0" standalone="no"?>
<!DOCTYPE svg PUBLIC "-//W3C//DTD SVG 20010904//EN"
 "http://www.w3.org/TR/2001/REC-SVG-20010904/DTD/svg10.dtd">
<svg version="1.0" xmlns="http://www.w3.org/2000/svg"
 width="740.000000pt" height="630.000000pt" viewBox="0 0 740.000000 630.000000"
 preserveAspectRatio="xMidYMid meet">

<g transform="translate(0.000000,630.000000) scale(0.100000,-0.100000)"
fill="#000000" stroke="none">
<path d="M3285 4846 c-91 -19 -208 -56 -226 -72 -8 -8 -21 -14 -27 -14 -7 0
-12 -5 -12 -11 0 -7 -19 -33 -42 -58 -48 -52 -72 -82 -155 -192 -119 -156
-184 -239 -208 -265 -13 -14 -27 -35 -30 -45 -4 -11 -10 -19 -14 -19 -4 0 -22
-22 -40 -50 -18 -27 -37 -50 -42 -50 -5 0 -9 -5 -9 -11 0 -6 -25 -40 -55 -75
-30 -36 -55 -70 -55 -75 0 -6 -20 -34 -43 -62 -24 -29 -59 -74 -77 -101 -18
-27 -40 -56 -49 -65 -9 -9 -38 -48 -65 -86 -28 -39 -53 -72 -57 -75 -3 -3 -46
-54 -94 -115 -48 -60 -103 -128 -124 -150 -20 -22 -48 -56 -63 -76 -14 -19
-44 -55 -67 -80 -22 -24 -41 -47 -41 -51 0 -4 -21 -31 -46 -60 -25 -29 -67
-77 -92 -107 -26 -29 -78 -87 -117 -128 -38 -41 -72 -80 -75 -86 -5 -12 -84
-97 -172 -188 -27 -26 -48 -51 -48 -55 0 -3 -10 -14 -22 -24 -22 -17 -22 -19
-11 -131 24 -241 62 -393 94 -374 11 7 237 -31 284 -48 122 -44 258 -101 287
-120 52 -36 94 -50 120 -41 22 8 29 10 46 13 4 1 -1 6 -11 12 -9 5 -22 7 -29
3 -8 -5 -9 -2 -5 9 5 15 2 16 -21 10 -25 -6 -26 -5 -13 11 15 17 9 28 -22 38
-18 7 -15 48 4 58 10 6 19 17 19 25 0 17 30 35 62 36 13 0 17 3 11 6 -32 12
-8 25 45 23 61 -2 102 6 102 22 0 6 23 7 58 3 133 -15 132 -15 132 -1 0 11
-10 13 -41 9 -38 -6 -41 -4 -37 17 4 30 51 45 69 23 8 -9 21 -12 36 -8 28 7
51 -4 33 -15 -7 -5 6 -13 34 -23 26 -9 44 -12 41 -7 -7 11 15 18 36 13 23 -6
12 -43 -12 -43 -11 0 -19 -4 -19 -9 0 -5 -16 -15 -34 -22 -19 -7 -33 -16 -30
-20 6 -10 66 7 74 21 4 6 27 6 69 -1 41 -8 66 -8 70 -2 4 6 21 3 44 -7 l37
-17 -42 -13 c-96 -31 -225 -93 -288 -139 -19 -14 -37 -26 -39 -28 -2 -1 -1 -9
3 -18 4 -12 10 -13 23 -7 10 6 37 13 61 17 33 5 42 4 40 -7 -2 -7 4 -14 12
-14 8 -1 19 -2 24 -3 5 0 3 -7 -3 -15 -10 -12 -2 -14 58 -12 39 2 71 0 71 -3
0 -9 -45 -41 -83 -61 -16 -8 -39 -26 -51 -40 -12 -14 -26 -26 -32 -26 -5 -1
-21 -4 -36 -8 -17 -4 -28 -2 -28 4 0 5 -6 10 -14 10 -8 0 -17 7 -20 16 -5 12
-14 15 -36 10 -21 -4 -29 -2 -27 7 1 7 -7 11 -20 10 -13 -2 -23 1 -23 5 0 4
-20 7 -45 7 -25 0 -45 -1 -45 -2 0 -7 103 -56 148 -70 31 -9 64 -22 72 -29 8
-7 27 -15 42 -19 15 -4 32 -13 38 -20 7 -8 28 -19 48 -26 20 -6 44 -18 53 -25
17 -15 160 -64 187 -64 17 0 88 102 175 250 21 36 43 66 48 68 5 2 9 10 9 18
0 8 5 14 11 14 5 0 8 3 6 8 -2 4 3 19 12 34 70 118 168 290 211 373 66 127
102 189 112 193 4 2 8 9 8 15 0 7 23 47 50 90 28 43 50 80 50 83 0 3 21 33 47
67 57 75 124 138 140 132 7 -2 12 1 10 7 -1 6 4 13 12 16 8 2 11 0 7 -6 -4 -6
2 -8 15 -5 12 3 18 11 15 19 -3 8 1 14 10 14 9 0 12 -5 8 -12 -5 -8 -2 -9 10
-5 10 4 21 7 24 7 4 0 0 5 -8 11 -11 8 -7 9 20 6 19 -3 29 -3 23 0 -22 8 -14
21 16 25 l30 4 -6 -63 c-3 -34 -1 -75 5 -90 6 -16 13 -41 16 -56 4 -17 16 -31
31 -37 32 -12 32 -30 1 -30 -13 0 -26 -7 -30 -15 -3 -8 -13 -15 -22 -15 -12 0
-15 -6 -11 -21 4 -17 2 -20 -12 -16 -17 4 -18 -2 -17 -62 1 -36 5 -72 10 -80
6 -9 -8 -45 -40 -108 -42 -84 -70 -123 -170 -248 -36 -46 -27 -61 19 -30 47
30 218 85 287 90 73 7 114 0 105 -16 -4 -5 4 -4 17 2 32 14 78 -4 78 -30 0
-11 -5 -23 -11 -27 -15 -9 11 -25 31 -19 16 5 44 -45 42 -75 0 -8 5 -18 11
-23 8 -5 0 -19 -28 -43 -37 -33 -38 -35 -17 -41 12 -3 22 -11 22 -18 0 -7 6
-15 13 -18 14 -5 114 7 232 29 45 8 139 17 210 20 72 3 149 10 172 16 56 14
93 -7 93 -52 0 -17 4 -38 9 -48 32 -63 71 -196 73 -249 1 -35 -3 -46 -25 -63
-14 -12 -28 -20 -31 -18 -2 2 -12 -7 -22 -19 -12 -13 -37 -24 -64 -28 l-44 -7
53 58 53 58 -5 55 c-3 31 -13 87 -21 125 -9 38 -14 77 -11 87 7 22 -24 79 -43
79 -10 0 -10 -5 -2 -21 7 -11 9 -27 6 -34 -2 -7 6 -72 20 -145 l24 -131 -32
-39 c-37 -47 -72 -72 -96 -68 -12 2 -17 -4 -17 -26 -1 -16 -9 -34 -20 -42 -10
-8 -13 -14 -6 -14 7 0 9 -5 6 -11 -4 -5 1 -19 11 -30 15 -17 29 -19 106 -18
49 1 91 6 94 11 3 4 14 8 24 8 10 0 23 7 27 14 11 20 119 68 162 72 53 5 222
65 228 80 3 8 -9 30 -26 49 -17 20 -32 46 -32 58 -1 17 -2 18 -6 4 -6 -22 -23
-12 -23 14 0 10 -4 19 -10 19 -5 0 -10 -9 -10 -20 0 -13 -5 -17 -14 -14 -8 3
-17 -2 -20 -13 -3 -10 -16 -29 -29 -43 -13 -14 -27 -38 -31 -54 -5 -21 -10
-26 -18 -18 -8 8 -8 15 0 24 7 8 7 19 2 28 -5 8 -7 17 -4 21 2 4 8 38 14 77
11 81 45 159 72 168 28 9 81 -28 101 -69 10 -21 22 -35 27 -32 6 4 13 -1 16
-9 3 -9 15 -16 25 -16 29 0 75 -53 86 -97 7 -31 13 -39 36 -41 l27 -3 0 118
c-1 182 -17 547 -30 653 -6 52 -20 167 -30 255 -11 88 -21 176 -22 195 -3 35
-22 48 -99 64 -43 9 -102 99 -117 178 -11 62 -11 70 8 100 11 18 20 40 20 49
0 9 9 24 20 34 11 10 20 26 20 35 0 9 9 35 20 58 11 22 20 52 20 65 0 22 -28
110 -84 263 -28 74 -131 284 -170 344 -13 19 -49 79 -81 134 -84 143 -187 276
-311 401 -222 225 -447 373 -729 482 -49 19 -94 36 -100 37 -5 2 -17 6 -25 9
-8 3 -71 20 -139 36 -134 34 -214 38 -316 17z m1169 -978 c22 -13 66 -41 96
-64 70 -52 135 -79 230 -95 106 -17 126 -25 109 -45 -16 -20 4 -35 41 -32 33
4 38 -24 10 -52 -15 -15 -21 -31 -19 -55 2 -18 -3 -40 -10 -49 -10 -12 -11
-19 -2 -30 9 -10 8 -16 -4 -26 -9 -7 -14 -19 -11 -26 6 -17 -24 -34 -58 -34
-14 0 -28 -5 -32 -11 -4 -8 -30 -10 -75 -7 -40 3 -72 1 -78 -5 -7 -7 -22 1
-48 27 -21 21 -48 47 -60 59 -13 12 -23 24 -23 28 0 18 -86 99 -106 99 -22 0
-39 24 -28 41 3 6 1 15 -5 22 -5 7 -10 28 -9 47 0 35 -15 122 -26 150 -6 14
44 80 60 80 3 0 25 -10 48 -22z m556 -238 c0 -5 -5 -10 -11 -10 -5 0 -7 5 -4
10 3 6 8 10 11 10 2 0 4 -4 4 -10z m35 -59 c-16 -14 -55 -23 -55 -13 0 12 17
20 45 21 11 1 15 -3 10 -8z m-8 -117 c-9 -9 -28 6 -21 18 4 6 10 6 17 -1 6 -6
8 -13 4 -17z m-873 -519 c-4 -9 -19 -15 -39 -15 -18 0 -48 -2 -66 -5 l-34 -5
30 9 c17 5 48 14 70 19 22 5 41 10 42 11 1 0 0 -6 -3 -14z m-299 -108 c-87
-62 -119 -81 -109 -66 13 22 64 63 108 86 65 35 65 27 1 -20z m273 -21 c2 -3
-5 -30 -17 -61 -12 -31 -21 -76 -21 -100 0 -24 -7 -59 -15 -77 -8 -18 -28 -71
-45 -118 -29 -77 -64 -139 -74 -129 -6 6 22 147 33 167 18 35 41 176 41 254
l0 81 47 -7 c25 -3 48 -8 51 -10z m-142 -141 c-9 -7 -12 -15 -8 -19 4 -4 -2
-14 -12 -22 -15 -10 -16 -16 -7 -27 9 -11 8 -17 -4 -27 -8 -7 -15 -21 -15 -31
0 -22 -41 -42 -66 -32 -9 3 -20 0 -24 -7 -7 -11 -14 -10 -41 3 l-34 16 28 10
c15 6 27 17 27 26 0 8 5 15 10 15 7 0 8 13 4 35 -5 31 -3 36 20 45 14 5 26 17
26 26 0 10 5 14 15 10 8 -3 15 -1 15 4 0 18 30 10 30 -7 1 -17 1 -17 14 -1 7
10 16 15 19 11 4 -3 8 0 8 8 1 8 4 5 6 -5 3 -11 -2 -25 -11 -31z m-15 -138
c-17 -17 -24 -1 -10 25 12 21 14 21 17 4 2 -10 -1 -23 -7 -29z m363 -14 c3
-16 7 -53 7 -83 1 -30 6 -61 12 -67 19 -25 -15 -13 -55 19 -38 30 -40 33 -35
77 3 30 12 51 27 63 30 24 37 23 44 -9z m-38 -198 c27 -14 55 -25 62 -25 13 0
32 -18 83 -75 40 -46 80 -78 122 -97 21 -10 40 -26 44 -35 21 -57 82 -105 181
-143 40 -15 48 -29 56 -100 6 -42 5 -51 -4 -40 -9 12 -11 10 -7 -13 2 -15 0
-30 -5 -33 -4 -3 -6 -9 -3 -14 9 -15 -24 -19 -82 -10 -32 6 -76 10 -99 10 -22
0 -49 7 -60 15 -26 19 -84 20 -84 0 0 -18 -41 -12 -120 17 -66 26 -75 32 -112
82 -23 32 -28 49 -28 95 0 45 -5 62 -24 84 -15 17 -27 47 -31 77 -7 52 10 152
31 184 7 10 10 25 7 32 -8 21 18 17 73 -11z m469 -284 c-7 -6 -68 34 -73 48
-3 8 13 1 36 -15 22 -16 39 -31 37 -33z m-2925 -131 c18 -12 2 -12 -25 0 -13
6 -15 9 -5 9 8 0 22 -4 30 -9z m-33 -32 c-3 -8 -6 -5 -6 6 -1 11 2 17 5 13 3
-3 4 -12 1 -19z m3516 -301 c-3 -6 -8 -6 -12 0 -3 5 -14 12 -23 16 -10 3 -18
11 -18 17 0 7 12 4 29 -6 17 -10 27 -22 24 -27z m52 5 c-7 -8 -35 7 -35 18 0
6 7 6 20 -2 10 -7 17 -14 15 -16z m-474 -44 c44 -48 91 -180 67 -194 -33 -21
-46 -11 -52 40 -3 28 -15 76 -26 106 -28 78 -27 87 11 48z m-2509 -63 c0 -5
-5 -10 -11 -11 -8 -2 -7 -1 0 3 8 4 7 8 -2 15 -11 8 -11 9 -1 6 8 -2 14 -8 14
-13z m2618 -209 c0 -7 -8 -20 -17 -27 -15 -12 -16 -12 -10 4 4 10 7 23 7 28 0
5 5 9 10 9 6 0 10 -6 10 -14z"/>
<path d="M3888 2533 c7 -3 16 -2 19 1 4 3 -2 6 -13 5 -11 0 -14 -3 -6 -6z"/>
<path d="M4380 1890 c0 -13 43 -30 73 -30 21 1 21 1 -3 14 -40 22 -70 29 -70
16z"/>
<path d="M4515 1871 c-3 -5 -1 -12 5 -16 12 -7 30 2 30 16 0 12 -27 12 -35 0z"/>
<path d="M3730 2699 c0 -5 5 -7 10 -4 6 3 10 8 10 11 0 2 -4 4 -10 4 -5 0 -10
-5 -10 -11z"/>
<path d="M1865 1810 c4 -6 11 -8 16 -5 14 9 11 15 -7 15 -8 0 -12 -5 -9 -10z"/>
<path d="M3981 1743 c-18 -20 -6 -29 14 -10 8 9 12 18 8 20 -5 3 -14 -2 -22
-10z"/>
<path d="M1928 1743 c7 -3 16 -2 19 1 4 3 -2 6 -13 5 -11 0 -14 -3 -6 -6z"/>
<path d="M4050 1739 c0 -5 5 -7 10 -4 6 3 10 8 10 11 0 2 -4 4 -10 4 -5 0 -10
-5 -10 -11z"/>
<path d="M3627 1668 c-6 -45 7 -74 22 -49 8 12 -1 76 -12 87 -2 3 -7 -15 -10
-38z"/>
<path d="M3499 1653 c-8 -21 -12 -23 -24 -13 -13 10 -15 9 -15 -10 0 -12 -10
-34 -22 -48 -11 -15 -19 -20 -16 -11 5 12 -1 16 -21 16 -24 0 -30 -7 -44 -45
-16 -43 -13 -78 4 -51 6 9 9 10 9 2 0 -6 3 -19 7 -29 5 -13 3 -16 -10 -11 -14
5 -16 -2 -15 -48 1 -37 6 -55 14 -55 7 0 12 12 12 28 -1 31 17 72 32 72 15 0
12 -26 -4 -40 -10 -8 -12 -18 -7 -33 12 -31 68 -31 88 0 19 29 36 20 22 -11
-8 -17 -7 -36 5 -76 19 -65 20 -70 3 -70 -8 0 -18 17 -24 38 l-10 37 -2 -37
c0 -21 4 -38 9 -38 6 0 10 -9 10 -19 0 -11 11 -32 25 -47 23 -25 25 -44 4 -44
-5 0 -9 10 -10 23 0 12 -3 16 -6 10 -2 -7 -11 -13 -18 -13 -7 0 -15 6 -18 13
-3 9 -8 9 -16 1 -8 -8 -9 -18 -2 -37 12 -30 3 -34 -29 -17 -17 9 -19 8 -11
-12 5 -13 15 -21 23 -20 7 2 45 6 83 8 161 8 239 15 249 22 6 3 63 8 126 9
128 4 178 10 199 26 17 14 30 17 131 24 47 3 94 11 105 17 11 6 27 12 35 13 8
1 35 7 60 12 46 10 65 6 55 -10 -4 -5 3 -9 14 -9 12 0 21 7 21 15 0 17 36 21
42 4 2 -7 10 -10 18 -7 11 3 8 11 -12 31 -26 25 -26 26 -7 56 10 16 27 34 37
40 38 20 54 58 42 100 -11 43 -33 65 -72 75 -21 5 -28 3 -28 -8 0 -19 -72 -61
-132 -77 -58 -16 -119 1 -139 37 -7 13 -20 24 -30 24 -10 0 -24 9 -32 21 -10
13 -23 19 -39 17 -26 -3 -34 -37 -23 -94 5 -31 8 -33 35 -27 24 4 30 2 30 -11
0 -9 6 -19 14 -22 12 -4 12 -10 -1 -35 -8 -16 -13 -35 -11 -41 6 -16 -40 -58
-62 -58 -10 0 -28 -9 -41 -20 -20 -16 -22 -21 -9 -29 18 -12 13 -17 -30 -26
-33 -7 -34 -7 -20 11 14 16 13 17 -2 11 -10 -3 -20 -2 -23 3 -4 6 -21 10 -39
10 -18 0 -40 6 -51 14 -17 12 -17 13 8 20 15 3 27 11 27 16 0 14 77 13 82 -1
2 -6 13 -9 23 -7 18 4 17 6 -7 16 -14 6 -29 15 -32 20 -11 19 -77 -3 -112 -38
-31 -30 -38 -33 -55 -21 -17 10 -26 9 -55 -8 -19 -11 -34 -16 -34 -11 0 10 19
23 89 62 22 12 29 22 24 33 -4 12 -8 13 -13 5 -6 -9 -9 -9 -12 0 -3 9 -13 4
-31 -14 -22 -22 -29 -25 -41 -14 -16 15 -1 58 20 58 7 0 16 10 20 23 4 12 15
33 26 46 17 22 17 26 3 34 -15 8 -15 11 1 34 16 25 16 26 -5 20 -13 -3 -21 0
-21 8 0 8 -7 11 -19 8 -15 -4 -20 1 -23 19 -4 30 -32 30 -36 0 -5 -30 25 -64
50 -56 12 3 18 0 18 -10 0 -8 2 -21 5 -28 3 -8 -3 -23 -14 -35 -11 -11 -18
-23 -15 -26 3 -2 -4 -7 -16 -10 -19 -5 -20 -2 -14 46 5 45 2 56 -19 79 -13 15
-27 25 -31 21 -3 -3 -6 3 -6 15 0 24 -30 92 -41 92 -17 0 -17 -45 2 -71 26
-37 24 -44 -6 -22 -15 11 -27 32 -31 55 -4 22 -13 40 -23 43 -9 3 -38 25 -64
49 l-48 44 -10 -25z m-109 -113 c0 -11 -4 -20 -10 -20 -5 0 -10 9 -10 20 0 11
5 20 10 20 6 0 10 -9 10 -20z m220 -95 c1 19 2 19 20 -4 26 -30 26 -49 0 -26
-22 20 -27 7 -10 -26 15 -27 29 -108 20 -114 -17 -11 -43 50 -43 102 0 29 -4
53 -8 53 -5 0 -9 8 -9 17 0 15 2 14 15 -3 14 -19 14 -19 15 1z m129 -4 c17
-11 7 -41 -14 -41 -9 0 -14 4 -11 9 4 5 1 11 -6 13 -6 2 -8 10 -4 16 9 14 16
15 35 3z m-35 -79 c5 -37 4 -52 -4 -47 -5 3 -10 13 -10 21 0 8 -4 12 -10 9 -5
-3 -10 -2 -10 4 0 5 4 13 10 16 5 3 7 20 3 38 -4 21 -2 29 4 22 6 -5 14 -34
17 -63z m-147 6 c-3 -8 -6 -5 -6 6 -1 11 2 17 5 13 3 -3 4 -12 1 -19z m193 1
c0 -5 -4 -9 -10 -9 -5 0 -10 7 -10 16 0 8 5 12 10 9 6 -3 10 -10 10 -16z
m-204 -80 c7 -21 8 -36 3 -33 -5 3 -9 12 -9 20 0 8 -4 14 -10 14 -5 0 -10 12
-10 27 0 34 12 22 26 -28z m42 23 c2 -12 -1 -22 -7 -22 -6 0 -11 4 -11 9 0 5
-3 17 -7 27 -4 12 -2 15 8 12 8 -2 15 -14 17 -26z m172 -27 c0 -16 -27 -32
-37 -22 -3 4 -3 13 0 22 8 20 37 20 37 0z m-150 -45 c0 -5 -4 -10 -10 -10 -5
0 -10 5 -10 10 0 6 5 10 10 10 6 0 10 -4 10 -10z m156 -45 c-3 -9 -11 -13 -18
-9 -8 5 -9 2 -5 -9 3 -10 2 -17 -3 -17 -15 0 -12 21 7 42 18 21 29 17 19 -7z
m-126 11 c0 -2 -7 -9 -15 -16 -13 -11 -14 -10 -9 4 5 14 24 23 24 12z m70 -6
c0 -5 -2 -10 -4 -10 -3 0 -8 5 -11 10 -3 6 -1 10 4 10 6 0 11 -4 11 -10z m234
-45 c11 -8 28 -15 38 -15 10 0 18 -4 18 -8 0 -12 -42 -8 -68 6 -24 14 -82 8
-82 -9 0 -5 -12 -8 -27 -8 -21 1 -23 2 -8 6 11 3 27 11 35 18 32 27 67 31 94
10z m-334 -16 c0 -6 -4 -7 -10 -4 -5 3 -10 11 -10 16 0 6 5 7 10 4 6 -3 10
-11 10 -16z"/>
<path d="M1920 1656 c14 -8 27 -12 29 -10 6 6 -1 11 -29 18 l-25 7 25 -15z"/>
<path d="M2000 1647 c0 -21 30 -57 47 -57 14 0 14 3 -2 20 -10 11 -15 20 -10
20 4 0 2 7 -5 15 -15 18 -30 19 -30 2z"/>
<path d="M4040 1610 c0 -5 5 -10 10 -10 6 0 10 5 10 10 0 6 -4 10 -10 10 -5 0
-10 -4 -10 -10z"/>
<path d="M3907 1383 c-4 -3 -7 -11 -7 -17 0 -6 5 -5 12 2 6 6 9 14 7 17 -3 3
-9 2 -12 -2z"/>
<path d="M3191 1340 c-36 -33 -40 -40 -23 -40 11 0 27 7 36 15 8 8 26 19 41
25 15 6 25 16 22 23 -8 24 -32 16 -76 -23z"/>
<path d="M3855 1313 c-18 -14 -18 -15 -2 -9 10 3 23 6 28 6 5 0 9 5 9 10 0 14
-12 12 -35 -7z"/>
<path d="M7029 1174 c-9 -11 -14 -44 -15 -98 -1 -45 -7 -137 -14 -205 -11
-118 -11 -125 6 -138 11 -8 33 -13 49 -11 l30 3 1 228 c0 125 -3 227 -7 227
-4 0 -14 2 -22 5 -7 3 -20 -2 -28 -11z"/>
<path d="M80 693 c0 -7 -7 -13 -15 -13 -25 0 -17 -17 11 -24 33 -9 34 -7 17
24 -7 14 -13 19 -13 13z"/>
<path d="M25 620 c3 -5 8 -10 11 -10 2 0 4 5 4 10 0 6 -5 10 -11 10 -5 0 -7
-4 -4 -10z"/>
<path d="M1551 612 c-9 -17 -36 -25 -166 -47 -11 -2 -48 -9 -82 -15 -34 -6
-65 -10 -70 -9 -4 1 -17 1 -28 0 -17 -1 -18 -3 -4 -16 8 -9 41 -17 78 -20 56
-4 64 -3 68 14 5 18 8 19 48 6 32 -9 46 -10 54 -2 9 9 17 8 32 -2 12 -7 42
-13 68 -13 25 0 52 -5 60 -11 11 -9 15 -9 19 1 3 10 8 9 23 -4 10 -9 19 -13
19 -8 0 6 26 7 63 3 70 -7 83 -4 66 17 -9 11 -8 14 3 14 16 0 38 -19 38 -33 0
-4 -4 -5 -10 -2 -5 3 -10 -3 -10 -14 0 -21 13 -35 24 -24 12 12 57 12 55 0 -3
-27 2 -36 16 -31 8 4 17 -1 21 -9 3 -8 15 -14 28 -14 28 0 52 33 37 51 -6 7
-8 15 -5 19 3 3 -3 3 -14 0 -11 -2 -23 0 -26 6 -4 6 0 11 10 11 13 0 14 3 4
15 -11 13 -8 13 17 0 17 -8 52 -17 79 -20 27 -3 63 -9 79 -13 l30 -8 -35 -8
-35 -8 31 -8 c46 -10 57 -19 44 -35 -7 -8 -27 -11 -58 -9 -26 2 -41 1 -34 -2
6 -3 12 -12 12 -20 0 -16 31 -19 46 -5 5 5 33 19 63 31 41 16 56 18 67 9 8 -7
29 -9 49 -6 19 3 48 2 64 -3 23 -6 34 -4 49 10 11 10 23 16 26 13 11 -11 6
-23 -9 -23 -8 0 -15 -4 -15 -9 0 -14 44 0 54 17 7 13 12 11 26 -8 17 -22 21
-23 59 -12 22 7 43 17 46 22 9 14 -45 32 -73 25 -20 -5 -23 -3 -18 10 3 9 6
18 6 21 0 2 7 1 15 -2 11 -5 13 -2 9 10 -3 9 -1 16 5 16 6 0 11 -4 11 -10 0
-11 40 -50 52 -50 4 0 7 6 5 13 -1 6 4 11 12 9 7 -1 19 2 26 8 16 13 51 14
150 6 111 -10 224 -9 238 1 8 6 20 5 35 -2 15 -8 20 -15 13 -20 -6 -3 -9 -11
-6 -16 9 -14 25 -11 25 6 0 8 9 15 19 15 11 0 23 5 26 10 5 7 11 8 19 1 7 -6
17 -6 26 -1 8 6 34 10 58 10 27 0 45 5 48 14 4 10 15 11 52 4 31 -5 48 -5 50
2 2 5 10 10 18 10 8 0 14 3 14 8 0 4 -37 7 -82 7 -73 1 -169 8 -278 21 -19 2
-69 6 -110 9 -41 3 -91 7 -110 10 -19 2 -98 7 -175 11 -151 7 -210 11 -210 14
0 1 -11 3 -25 5 -14 1 -41 6 -60 9 -109 18 -236 25 -502 25 -193 0 -303 3
-317 10 -26 15 -29 14 -40 -7z m334 -122 c3 -5 -1 -10 -10 -10 -9 0 -13 5 -10
10 3 6 8 10 10 10 2 0 7 -4 10 -10z m52 4 c-3 -3 -12 -4 -19 -1 -8 3 -5 6 6 6
11 1 17 -2 13 -5z m530 -30 c4 -11 13 -14 29 -10 17 5 22 3 18 -8 -5 -14 -84
-18 -84 -4 0 5 5 8 11 8 6 0 9 7 5 15 -3 8 -1 15 5 15 5 0 12 -7 16 -16z
m-257 -15 c0 -7 30 -9 95 -6 52 3 95 2 95 -2 0 -4 -16 -13 -35 -20 -28 -10
-39 -10 -50 -1 -8 6 -27 10 -42 9 -38 -3 -94 11 -87 22 7 13 24 11 24 -2z"/>
<path d="M1050 530 c0 -16 7 -20 33 -20 26 0 36 -6 45 -25 6 -14 17 -25 23
-25 8 0 8 5 -1 15 -13 15 -7 30 11 30 5 0 9 5 10 10 0 13 -40 24 -67 18 -12
-3 -25 0 -28 6 -11 18 -26 13 -26 -9z"/>
<path d="M750 530 c-13 -8 -12 -10 3 -10 9 0 17 5 17 10 0 12 -1 12 -20 0z"/>
<path d="M3633 519 c-20 -20 -23 -21 -38 -5 -20 20 -20 20 -49 0 -16 -10 -26
-12 -31 -5 -9 16 -32 13 -39 -5 -4 -12 -2 -15 9 -10 9 3 20 -3 27 -14 7 -11
19 -20 26 -20 7 0 10 -5 7 -10 -9 -15 23 -24 39 -11 10 8 16 9 21 1 10 -16 55
-12 55 5 0 9 -6 12 -15 9 -19 -8 -32 23 -16 39 10 9 15 8 25 -5 7 -10 16 -14
20 -10 5 4 6 -4 4 -17 -1 -14 3 -26 10 -29 9 -3 11 3 7 21 -9 34 12 44 36 19
17 -19 17 -22 3 -30 -13 -7 -10 -13 20 -32 21 -12 39 -20 42 -18 9 9 -8 38
-22 38 -8 0 -14 9 -14 21 0 11 4 18 10 14 18 -11 50 19 50 48 0 22 -4 27 -17
23 -49 -13 -103 -17 -103 -7 0 19 -45 12 -67 -10z m57 1 c0 -5 -2 -10 -4 -10
-3 0 -8 5 -11 10 -3 6 -1 10 4 10 6 0 11 -4 11 -10z m-100 -44 c0 -2 -7 -6
-15 -10 -8 -3 -15 -1 -15 4 0 6 7 10 15 10 8 0 15 -2 15 -4z"/>
<path d="M3839 523 c-1 -10 -1 -24 0 -30 1 -7 -3 -13 -9 -13 -5 0 -10 -6 -10
-14 0 -8 -3 -16 -7 -19 -5 -2 -2 -2 5 0 8 1 28 3 45 3 l32 0 -22 18 c-16 12
-21 24 -17 38 3 12 1 25 -5 28 -6 4 -12 -1 -12 -11z"/>
<path d="M796 521 c-5 -7 2 -11 17 -11 14 0 30 -7 38 -16 9 -11 22 -14 43 -9
58 12 81 13 94 3 16 -13 30 -2 15 13 -5 5 -39 11 -74 13 -35 2 -78 6 -95 10
-20 5 -34 4 -38 -3z"/>
<path d="M622 509 c2 -6 8 -10 13 -10 5 0 11 4 13 10 2 6 -4 11 -13 11 -9 0
-15 -5 -13 -11z"/>
<path d="M663 500 c-2 -17 2 -19 25 -14 34 8 36 10 27 23 -12 20 -51 13 -52
-9z"/>
<path d="M1370 505 c0 -9 5 -15 11 -13 6 2 11 8 11 13 0 5 -5 11 -11 13 -6 2
-11 -4 -11 -13z"/>
<path d="M3890 510 c0 -5 -7 -10 -16 -10 -8 0 -12 -5 -9 -10 4 -6 15 -8 26 -5
11 4 19 2 19 -4 0 -6 7 -11 15 -11 9 0 15 9 15 22 0 12 -3 18 -6 15 -4 -3 -15
-2 -25 4 -13 6 -19 6 -19 -1z"/>
<path d="M3970 501 c-12 -24 -13 -34 -1 -27 16 10 42 -6 51 -30 6 -14 15 -21
23 -19 7 3 34 -6 60 -20 57 -30 57 -30 57 -9 0 12 7 14 29 9 22 -5 32 -2 43
13 10 15 21 19 41 15 15 -3 27 -10 27 -15 0 -5 6 -6 13 -1 6 4 30 8 52 8 41 1
100 24 63 25 -10 0 -18 4 -18 9 0 21 -223 35 -318 20 -56 -9 -92 3 -92 28 0
20 -18 15 -30 -6z m255 -41 c3 -5 2 -10 -4 -10 -5 0 -13 5 -16 10 -3 6 -2 10
4 10 5 0 13 -4 16 -10z"/>
<path d="M4060 505 c0 -8 2 -15 4 -15 2 0 6 7 10 15 3 8 1 15 -4 15 -6 0 -10
-7 -10 -15z"/>
<path d="M7324 508 c-3 -4 -15 -8 -27 -9 -12 0 -32 -13 -45 -29 -25 -32 -14
-50 12 -21 14 15 24 17 47 11 17 -5 31 -5 34 1 4 5 17 9 31 9 18 0 24 5 24 23
0 20 -5 23 -36 23 -19 0 -38 -4 -40 -8z"/>
<path d="M4088 493 c7 -3 16 -2 19 1 4 3 -2 6 -13 5 -11 0 -14 -3 -6 -6z"/>
<path d="M3895 450 c-8 -13 3 -30 20 -30 23 0 27 18 6 30 -13 7 -22 7 -26 0z"/>
<path d="M5021 446 c-9 -10 -5 -17 15 -31 21 -13 24 -19 13 -26 -8 -5 -9 -9
-4 -9 6 0 4 -4 -3 -8 -7 -5 -10 -15 -7 -24 7 -18 66 -12 78 8 9 16 37 7 37
-13 0 -21 60 -8 82 18 21 24 47 27 27 2 -13 -15 -12 -15 17 0 21 11 61 17 118
18 66 1 86 5 86 15 0 12 -25 14 -130 13 -72 0 -130 -5 -130 -10 0 -5 -4 -9
-10 -9 -5 0 -10 6 -10 14 0 10 -20 16 -70 21 -39 4 -77 13 -84 21 -12 11 -16
11 -25 0z m132 -51 c1 -5 -7 -11 -19 -13 -12 -2 -21 3 -21 11 0 16 36 18 40 2z
m-53 -5 c0 -5 -4 -10 -10 -10 -5 0 -10 5 -10 10 0 6 5 10 10 10 6 0 10 -4 10
-10z"/>
<path d="M4450 429 c0 -24 23 -21 28 4 2 10 -3 17 -12 17 -10 0 -16 -9 -16
-21z"/>
<path d="M4947 443 c-12 -11 -8 -23 9 -23 8 0 12 -5 9 -11 -4 -6 -14 -7 -24
-4 -17 7 -55 15 -81 17 -8 0 -20 5 -26 9 -11 9 -74 -16 -74 -30 0 -4 5 -12 12
-19 9 -9 7 -12 -10 -12 -13 0 -22 -6 -22 -15 0 -12 3 -13 19 -3 15 9 26 9 44
1 19 -9 31 -8 51 2 17 9 28 10 32 3 4 -5 21 -8 39 -6 37 4 60 -18 44 -43 -7
-11 -12 -12 -29 -1 -26 16 -40 15 -40 -3 0 -8 -4 -15 -10 -15 -5 0 -10 4 -10
9 0 5 -10 9 -22 10 -48 1 -77 6 -84 14 -12 12 -24 8 -24 -8 0 -18 -21 -20 -38
-3 -9 9 -12 9 -12 0 0 -7 5 -12 10 -12 6 0 10 -5 10 -12 0 -6 -3 -8 -7 -5 -3
4 -11 2 -18 -3 -8 -7 -15 -2 -23 15 -9 20 -17 24 -37 21 -41 -8 -48 -16 -29
-37 16 -17 16 -19 1 -19 -24 0 -21 -37 3 -45 11 -3 25 -3 30 0 11 7 40 -12 40
-25 0 -10 -92 -6 -108 4 -6 4 -8 21 -5 41 5 34 -8 48 -22 25 -4 -6 -15 -8 -25
-5 -11 3 -36 2 -56 -4 -28 -8 -45 -7 -72 4 -43 18 -42 18 -42 -1 0 -11 -5 -14
-16 -10 -9 3 -22 6 -30 6 -8 0 -14 7 -14 15 0 8 9 15 19 15 11 0 23 5 26 10 3
6 -1 10 -10 10 -8 0 -19 10 -24 22 -5 14 -10 17 -15 10 -4 -7 -18 -12 -32 -12
-23 0 -31 -10 -17 -23 3 -4 11 -3 18 3 8 6 10 0 7 -25 -3 -26 -9 -34 -30 -38
-20 -4 -31 0 -43 15 -9 12 -21 18 -28 14 -6 -4 -11 -3 -11 3 0 6 -9 15 -21 21
-17 10 -20 9 -19 -7 5 -44 1 -50 -31 -45 -24 4 -30 9 -26 23 7 26 -1 29 -51
19 -40 -7 -47 -3 -43 22 0 5 -18 6 -42 4 -23 -2 -48 1 -55 7 -9 7 -16 7 -24
-1 -8 -8 -4 -14 15 -23 31 -14 34 -27 10 -36 -10 -4 -24 -15 -31 -25 -18 -25
-35 -23 -27 3 6 19 4 20 -24 14 -22 -5 -38 -1 -58 13 -45 31 -80 36 -93 12
-15 -28 -27 -25 -35 10 -4 17 -10 30 -15 30 -11 0 -25 -21 -26 -40 -1 -8 -2
-25 -3 -37 -1 -18 -7 -23 -28 -23 -25 1 -26 2 -10 14 9 7 17 25 17 40 0 20 -5
26 -21 26 -15 0 -19 4 -15 16 4 10 2 14 -6 11 -7 -2 -12 -10 -11 -16 2 -6 -6
-11 -17 -11 -11 0 -20 5 -20 10 0 6 -4 10 -10 10 -5 0 -10 -6 -10 -14 0 -7 -6
-18 -13 -24 -10 -8 -16 -3 -27 21 -12 27 -15 29 -18 12 -2 -11 -10 -25 -18
-32 -11 -8 -12 -13 -3 -18 6 -4 15 -1 20 6 6 9 9 10 9 2 0 -6 -4 -15 -10 -18
-5 -3 -10 -19 -10 -36 0 -34 -16 -39 -26 -6 -4 12 -11 25 -16 28 -5 3 -1 20 9
37 18 32 14 50 -9 36 -7 -5 -23 -7 -35 -5 -16 1 -23 -3 -23 -13 0 -18 -16 -21
-26 -5 -3 6 -17 9 -30 6 -13 -2 -24 0 -24 5 0 6 -8 7 -17 3 -10 -4 -24 -8 -30
-8 -7 0 -18 -13 -25 -29 -7 -15 -16 -28 -20 -28 -5 0 -8 -7 -8 -16 0 -11 6
-15 20 -11 10 3 24 -1 31 -9 17 -21 38 -17 51 11 12 27 38 34 38 10 0 -9 -10
-20 -22 -25 -13 -5 -19 -9 -14 -9 5 -1 3 -8 -4 -16 -10 -12 -9 -15 6 -15 16
-1 15 -3 -6 -15 -14 -8 -34 -14 -45 -14 -20 0 -20 0 -1 14 16 12 17 17 6 30
-15 19 -36 19 -47 1 -12 -19 -63 -27 -63 -9 0 7 6 16 14 19 8 3 12 12 9 20 -3
8 2 21 12 27 11 9 16 24 13 47 -2 28 -7 35 -25 36 -12 1 -21 -4 -20 -10 1 -6
-11 -12 -27 -14 -17 -2 -26 0 -22 7 3 5 -3 12 -14 16 -23 7 -25 16 -8 33 9 9
8 12 -5 12 -9 0 -17 5 -17 10 0 13 48 32 61 24 11 -6 39 19 39 35 0 11 -30 7
-78 -10 -16 -6 -33 -4 -53 6 -17 9 -30 11 -30 5 -2 -13 -6 -29 -9 -35 -1 -3
-3 -10 -4 -17 0 -7 -12 -15 -26 -18 -16 -4 -21 -8 -13 -13 18 -12 65 3 59 19
-6 16 20 39 29 24 3 -5 4 -14 1 -19 -3 -5 0 -11 8 -14 9 -4 12 -14 9 -26 -6
-25 -21 -27 -38 -4 -11 15 -14 14 -34 -6 -14 -14 -20 -30 -17 -46 7 -39 -41
-24 -57 17 -9 25 -30 23 -22 -2 6 -19 4 -20 -22 -14 -28 7 -28 7 -9 -15 11
-11 26 -21 35 -21 9 0 27 -7 39 -16 14 -10 33 -14 47 -10 32 8 110 -45 92 -63
-18 -18 -67 -14 -74 7 -4 9 -11 20 -17 24 -16 11 -46 10 -46 -2 0 -5 7 -10 17
-10 21 0 13 -9 -13 -13 -10 -1 -24 -6 -30 -10 -12 -7 -59 5 -102 26 -17 8 -25
8 -34 -1 -14 -14 -38 -16 -38 -4 0 5 9 18 21 30 11 12 17 27 14 32 -10 16 5
50 21 50 18 0 18 14 1 29 -16 13 -28 5 -20 -15 3 -8 -1 -14 -11 -14 -9 0 -28
-7 -41 -16 -13 -9 -29 -13 -35 -9 -11 7 -14 36 -2 33 4 0 16 3 26 7 16 7 11
12 -34 32 -29 13 -54 22 -55 21 -2 -2 -6 -14 -9 -28 -5 -17 -4 -21 2 -11 7 9
11 10 17 2 4 -7 16 -9 28 -5 19 6 20 5 5 -10 -9 -9 -24 -16 -32 -16 -9 0 -16
-4 -16 -9 0 -18 -32 -20 -55 -5 -22 15 -25 15 -31 1 -3 -9 -3 -20 0 -25 5 -8
-13 -9 -46 -3 -5 0 -8 12 -8 26 0 45 -58 30 -90 -23 -9 -15 -11 -15 -28 7 -13
16 -22 20 -26 12 -10 -16 -34 -14 -38 5 -3 13 -5 13 -23 -1 -20 -15 -20 -16 2
-31 29 -21 29 -41 1 -65 -24 -21 -44 -24 -54 -8 -4 8 0 9 15 4 17 -5 21 -2 21
14 0 11 -4 23 -10 26 -5 3 -7 19 -3 35 4 25 2 30 -13 31 -15 0 -14 2 5 10 16
6 21 13 14 20 -6 6 -19 6 -37 -1 -21 -8 -26 -15 -21 -30 5 -15 2 -20 -14 -20
-11 0 -23 -4 -26 -10 -4 -6 -16 -4 -31 6 -18 13 -37 15 -77 10 -28 -4 -79 -8
-112 -9 -68 -3 -87 -11 -78 -33 4 -10 -2 -17 -15 -21 -37 -9 -35 -41 2 -34 5
1 16 -1 25 -5 17 -7 33 -9 94 -12 38 -2 50 -19 20 -28 -10 -3 -26 -10 -35 -15
-10 -5 -27 -9 -39 -9 -11 0 -29 -5 -41 -11 -26 -14 -35 -4 -16 18 11 12 13 25
8 38 -7 17 -9 17 -9 3 -1 -23 -13 -23 -28 1 -15 23 -53 35 -53 15 0 -8 -4 -14
-9 -14 -15 0 -33 29 -26 41 6 8 2 8 -14 0 -17 -10 -21 -9 -21 4 0 8 -4 15 -8
15 -12 0 -57 -50 -46 -51 36 -5 84 -26 84 -38 0 -8 -23 -21 -36 -21 -2 0 -4 9
-4 20 0 15 -7 20 -26 20 -21 0 -24 -4 -19 -20 8 -24 -2 -26 -26 -4 -17 15 -17
18 3 56 16 31 18 42 9 51 -10 9 -17 7 -31 -10 -20 -25 -40 -30 -40 -11 0 7 -7
3 -15 -9 -8 -12 -12 -29 -8 -39 6 -15 2 -16 -33 -11 -21 4 -40 11 -42 17 -6
16 -22 12 -22 -5 0 -8 7 -15 16 -15 9 0 14 -6 12 -12 -3 -7 -10 -13 -16 -12
-7 1 -21 2 -32 3 -24 1 -26 26 -4 39 11 6 13 12 6 16 -6 3 -13 2 -17 -4 -3 -5
-21 -10 -39 -10 -17 0 -37 -5 -43 -11 -7 -7 -41 -13 -77 -14 l-65 -3 15 29
c19 37 4 37 -33 0 -22 -22 -36 -28 -56 -24 -15 3 -27 12 -27 19 0 19 -27 18
-38 -2 -12 -21 -32 -10 -32 18 0 17 -4 19 -25 14 -18 -5 -32 -1 -47 14 -23 21
-48 27 -48 10 0 -5 -5 -10 -11 -10 -6 0 -9 7 -5 15 4 11 -2 15 -21 15 -19 0
-23 -3 -15 -13 7 -8 7 -18 2 -27 -8 -13 -13 -12 -40 3 -16 10 -35 15 -42 11
-8 -5 -6 -10 8 -16 11 -5 5 -5 -16 -1 -19 4 -55 8 -80 9 -25 1 -49 3 -54 3 -5
1 -3 8 4 16 22 26 -32 18 -75 -11 -24 -16 -57 -27 -87 -30 -54 -5 -61 1 -20
18 l27 12 -29 4 c-16 2 -33 -1 -39 -7 -6 -6 -15 -11 -19 -11 -13 0 -9 28 5 33
6 2 9 8 5 11 -3 4 -30 -11 -58 -33 -55 -43 -99 -58 -67 -23 10 10 17 22 17 25
0 11 -39 8 -62 -4 -14 -8 -23 -8 -31 0 -6 6 -19 11 -29 11 -16 0 -18 -10 -18
-84 l0 -83 192 -7 c106 -4 234 -7 283 -8 50 0 317 -2 595 -5 502 -4 505 -4
518 16 10 18 10 21 -4 21 -9 0 -14 5 -12 12 6 18 28 21 28 4 0 -9 5 -16 12
-16 9 0 9 -3 0 -12 -7 -7 -12 -16 -12 -20 0 -4 168 -8 373 -8 l373 0 23 26
c12 14 25 23 28 20 4 -3 -2 -15 -12 -26 l-18 -20 2516 0 2515 0 1 135 c0 109
-2 135 -14 135 -8 0 -17 -4 -20 -10 -8 -14 -55 -13 -55 1 0 6 9 9 20 6 15 -4
20 0 20 15 0 17 5 19 25 14 20 -5 25 -3 25 13 0 11 -6 22 -12 24 -10 4 -10 6
0 6 14 1 17 51 2 51 -5 0 -10 -7 -10 -15 0 -8 -7 -15 -15 -15 -8 0 -15 5 -15
10 0 6 -4 10 -10 10 -5 0 -10 -6 -10 -14 0 -23 -20 -30 -33 -12 -10 14 -12 11
-14 -16 -2 -18 -9 -38 -18 -44 -21 -15 -19 -24 5 -24 11 0 20 6 20 14 0 8 7
17 16 20 21 8 24 8 24 -4 0 -5 -7 -10 -15 -10 -11 0 -15 -11 -15 -36 l0 -35
-29 20 c-16 12 -47 22 -70 23 -48 2 -64 27 -35 59 17 18 16 19 -14 19 -17 0
-34 -5 -37 -10 -4 -6 -16 -8 -27 -4 -21 6 -21 6 1 -17 23 -25 27 -39 10 -39
-5 0 -7 -4 -4 -10 3 -5 -3 -10 -14 -10 -14 0 -19 -5 -15 -15 4 -8 1 -15 -5
-15 -6 0 -11 7 -11 16 0 14 -8 16 -42 11 -24 -3 -65 -1 -92 5 -27 5 -51 6 -55
2 -8 -12 -191 -14 -191 -2 0 5 5 6 10 3 15 -9 12 4 -4 21 -21 21 -39 17 -33
-6 6 -25 -11 -26 -29 -2 -12 15 -15 15 -24 2 -8 -13 -10 -13 -10 2 0 13 -6 17
-22 14 -24 -3 -28 -21 -5 -21 14 0 32 -24 23 -32 -11 -11 -56 28 -56 48 0 19
-25 37 -36 26 -4 -3 1 -19 9 -36 l15 -31 -29 16 c-16 8 -34 12 -39 9 -6 -3
-10 1 -10 9 0 18 -16 21 -25 6 -4 -6 -13 -7 -23 -1 -11 6 -25 5 -37 -1 -20
-11 -20 -11 -1 10 14 17 23 19 37 11 17 -9 18 -7 9 17 -6 14 -8 30 -4 35 3 5
-2 9 -11 9 -11 0 -15 -5 -11 -15 3 -9 0 -15 -9 -15 -10 0 -13 9 -10 30 2 17
-1 30 -7 30 -6 0 -17 8 -24 18 -11 14 -16 15 -31 4 -35 -24 -46 -25 -59 -7
-17 23 -64 30 -64 8 0 -8 9 -17 20 -20 11 -3 17 -9 14 -14 -10 -17 -35 -9 -46
16 -7 15 -18 25 -28 23 -9 -2 -24 3 -32 10 -13 10 -18 9 -28 -3 -7 -8 -20 -15
-29 -15 -13 -1 -13 -3 3 -15 18 -13 18 -15 3 -15 -10 0 -22 12 -28 27 -7 20
-12 24 -18 14 -5 -7 -14 -11 -22 -10 -8 1 -27 -3 -43 -10 -24 -9 -32 -9 -46 4
-36 33 -45 17 -23 -42 3 -7 0 -13 -6 -13 -6 0 -11 -7 -11 -15 0 -8 5 -15 11
-15 5 0 7 -5 4 -11 -4 -6 -9 -8 -13 -5 -3 3 -11 -2 -18 -12 -10 -12 -16 -14
-22 -5 -4 7 -27 15 -50 19 -23 4 -42 10 -42 15 0 5 -7 6 -15 3 -8 -4 -15 -14
-15 -24 0 -10 -7 -21 -16 -24 -24 -9 -26 -8 -15 13 8 14 7 22 -4 31 -8 7 -12
16 -9 21 3 5 1 9 -5 9 -16 0 -24 -21 -12 -33 18 -18 13 -25 -14 -23 -18 1 -28
8 -32 24 -6 25 -18 29 -27 7 -8 -21 -50 -19 -71 5 -22 24 -96 30 -76 6 10 -12
8 -13 -8 -9 -12 3 -21 11 -21 18 0 7 -7 15 -15 19 -9 3 -15 0 -15 -9 0 -8 5
-15 10 -15 6 0 10 -11 10 -24 0 -19 7 -26 30 -31 16 -4 34 -4 40 0 5 3 10 2
10 -4 0 -5 8 -11 18 -14 9 -2 -11 -4 -45 -4 -52 0 -63 3 -63 17 0 31 -32 47
-90 44 -30 -1 -56 -3 -58 -3 -1 -1 5 -12 14 -26 9 -14 14 -28 11 -31 -8 -8
-77 39 -77 53 0 6 -6 13 -12 16 -16 5 -58 -13 -58 -25 0 -13 -27 -9 -44 7 -8
8 -21 15 -29 15 -14 0 -27 28 -27 62 0 11 6 15 20 11 27 -7 25 12 -2 31 -24
17 -41 20 -51 9z m-19 -55 c-6 -18 -28 -21 -28 -4 0 9 7 16 16 16 9 0 14 -5
12 -12z m1135 -32 c3 4 14 4 23 0 13 -5 15 -9 6 -18 -7 -7 -12 -20 -12 -30 0
-10 -4 -18 -10 -18 -5 0 -10 9 -10 19 0 25 -18 37 -33 22 -16 -16 -24 -14 -30
8 -3 15 1 21 17 23 11 2 26 0 32 -4 6 -4 14 -5 17 -2z m248 -12 c5 -15 7 -30
3 -33 -4 -3 -9 0 -11 7 -3 7 -11 19 -19 26 -18 19 -18 26 1 26 9 0 20 -12 26
-26z m-341 -3 c22 -1 23 -3 8 -12 -10 -5 -18 -17 -18 -24 0 -23 -17 -18 -23 7
-5 18 -8 19 -21 8 -13 -10 -19 -10 -31 0 -32 27 -21 30 85 21z m183 -7 c-4
-12 -8 -12 -13 -3 -6 8 -11 5 -19 -10 -14 -24 -31 -28 -31 -6 0 9 10 20 23 25
34 14 47 12 40 -6z m107 6 c0 -5 -2 -10 -4 -10 -3 0 -8 5 -11 10 -3 6 -1 10 4
10 6 0 11 -4 11 -10z m1090 -10 c0 -5 -5 -10 -11 -10 -5 0 -7 5 -4 10 3 6 8
10 11 10 2 0 4 -4 4 -10z m-1160 -24 c0 -9 -30 -14 -35 -6 -4 6 3 10 14 10 12
0 21 -2 21 -4z m45 -17 c10 -15 -1 -23 -20 -15 -9 3 -13 10 -10 16 8 13 22 13
30 -1z m73 -17 c8 -6 2 -9 -17 -9 -17 0 -28 4 -25 9 7 10 25 10 42 0z m-3403
-12 c3 -6 -1 -7 -9 -4 -18 7 -21 14 -7 14 6 0 13 -4 16 -10z m595 -5 c0 -8 -7
-15 -15 -15 -16 0 -20 12 -8 23 11 12 23 8 23 -8z m1630 -2 c0 -2 -7 -11 -15
-19 -13 -14 -15 -13 -15 10 0 18 4 24 15 20 8 -4 15 -8 15 -11z m133 0 c-7 -2
-13 -12 -13 -21 0 -13 -3 -13 -12 -4 -10 10 -10 15 2 22 8 5 20 9 25 9 6 0 4
-3 -2 -6z m-2015 -15 c-2 -6 -10 -14 -16 -16 -7 -2 -10 2 -6 12 7 18 28 22 22
4z m2257 2 c3 -5 1 -10 -4 -10 -6 0 -11 5 -11 10 0 6 2 10 4 10 3 0 8 -4 11
-10z m-995 -48 c-17 -6 -44 24 -35 38 5 7 13 4 27 -12 12 -15 15 -24 8 -26z
m1855 38 c-3 -5 -12 -10 -18 -10 -7 0 -6 4 3 10 19 12 23 12 15 0z m-525 -10
c0 -5 -4 -10 -10 -10 -5 0 -10 5 -10 10 0 6 5 10 10 10 6 0 10 -4 10 -10z
m992 -2 c-9 -9 -15 -9 -24 0 -9 9 -7 12 12 12 19 0 21 -3 12 -12z m-4882 -19
c11 -20 -1 -49 -20 -49 -12 0 -33 48 -26 59 11 18 34 13 46 -10z m130 11 c0
-5 -2 -10 -4 -10 -3 0 -8 5 -11 10 -3 6 -1 10 4 10 6 0 11 -4 11 -10z m1403 4
c3 -3 1 -19 -5 -35 -8 -24 -16 -29 -42 -29 -18 0 -41 6 -52 14 -18 14 -18 15
11 26 17 7 39 16 50 20 25 11 30 11 38 4z m1742 -14 c18 -12 24 -20 14 -20 -8
0 -24 6 -34 14 -11 8 -25 12 -32 9 -7 -3 -13 0 -13 6 0 17 32 13 65 -9z m1585
-20 c0 -14 -31 -20 -51 -10 -23 13 -25 30 -4 30 8 0 15 5 15 12 0 6 9 3 20 -7
11 -10 20 -21 20 -25z m65 31 c7 -12 -12 -24 -25 -16 -11 7 -4 25 10 25 5 0
11 -4 15 -9z m-3855 -11 c0 -5 -13 -8 -29 -7 -16 1 -27 5 -24 10 6 10 53 9 53
-3z m990 0 c0 -5 -5 -10 -11 -10 -5 0 -7 5 -4 10 3 6 8 10 11 10 2 0 4 -4 4
-10z m130 -24 c0 -12 7 -31 15 -42 21 -31 6 -38 -17 -8 -13 16 -26 23 -38 19
-29 -9 -34 14 -10 40 25 27 50 23 50 -9z m250 25 c0 -5 -7 -12 -16 -15 -14 -5
-15 -4 -4 9 14 17 20 19 20 6z m1996 -18 c-7 -7 -26 7 -26 19 0 6 6 6 15 -2 9
-7 13 -15 11 -17z m154 17 c0 -5 -2 -10 -4 -10 -3 0 -8 5 -11 10 -3 6 -1 10 4
10 6 0 11 -4 11 -10z m-1760 -10 c0 -5 -4 -10 -10 -10 -5 0 -10 5 -10 10 0 6
5 10 10 10 6 0 10 -4 10 -10z m2145 0 c-3 -5 -10 -10 -16 -10 -5 0 -9 5 -9 10
0 6 7 10 16 10 8 0 12 -4 9 -10z m80 0 c3 -5 1 -10 -4 -10 -6 0 -11 5 -11 10
0 6 2 10 4 10 3 0 8 -4 11 -10z m-4471 -8 c3 -5 -7 -21 -22 -38 -27 -29 -27
-29 -30 -6 -5 31 38 66 52 44z m-504 -14 c0 -7 -5 -20 -10 -28 -9 -13 -11 -13
-20 0 -16 24 -12 40 10 40 11 0 20 -6 20 -12z m1213 -19 c5 -4 -2 -15 -17 -24
-31 -21 -46 -13 -22 10 9 9 16 24 17 33 0 14 2 14 6 2 3 -8 10 -18 16 -21z
m1212 21 c7 -12 -12 -50 -25 -50 -11 0 -14 43 -3 53 9 10 21 9 28 -3z m2415 0
c8 -5 11 -12 8 -16 -10 -9 -38 3 -38 16 0 12 10 13 30 0z m-6440 -15 c-7 -8
-17 -15 -22 -15 -6 0 -5 7 2 15 7 8 17 15 22 15 6 0 5 -7 -2 -15z m4477 4 c13
-13 -2 -58 -24 -72 -10 -6 -10 -13 -3 -28 6 -10 8 -19 6 -19 -3 0 -10 9 -16
21 -8 15 -8 24 0 34 8 10 8 19 -2 35 -11 17 -11 22 2 30 19 12 24 12 37 -1z
m781 -14 c16 -17 16 -17 -8 -11 -14 4 -38 8 -54 9 -46 3 -42 23 5 21 24 -1 47
-8 57 -19z m192 21 c0 -3 -4 -8 -10 -11 -5 -3 -10 -1 -10 4 0 6 5 11 10 11 6
0 10 -2 10 -4z m-2180 -21 c-7 -9 -15 -13 -19 -10 -3 3 1 10 9 15 21 14 24 12
10 -5z m1351 -8 c-13 -13 -26 -3 -16 12 3 6 11 8 17 5 6 -4 6 -10 -1 -17z
m-727 -8 c-8 -14 -24 -10 -24 6 0 9 6 12 15 9 8 -4 12 -10 9 -15z m406 -10 c0
-16 -42 -20 -64 -5 -14 8 -33 12 -46 9 -16 -4 -21 -3 -16 5 10 16 49 15 65 0
11 -11 15 -10 24 4 8 12 15 14 24 6 7 -6 13 -14 13 -19z m2296 17 c32 -24 7
-30 -28 -7 -27 17 -29 21 -12 21 11 0 29 -6 40 -14z m-6556 -6 c0 -19 -40 -90
-50 -90 -13 0 -13 17 0 25 6 3 10 19 10 35 0 25 9 37 33 39 4 1 7 -4 7 -9z
m1990 0 c0 -5 -10 -10 -22 -10 -19 0 -20 2 -8 10 19 13 30 13 30 0z m1101 0
c5 0 9 -4 9 -10 0 -16 -26 -12 -41 7 -12 15 -12 16 4 10 10 -4 23 -7 28 -7z
m-2765 -15 c-26 -19 -42 -19 -26 0 7 8 20 15 29 15 13 -1 13 -3 -3 -15z m6029
-44 c3 -6 2 -11 -2 -11 -11 0 -33 57 -25 65 4 3 10 -5 13 -19 4 -13 10 -29 14
-35z m-4265 39 c0 -5 -13 -10 -30 -10 -16 0 -30 5 -30 10 0 6 14 10 30 10 17
0 30 -4 30 -10z m2611 -8 c-13 -2 -27 0 -32 5 -6 6 3 7 23 4 28 -4 29 -6 9 -9z
m2179 -2 c-12 -7 -12 -11 0 -25 13 -15 12 -17 -5 -13 -14 2 -19 10 -17 23 4
21 23 38 31 29 3 -3 -1 -9 -9 -14z m-5920 -11 c0 -12 -37 -12 -44 0 -3 4 -3
11 0 14 8 7 44 -4 44 -14z m505 11 c-3 -5 -11 -10 -17 -10 -6 0 -20 -7 -30
-17 -21 -18 -31 -14 -22 10 5 14 23 22 62 26 7 0 10 -3 7 -9z m978 -37 c-3 -7
-9 -13 -13 -13 -12 0 -23 38 -15 51 9 14 34 -21 28 -38z m127 37 c0 -5 -10
-10 -22 -10 -19 0 -20 2 -8 10 19 13 30 13 30 0z m915 -19 c-7 -23 -25 -29
-25 -8 0 14 21 39 28 33 2 -3 1 -14 -3 -25z m1123 23 c31 -9 28 -21 -5 -22
-33 0 -45 6 -38 19 7 11 12 11 43 3z m422 -15 c0 -5 -4 -9 -10 -9 -5 0 -10 7
-10 16 0 8 5 12 10 9 6 -3 10 -10 10 -16z m-5350 1 c0 -12 -8 -12 -35 0 -18 8
-17 9 8 9 15 1 27 -3 27 -9z m5626 -17 c-7 -7 -26 7 -26 19 0 6 6 6 15 -2 9
-7 13 -15 11 -17z m-4933 10 c-7 -2 -19 -2 -25 0 -7 3 -2 5 12 5 14 0 19 -2
13 -5z m6428 -26 c-16 -16 -25 -1 -10 16 8 8 16 11 18 5 2 -5 -2 -15 -8 -21z
m-5021 16 c0 -9 -57 -43 -71 -43 -24 0 -5 31 24 39 42 12 47 12 47 4z m4510
-14 c0 -5 -9 -9 -20 -9 -11 0 -20 6 -20 14 0 9 7 12 20 9 11 -3 20 -9 20 -14z
m-5480 1 c0 -5 -7 -10 -16 -10 -8 0 -12 5 -9 10 3 6 10 10 16 10 5 0 9 -4 9
-10z m70 0 c0 -5 -5 -10 -11 -10 -5 0 -7 5 -4 10 3 6 8 10 11 10 2 0 4 -4 4
-10z m980 -15 c0 -7 -7 -15 -15 -19 -16 -6 -19 3 -9 28 7 18 24 12 24 -9z
m1577 19 c-3 -3 -12 -4 -19 -1 -8 3 -5 6 6 6 11 1 17 -2 13 -5z m-3339 -23 c3
-8 -1 -12 -9 -9 -7 2 -15 10 -17 17 -3 8 1 12 9 9 7 -2 15 -10 17 -17z m240
-5 c3 -12 -1 -17 -10 -14 -7 3 -15 13 -16 22 -3 12 1 17 10 14 7 -3 15 -13 16
-22z m739 18 c-3 -3 -12 -4 -19 -1 -8 3 -5 6 6 6 11 1 17 -2 13 -5z m3303 -9
c0 -19 -6 -19 -14 0 -3 8 -1 15 4 15 6 0 10 -7 10 -15z m-2590 -19 c0 -3 -4
-8 -10 -11 -5 -3 -10 -1 -10 4 0 6 5 11 10 11 6 0 10 -2 10 -4z"/>
<path d="M1481 431 c-14 -9 -12 -44 3 -45 5 -1 14 7 20 16 13 21 -3 41 -23 29z"/>
<path d="M2694 431 c10 -16 46 -20 46 -5 0 8 -10 14 -26 14 -14 0 -23 -4 -20
-9z"/>
<path d="M3820 430 c-21 -13 -4 -27 43 -35 41 -8 48 2 19 28 -21 19 -40 21
-62 7z"/>
<path d="M3 415 c-8 -23 0 -25 21 -4 18 17 18 19 2 19 -9 0 -19 -7 -23 -15z"/>
<path d="M1007 423 c-14 -13 -6 -23 18 -23 28 0 34 15 9 24 -19 7 -19 7 -27
-1z"/>
<path d="M1145 420 c3 -5 8 -10 11 -10 2 0 4 5 4 10 0 6 -5 10 -11 10 -5 0 -7
-4 -4 -10z"/>
<path d="M1626 423 c-9 -9 -7 -33 3 -33 12 0 22 28 12 34 -5 3 -11 3 -15 -1z"/>
<path d="M2810 420 c0 -5 4 -10 9 -10 6 0 13 5 16 10 3 6 -1 10 -9 10 -9 0
-16 -4 -16 -10z"/>
<path d="M3190 422 c0 -4 6 -14 13 -21 10 -10 9 -15 -5 -25 -10 -7 -14 -17
-10 -21 4 -4 -11 -5 -33 -1 -59 10 -75 16 -75 27 0 6 -4 8 -9 5 -5 -4 -7 4 -4
15 4 16 2 20 -8 17 -8 -2 -15 -14 -17 -26 -3 -17 -10 -22 -33 -22 -25 0 -29
-4 -29 -26 0 -21 3 -25 18 -18 9 4 33 8 52 8 27 1 35 -3 34 -16 -2 -25 31 -23
55 3 19 21 21 21 45 5 24 -15 26 -15 37 6 8 14 14 18 17 10 2 -6 12 -12 22
-12 10 0 22 -5 25 -10 8 -13 35 6 35 25 0 13 57 18 65 5 6 -9 135 -13 135 -4
0 3 -11 15 -25 26 -13 10 -24 24 -22 30 1 7 -6 14 -16 16 -15 3 -18 0 -12 -16
12 -39 -46 -49 -72 -13 -15 22 -113 28 -113 7 0 -9 8 -13 23 -10 20 4 20 4 2
-4 -25 -11 -55 -4 -55 14 0 7 -9 18 -20 24 -11 6 -20 7 -20 2z"/>
<path d="M4680 421 c0 -12 37 -24 50 -16 20 12 10 25 -20 25 -16 0 -30 -4 -30
-9z"/>
<path d="M5543 419 c-24 -3 -46 -8 -49 -12 -11 -10 40 -25 68 -20 14 3 35 0
46 -6 16 -9 22 -7 34 11 14 21 16 22 33 5 9 -10 20 -15 24 -12 3 4 -5 15 -19
25 -25 19 -51 21 -137 9z"/>
<path d="M5697 424 c-11 -11 25 -54 46 -54 20 0 20 0 1 -14 -17 -13 -14 -15
34 -14 47 1 52 3 52 25 0 24 -25 32 -33 11 -2 -7 -8 -10 -12 -6 -5 5 2 17 15
28 28 24 22 34 -11 22 -13 -5 -33 -6 -44 -1 -25 10 -40 11 -48 3z"/>
<path d="M6456 422 c-6 -11 5 -28 24 -35 8 -3 -2 -6 -22 -6 -27 -1 -38 -5 -38
-16 0 -18 26 -20 36 -4 5 8 10 6 16 -5 13 -22 25 -20 31 6 10 35 -31 86 -47
60z"/>
<path d="M1555 410 c-7 -12 2 -30 16 -30 12 0 12 27 0 35 -5 3 -12 1 -16 -5z"/>
<path d="M2655 410 c-3 -5 6 -17 20 -26 14 -9 24 -23 21 -29 -3 -9 8 -14 35
-17 35 -3 39 -1 37 17 -2 14 -10 20 -30 20 -15 0 -36 10 -48 23 -23 25 -26 26
-35 12z"/>
<path d="M6671 411 c-7 -5 -11 -14 -7 -20 5 -7 12 -7 26 1 10 7 16 16 14 20
-7 10 -15 10 -33 -1z"/>
<path d="M790 399 c0 -5 5 -7 10 -4 6 3 10 8 10 11 0 2 -4 4 -10 4 -5 0 -10
-5 -10 -11z"/>
<path d="M1290 395 c-11 -13 -9 -15 15 -15 16 0 25 5 23 12 -7 19 -24 20 -38
3z"/>
<path d="M2760 400 c0 -5 7 -10 15 -10 8 0 15 -4 15 -10 0 -5 5 -10 12 -10 6
0 3 9 -7 20 -20 22 -35 26 -35 10z"/>
<path d="M6360 400 c0 -5 9 -10 20 -10 11 0 20 5 20 10 0 6 -9 10 -20 10 -11
0 -20 -4 -20 -10z"/>
<path d="M6582 394 c-6 -11 -11 -13 -16 -5 -10 16 -36 14 -36 -4 0 -8 -4 -15
-10 -15 -5 0 -10 -7 -10 -15 0 -18 12 -19 28 -3 9 9 12 8 12 -5 0 -21 19 -22
26 -2 4 8 15 15 26 15 14 0 18 5 14 16 -3 9 -6 20 -6 25 0 15 -18 10 -28 -7z"/>
<path d="M6895 401 c-3 -5 -23 -8 -45 -6 -44 4 -52 -2 -44 -32 5 -18 11 -20
52 -15 26 3 49 8 52 12 3 5 16 10 30 11 15 3 26 12 29 24 3 20 3 20 -18 1 -19
-17 -21 -17 -21 -3 0 18 -25 23 -35 8z"/>
<path d="M1730 390 c0 -5 5 -10 10 -10 6 0 10 5 10 10 0 6 -4 10 -10 10 -5 0
-10 -4 -10 -10z"/>
<path d="M1790 390 c0 -5 7 -10 15 -10 8 0 15 5 15 10 0 6 -7 10 -15 10 -8 0
-15 -4 -15 -10z"/>
<path d="M3400 390 c0 -5 5 -10 11 -10 5 0 7 5 4 10 -3 6 -8 10 -11 10 -2 0
-4 -4 -4 -10z"/>
<path d="M4010 393 c0 -5 11 -13 25 -20 29 -13 33 -6 8 13 -20 15 -33 18 -33
7z"/>
<path d="M4350 378 c0 -16 3 -18 14 -9 10 9 16 9 21 1 7 -12 -22 -39 -42 -40
-18 0 -16 -20 2 -20 8 0 15 4 15 10 0 5 7 7 16 3 10 -4 20 0 26 10 8 15 11 15
33 1 18 -12 28 -13 44 -4 12 6 21 15 21 20 0 6 13 10 29 10 35 0 60 24 35 34
-28 11 -62 6 -67 -8 -5 -11 -14 -13 -39 -6 -18 4 -50 10 -70 13 -33 5 -38 3
-38 -15z"/>
<path d="M7270 390 c0 -5 5 -10 10 -10 6 0 10 5 10 10 0 6 -4 10 -10 10 -5 0
-10 -4 -10 -10z"/>
<path d="M4254 378 c-3 -4 13 -8 36 -8 23 0 39 4 35 9 -7 12 -64 11 -71 -1z"/>
<path d="M6762 378 c3 -7 12 -14 21 -16 12 -2 15 1 11 12 -7 19 -38 22 -32 4z"/>
<path d="M7145 380 c-4 -6 -11 -8 -16 -5 -5 4 -15 3 -21 -2 -18 -11 -67 -10
-60 1 3 6 -3 6 -14 1 -10 -4 -34 -13 -52 -20 -51 -18 -54 -28 -16 -48 20 -9
33 -13 29 -8 -7 12 41 34 110 50 54 13 73 25 57 35 -6 3 -13 2 -17 -4z"/>
<path d="M7190 366 c0 -14 5 -28 11 -32 17 -10 32 12 24 35 -9 29 -35 27 -35
-3z"/>
<path d="M1832 366 c1 -10 8 -17 13 -17 15 1 12 24 -3 29 -9 3 -13 -2 -10 -12z"/>
<path d="M2213 365 c-25 -27 -10 -48 15 -23 13 13 16 38 5 38 -5 -1 -14 -7
-20 -15z"/>
<path d="M3534 369 c-9 -16 -2 -19 55 -25 50 -4 64 4 39 23 -17 14 -86 15 -94
2z"/>
<path d="M6673 373 c-23 -9 -13 -23 16 -23 16 0 34 7 41 15 11 13 8 15 -16 14
-16 0 -35 -3 -41 -6z"/>
<path d="M905 360 c-3 -5 -1 -10 4 -10 6 0 11 5 11 10 0 6 -2 10 -4 10 -3 0
-8 -4 -11 -10z"/>
<path d="M1120 364 c0 -5 4 -15 9 -23 10 -15 51 -6 51 11 0 5 -7 7 -16 4 -9
-4 -23 -1 -30 5 -8 6 -14 8 -14 3z"/>
<path d="M3770 366 c0 -9 40 -13 46 -5 3 5 -6 9 -20 9 -14 0 -26 -2 -26 -4z"/>
<path d="M3921 352 c9 -14 24 -18 69 -17 55 0 58 1 43 18 -20 21 -39 22 -46 2
-5 -12 -10 -12 -34 0 -37 20 -46 19 -32 -3z"/>
<path d="M4171 363 c0 -7 -8 -13 -16 -13 -8 0 -15 -7 -15 -15 0 -12 10 -15 39
-13 35 3 49 18 16 18 -7 0 -16 8 -18 18 -3 9 -5 11 -6 5z"/>
<path d="M752 348 c5 -15 28 -18 29 -3 0 6 -7 12 -17 13 -10 3 -15 -1 -12 -10z"/>
<path d="M2370 350 c0 -5 7 -10 15 -10 8 0 15 5 15 10 0 6 -7 10 -15 10 -8 0
-15 -4 -15 -10z"/>
<path d="M7245 341 c-8 -26 1 -39 16 -24 8 8 8 17 1 29 -9 16 -10 15 -17 -5z"/>
<path d="M4087 343 c-3 -5 -2 -15 2 -22 7 -10 10 -10 16 -1 4 6 3 16 -3 22 -5
5 -12 6 -15 1z"/>
<path d="M4710 340 c0 -5 5 -10 10 -10 6 0 10 5 10 10 0 6 -4 10 -10 10 -5 0
-10 -4 -10 -10z"/>
<path d="M1488 333 c7 -3 16 -2 19 1 4 3 -2 6 -13 5 -11 0 -14 -3 -6 -6z"/>
<path d="M5181 314 c0 -11 3 -14 6 -6 3 7 2 16 -1 19 -3 4 -6 -2 -5 -13z"/>
<path d="M6420 317 c0 -14 20 -37 32 -37 4 0 8 11 8 25 0 18 -5 25 -20 25 -11
0 -20 -6 -20 -13z"/>
<path d="M1300 310 c-13 -8 -12 -10 3 -10 9 0 17 5 17 10 0 12 -1 12 -20 0z"/>
<path d="M2350 306 c0 -9 7 -16 16 -16 9 0 14 5 12 12 -6 18 -28 21 -28 4z"/>
<path d="M3743 306 c-24 -11 -29 -21 -14 -30 12 -8 61 17 61 32 0 14 -16 14
-47 -2z"/>
<path d="M4461 311 c-21 -6 -22 -8 -8 -19 20 -17 52 -12 52 7 0 18 -13 21 -44
12z"/>
<path d="M180 300 c0 -5 15 -10 33 -9 27 0 29 2 12 9 -28 12 -45 12 -45 0z"/>
<path d="M6873 294 c-3 -8 -12 -13 -19 -10 -8 3 -14 2 -14 -3 0 -4 21 -8 48
-7 26 0 52 -1 57 -4 6 -3 11 0 13 5 1 6 -8 12 -20 13 -13 2 -27 8 -32 13 -14
13 -26 11 -33 -7z"/>
<path d="M7058 293 c7 -3 16 -2 19 1 4 3 -2 6 -13 5 -11 0 -14 -3 -6 -6z"/>
<path d="M860 270 c-8 -5 -25 -7 -37 -3 -24 5 -32 -11 -10 -20 22 -8 67 4 67
19 0 16 -1 17 -20 4z"/>
<path d="M1475 255 c-21 -17 -25 -24 -14 -25 9 0 24 11 33 25 20 31 18 31 -19
0z"/>
<path d="M1613 240 c-26 -11 -28 -19 -11 -55 14 -30 20 -31 43 -5 10 11 26 22
36 25 26 9 24 20 -6 33 -30 14 -32 14 -62 2z"/>
<path d="M1132 222 c2 -11 -3 -26 -11 -35 -14 -18 -9 -47 9 -47 5 0 10 9 10
19 0 11 9 23 21 26 17 6 19 9 8 17 -11 7 -11 11 -1 15 21 8 13 23 -14 23 -19
0 -24 -5 -22 -18z"/>
<path d="M2667 233 c-12 -11 -8 -23 8 -23 8 0 15 7 15 15 0 16 -12 20 -23 8z"/>
<path d="M2706 213 c-12 -12 -5 -23 14 -23 11 0 20 4 20 9 0 11 -26 22 -34 14z"/>
<path d="M1195 200 c3 -5 10 -10 16 -10 5 0 9 5 9 10 0 6 -7 10 -16 10 -8 0
-12 -4 -9 -10z"/>
<path d="M880 159 c0 -5 5 -7 10 -4 6 3 10 8 10 11 0 2 -4 4 -10 4 -5 0 -10
-5 -10 -11z"/>
<path d="M950 160 c0 -5 11 -10 24 -10 14 0 28 5 31 10 4 6 -7 10 -24 10 -17
0 -31 -4 -31 -10z"/>
</g>
</svg>
