<?xml version="1.0" standalone="no"?>
<!DOCTYPE svg PUBLIC "-//W3C//DTD SVG 20010904//EN"
 "http://www.w3.org/TR/2001/REC-SVG-20010904/DTD/svg10.dtd">
<svg version="1.0" xmlns="http://www.w3.org/2000/svg"
 width="649.000000pt" height="740.000000pt" viewBox="0 0 649.000000 740.000000"
 preserveAspectRatio="xMidYMid meet">

<g transform="translate(0.000000,740.000000) scale(0.100000,-0.100000)"
fill="#000000" stroke="none">
<path d="M3415 7139 c-33 -11 -80 -29 -105 -41 -24 -11 -54 -24 -65 -29 -51
-22 -135 -83 -197 -141 -77 -73 -226 -241 -238 -269 -5 -13 -14 -31 -18 -39
-22 -38 -30 -60 -46 -125 -18 -68 -18 -72 0 -140 16 -58 25 -73 51 -90 18 -11
32 -28 33 -37 0 -20 16 -32 25 -18 10 17 25 11 25 -10 0 -20 34 -45 50 -35 5
3 14 -3 19 -14 17 -31 65 -22 69 13 4 31 8 32 36 9 12 -9 7 -3 -9 15 -23 24
-42 34 -70 36 -27 2 -41 9 -43 20 -2 9 3 16 12 16 9 0 16 4 16 9 0 22 85 33
268 35 111 1 136 -2 145 -15 7 -9 32 -19 57 -23 24 -4 50 -12 58 -19 11 -9 17
-7 27 7 13 18 15 18 51 0 50 -25 65 -51 41 -68 -13 -10 -28 -11 -59 -4 -56 12
-115 1 -133 -25 -29 -41 -20 -48 53 -45 55 2 67 6 67 20 0 30 17 33 38 7 19
-24 31 -27 99 -32 55 -4 84 -11 105 -26 15 -11 54 -27 86 -35 70 -18 115 -44
145 -85 28 -38 42 -39 42 -6 0 23 2 24 20 15 11 -6 20 -19 20 -30 0 -10 14
-29 31 -41 26 -18 33 -19 40 -8 13 21 10 51 -6 73 -8 10 -12 23 -9 27 3 5 0 9
-5 9 -6 0 -11 5 -11 10 0 6 7 10 15 10 8 0 15 6 15 14 0 7 7 19 16 27 21 17
33 -3 34 -56 l1 -40 16 38 c15 36 15 42 0 73 -10 20 -24 34 -34 34 -15 0 -16
2 -3 10 8 5 21 10 27 10 20 0 43 -55 43 -102 1 -40 2 -42 15 -24 19 25 19 50
0 103 -11 32 -14 85 -13 211 1 93 -1 173 -4 178 -3 5 -9 29 -13 54 -4 25 -11
50 -15 55 -4 6 -13 33 -19 60 -7 28 -14 55 -16 60 -1 6 -3 13 -4 17 -7 31 -38
104 -74 176 -52 105 -123 173 -206 199 -53 16 -161 21 -236 11 -16 -2 -34 -1
-40 3 -10 6 -76 19 -130 25 -16 1 -57 -6 -90 -17z m65 -1000 c0 -11 -4 -17
-10 -14 -5 3 -10 13 -10 21 0 8 5 14 10 14 6 0 10 -9 10 -21z"/>
<path d="M4240 5956 c0 -14 -4 -27 -9 -30 -5 -3 -12 -22 -15 -42 -4 -19 -16
-51 -27 -71 -11 -19 -18 -38 -15 -40 3 -3 -1 -15 -9 -27 -8 -11 -15 -27 -15
-36 0 -9 9 -3 21 15 l21 30 -5 -53 c-7 -86 16 -57 34 44 20 104 33 234 25 234
-3 0 -6 -11 -6 -24z"/>
<path d="M3205 5783 l-29 -16 24 -9 c34 -13 104 -12 126 0 17 11 17 11 -6 12
-14 0 -36 7 -50 15 -31 18 -29 18 -65 -2z"/>
<path d="M3963 5593 c-34 -79 -58 -129 -80 -165 -19 -31 -23 -52 -23 -115 0
-42 4 -90 10 -107 5 -17 12 -44 15 -61 7 -32 71 -99 103 -107 17 -5 20 1 26
54 6 61 29 103 56 103 9 0 15 9 15 24 0 19 -7 27 -32 33 -35 9 -48 31 -33 59
6 10 9 31 8 47 -3 24 0 27 25 27 34 -1 35 11 3 19 -20 5 -24 12 -24 36 1 30
28 45 28 16 0 -8 4 -17 8 -20 4 -2 6 10 4 28 -4 31 -2 33 20 29 15 -3 29 2 38
12 12 14 10 15 -14 5 -25 -9 -29 -8 -39 20 -6 16 -18 30 -27 31 -10 0 -11 2
-2 6 21 8 13 32 -18 48 -42 22 -48 19 -67 -22z m97 -64 c0 -5 -4 -9 -10 -9 -5
0 -10 7 -10 16 0 8 5 12 10 9 6 -3 10 -10 10 -16z m8 -301 c-2 -6 -10 -14 -16
-16 -7 -2 -10 2 -6 12 7 18 28 22 22 4z"/>
<path d="M4178 5625 c-3 -5 -9 -26 -12 -45 l-7 -35 16 29 c14 27 18 75 3 51z"/>
<path d="M3018 5607 c-36 -14 -35 -30 1 -56 40 -29 44 -27 36 20 -7 41 -7 42
19 37 14 -3 26 -1 26 3 0 12 -49 9 -82 -4z"/>
<path d="M3165 5600 c3 -5 21 -10 40 -10 19 0 37 -5 40 -11 4 -6 19 -7 36 -4
17 4 29 2 29 -4 0 -5 15 -11 33 -13 33 -3 37 -14 22 -50 -9 -21 15 -24 64 -7
23 8 31 17 31 34 0 20 -7 24 -52 33 -29 6 -78 17 -108 26 -62 18 -145 22 -135
6z"/>
<path d="M3328 5493 c7 -3 16 -2 19 1 4 3 -2 6 -13 5 -11 0 -14 -3 -6 -6z"/>
<path d="M2885 5340 c-10 -11 -14 -20 -9 -20 12 1 44 25 44 34 0 12 -17 6 -35
-14z"/>
<path d="M3565 5185 c-38 -13 -78 -24 -87 -24 -10 -1 -18 -5 -18 -10 0 -5 -28
-9 -62 -9 -41 1 -74 -4 -93 -15 l-30 -16 57 -1 c36 0 62 -5 72 -15 8 -8 29
-15 46 -15 17 0 40 -5 51 -10 15 -8 19 -7 19 4 0 7 12 17 26 20 35 9 95 58 90
73 -3 6 2 14 10 17 17 7 19 26 2 25 -7 -1 -44 -12 -83 -24z"/>
<path d="M3028 5143 c-22 -6 -23 -22 -3 -30 13 -5 14 -8 3 -22 -16 -20 -17
-73 -2 -78 7 -2 16 13 21 34 6 28 14 39 31 41 28 4 30 37 3 52 -20 10 -25 11
-53 3z"/>
<path d="M2862 5036 c-23 -25 -43 -35 -74 -39 -71 -9 -143 -27 -146 -37 -2 -6
-14 -10 -27 -10 -13 0 -26 -4 -29 -9 -3 -5 -22 -12 -42 -16 -20 -3 -45 -11
-55 -16 -11 -5 -28 -13 -39 -19 -11 -5 -26 -10 -35 -10 -8 0 -34 -11 -59 -25
-25 -14 -51 -25 -59 -25 -13 0 -62 -24 -127 -61 -13 -8 -35 -24 -48 -36 -14
-11 -50 -34 -81 -49 -31 -16 -62 -34 -69 -41 -13 -13 -95 -53 -107 -53 -4 0
-21 -11 -39 -25 -18 -14 -40 -25 -48 -25 -18 0 -38 49 -38 91 0 16 -4 29 -10
29 -5 0 -10 6 -10 13 0 22 -45 40 -77 33 -36 -10 -131 -23 -265 -39 -58 -6
-110 -15 -114 -19 -4 -5 -17 -8 -29 -8 -35 0 -81 -28 -111 -68 -15 -20 -77
-86 -138 -147 -60 -60 -121 -130 -135 -155 -65 -117 -91 -173 -91 -195 0 -13
-4 -27 -10 -30 -5 -3 -10 -17 -10 -31 0 -13 -4 -32 -9 -42 -43 -78 -49 -188
-18 -327 8 -38 18 -113 21 -165 6 -87 22 -159 39 -176 4 -4 7 -14 7 -22 0 -7
18 -51 41 -95 44 -89 117 -173 186 -214 24 -14 43 -28 43 -32 0 -3 22 -30 48
-59 38 -41 57 -54 88 -59 21 -3 56 -17 76 -30 21 -12 41 -23 45 -23 5 0 19 -9
33 -20 31 -25 132 -27 177 -5 24 12 84 77 161 175 8 11 180 16 227 7 44 -8 54
-15 88 -61 l37 -51 -5 -195 c-3 -107 -10 -229 -15 -270 -5 -41 -9 -151 -8
-245 0 -96 -5 -196 -11 -230 -20 -101 -7 -418 28 -705 5 -41 15 -122 21 -180
12 -118 27 -203 41 -239 6 -13 7 -54 3 -90 -6 -69 11 -280 25 -309 5 -9 13
-28 19 -42 5 -14 17 -41 26 -62 9 -20 16 -41 16 -47 0 -6 23 -34 51 -63 53
-55 80 -103 72 -125 -4 -11 217 -13 1219 -13 1213 0 1223 0 1236 20 7 11 15
68 18 128 5 79 11 112 23 127 49 57 88 157 96 245 3 36 10 74 14 85 5 11 14
33 20 48 13 32 15 148 3 162 -11 13 -38 105 -53 180 -6 33 -17 78 -24 100 -8
29 -9 74 -2 170 17 235 11 479 -13 510 -4 6 -11 28 -15 50 -4 22 -10 45 -14
50 -18 23 -48 174 -58 288 -4 51 -1 66 31 132 20 41 36 79 36 85 0 6 4 18 9
28 17 33 30 68 47 127 10 33 30 75 46 93 15 18 31 44 34 58 7 28 45 74 61 74
6 0 31 9 57 21 40 17 52 19 83 8 20 -6 59 -9 89 -6 52 5 53 5 86 -35 18 -22
44 -50 57 -62 14 -11 41 -38 60 -58 43 -43 105 -80 125 -72 8 3 17 1 21 -5 8
-14 122 -14 130 -1 3 6 16 10 28 10 12 0 35 7 51 15 15 8 44 15 62 15 30 0 46
12 126 93 51 52 106 102 121 112 36 23 81 89 97 140 7 22 16 74 21 115 4 41
12 109 18 150 17 127 21 171 24 280 4 113 -7 164 -50 232 -12 21 -23 40 -23
43 0 3 -25 44 -56 93 -59 91 -133 172 -157 172 -20 0 -67 39 -67 56 0 8 -4 14
-10 14 -5 0 -10 6 -10 13 0 8 -9 25 -21 38 -11 13 -32 43 -45 66 -14 23 -36
48 -49 57 -35 23 -105 46 -143 46 -18 0 -40 4 -50 9 -34 19 -135 61 -145 61
-5 0 -25 11 -42 25 -18 13 -63 31 -101 40 -84 20 -100 28 -188 85 -38 25 -78
50 -88 56 -10 6 -29 21 -42 33 -12 11 -26 21 -31 21 -4 0 -27 17 -50 38 -52
45 -119 93 -160 115 -48 25 -102 47 -114 47 -16 0 -105 43 -109 52 -2 4 -10 8
-18 8 -8 0 -22 4 -32 10 -9 5 -35 16 -57 26 -22 9 -49 20 -60 25 -41 17 -108
30 -130 25 -14 -4 -32 1 -46 12 -37 27 -70 44 -76 39 -2 -3 0 -22 5 -43 6 -22
13 -85 16 -141 6 -105 5 -109 -31 -104 -7 1 -13 -3 -13 -9 0 -11 -29 -13 -54
-4 -11 4 -16 19 -16 45 0 42 -14 52 -25 18 -8 -25 -122 -148 -150 -160 -11 -5
-40 -22 -65 -37 -40 -24 -70 -36 -196 -73 -42 -12 -291 -12 -299 1 -3 6 -17
10 -31 10 -25 0 -158 66 -195 97 -59 50 -119 115 -133 144 -20 43 -34 163 -25
208 4 19 17 42 29 51 20 15 18 30 -4 30 -7 0 -26 -15 -44 -34z m-886 -871 c53
-26 134 -108 140 -141 5 -27 1 -34 -25 -54 l-32 -22 -77 60 c-53 40 -76 65
-75 78 2 20 31 94 37 94 1 0 16 -7 32 -15z m2544 -225 c0 -11 8 -35 17 -55 9
-19 15 -36 12 -38 -2 -2 -24 -13 -48 -25 -61 -29 -100 -8 -101 55 0 24 94 95
113 86 4 -2 7 -13 7 -23z m-2184 -236 c-4 -10 7 -27 31 -50 44 -39 49 -40 63
-15 14 26 13 31 -6 31 -8 0 -12 5 -9 10 11 18 24 11 89 -53 59 -58 68 -63 101
-59 20 2 42 -1 51 -9 13 -11 19 -9 37 13 12 14 42 37 67 50 41 22 52 24 120
17 111 -11 209 -10 274 2 61 13 76 8 56 -16 -8 -9 -9 -19 -4 -24 12 -11 179
21 179 34 0 6 5 9 10 7 35 -11 30 -47 -9 -62 -13 -5 -27 -19 -31 -30 -4 -12
-19 -41 -34 -63 -26 -41 -69 -135 -76 -169 -2 -9 -8 -26 -14 -37 -15 -27 -16
-26 29 -40 33 -10 40 -16 40 -38 0 -22 3 -25 27 -20 21 4 33 -2 56 -26 54 -58
67 -97 67 -201 0 -101 5 -127 23 -121 19 7 49 -22 45 -42 -2 -10 -22 -27 -46
-37 -31 -15 -42 -25 -42 -42 0 -13 -21 -45 -50 -77 -27 -30 -50 -60 -50 -66 0
-6 -4 -11 -10 -11 -5 0 -10 -11 -10 -25 0 -39 -26 -82 -55 -89 -26 -7 -35 -26
-12 -26 18 0 75 28 82 41 4 5 22 9 41 9 19 0 34 4 34 10 0 5 -6 7 -14 4 -22
-8 -30 16 -10 30 12 9 28 11 53 5 19 -4 40 -5 45 -1 6 3 27 7 46 8 45 2 80 15
165 62 46 25 126 41 215 43 52 1 115 6 139 12 32 7 49 7 62 -1 10 -7 25 -12
32 -12 7 0 24 -11 37 -24 22 -25 23 -45 5 -88 -10 -26 24 -37 41 -14 7 10 17
15 23 11 10 -6 38 -62 54 -107 6 -18 -14 -132 -26 -144 -4 -4 -7 -15 -7 -25 0
-27 -68 -129 -107 -163 -59 -50 -137 -106 -147 -106 -5 0 -23 -10 -40 -23 -17
-12 -43 -29 -58 -36 -16 -8 -28 -23 -28 -33 0 -11 -5 -16 -11 -12 -6 3 -8 16
-5 29 7 27 -3 39 -20 24 -18 -15 -27 6 -12 31 7 11 16 20 20 20 5 0 8 7 8 15
0 8 -9 15 -20 15 -11 0 -19 -3 -19 -7 3 -20 -2 -24 -17 -12 -14 11 -20 8 -44
-19 -15 -18 -33 -32 -39 -32 -6 0 -11 -7 -11 -15 0 -8 7 -15 15 -15 8 0 15 -3
15 -7 0 -5 11 -8 25 -8 20 0 23 4 18 22 -3 13 -1 23 5 23 13 0 26 -55 17 -70
-4 -6 -3 -16 2 -23 5 -7 15 -25 21 -41 11 -25 11 -28 -3 -23 -11 5 -15 -1 -15
-21 -1 -23 -2 -24 -11 -9 -12 21 -33 23 -25 1 4 -12 1 -14 -14 -9 -22 7 -26
-5 -8 -23 17 -17 -3 -15 -28 3 -24 16 -34 11 -34 -19 0 -12 -15 -33 -35 -49
-31 -24 -35 -26 -35 -9 0 10 5 23 12 30 9 9 9 18 0 37 -10 22 -17 25 -54 23
-39 -3 -43 -1 -42 19 0 12 -3 20 -7 18 -8 -6 -54 36 -61 56 -5 11 -10 10 -28
-7 -14 -14 -19 -27 -15 -35 6 -9 12 -7 22 7 14 18 15 18 33 -6 24 -30 25 -39
5 -46 -8 -4 -15 -16 -15 -28 0 -12 -5 -27 -12 -34 -9 -9 -9 -15 0 -24 19 -19
14 -30 -7 -18 -11 5 -27 7 -36 4 -26 -10 -12 -38 25 -50 30 -10 35 -10 39 5 2
9 8 22 15 30 8 11 8 15 -1 18 -7 3 -13 12 -13 21 0 12 6 9 23 -11 16 -21 36
-31 72 -38 28 -5 51 -13 53 -19 2 -5 10 -6 18 -3 13 5 13 7 2 15 -9 6 -6 7 9
3 12 -3 35 1 53 10 16 8 30 13 30 9 0 -4 6 -1 14 5 27 23 59 1 51 -34 -3 -11
-2 -14 1 -7 8 17 24 15 24 -3 0 -16 75 -89 94 -91 6 0 23 -2 39 -2 16 -1 27
-8 27 -16 0 -12 23 -25 53 -30 4 0 11 -6 15 -12 8 -13 68 -33 95 -31 18 0 25
17 7 17 -5 0 -10 4 -10 10 0 5 7 7 16 3 8 -3 14 -15 12 -27 -2 -14 5 -25 21
-33 35 -19 40 -16 39 26 0 22 2 43 5 48 3 5 -1 22 -9 37 -7 16 -14 36 -14 45
0 10 -3 21 -7 25 -6 6 -8 16 -16 70 -3 23 -27 34 -27 12 0 -8 -4 -17 -9 -20
-5 -3 -8 5 -8 19 0 22 32 55 55 55 15 0 32 -50 39 -111 3 -32 10 -59 16 -59 5
0 7 -16 4 -39 -3 -24 1 -50 9 -67 8 -15 12 -35 9 -46 -4 -10 -2 -18 4 -18 6 0
11 -7 11 -15 0 -8 -4 -15 -10 -15 -5 0 -10 4 -10 9 0 5 -6 11 -14 14 -8 3 -1
-14 17 -39 18 -26 34 -40 38 -33 4 7 9 8 13 1 3 -5 -1 -15 -9 -22 -11 -9 -12
-17 -5 -30 13 -24 13 -110 0 -110 -5 0 -10 5 -10 11 0 5 -4 8 -10 4 -5 -3 -6
-13 -3 -22 5 -13 2 -15 -20 -9 -19 4 -29 1 -35 -11 -9 -15 -15 -13 -53 17 -24
18 -50 40 -56 49 -7 8 -16 11 -20 7 -5 -4 6 -20 22 -35 39 -36 65 -85 58 -110
-3 -12 -9 -18 -14 -15 -5 3 -9 0 -9 -7 0 -7 -10 -1 -22 12 -14 16 -19 18 -15
7 3 -10 2 -20 -3 -23 -6 -4 -10 -15 -10 -26 0 -10 -4 -19 -10 -19 -5 0 -10 5
-10 11 0 6 -6 9 -12 6 -7 -2 -12 -12 -10 -23 1 -13 -10 -26 -38 -42 -43 -24
-62 -57 -53 -90 3 -15 -1 -22 -17 -27 -18 -6 -28 -1 -46 21 -31 38 -30 50 4
57 16 3 35 18 47 39 23 39 37 108 21 108 -6 0 -24 11 -41 25 -23 19 -26 24
-12 25 9 0 17 5 17 10 0 9 -37 15 -68 11 -22 -3 -62 28 -56 43 3 8 0 17 -7 22
-8 4 -10 3 -5 -4 5 -8 2 -10 -8 -6 -21 8 -20 23 2 31 17 7 32 22 32 35 0 11
-44 -4 -65 -23 -12 -10 -36 -24 -55 -30 -78 -25 -160 -65 -172 -83 -4 -6 -5
-18 -3 -27 13 -41 -52 -44 -85 -4 -13 15 -11 20 17 44 17 14 38 41 47 59 9 17
20 32 24 32 4 0 31 22 60 48 50 47 52 50 52 101 0 37 4 53 15 57 8 4 15 11 15
18 0 16 67 81 105 101 l30 17 -61 -5 c-61 -5 -107 -24 -101 -42 3 -9 -36 -35
-52 -35 -3 1 -19 12 -36 26 -16 15 -25 24 -19 20 15 -8 40 22 28 34 -7 7 -80
15 -171 19 -7 1 -23 11 -35 23 -33 33 -57 30 -76 -9 -9 -18 -22 -33 -29 -33
-30 0 -51 -32 -46 -70 6 -42 -7 -56 -36 -41 -14 8 -20 7 -25 -4 -3 -8 -13 -15
-22 -15 -10 0 -14 3 -11 7 4 3 2 12 -4 19 -9 11 -15 9 -29 -8 -15 -19 -20 -20
-33 -10 -9 8 -18 9 -21 3 -7 -11 -116 -3 -131 10 -18 17 -62 9 -85 -16 -13
-14 -28 -25 -34 -25 -6 0 -22 -9 -36 -20 -29 -22 -58 -25 -109 -9 -57 18 -76
30 -145 97 -41 38 -74 62 -88 62 -29 0 -77 59 -90 109 -20 75 -20 91 -2 129
16 31 18 59 17 171 -2 96 -6 137 -15 144 -10 6 -9 8 3 4 12 -4 19 5 28 32 6
21 11 48 11 59 0 36 30 116 51 134 27 23 24 31 -11 25 -35 -7 -39 5 -9 27 12
8 18 19 14 25 -12 20 -23 11 -42 -34 -21 -51 -30 -56 -39 -20 -7 27 12 85 27
85 5 0 9 6 9 13 0 22 35 48 54 41 23 -9 66 33 66 63 0 23 -26 60 -35 51 -3 -3
-7 -20 -9 -39 -2 -19 -4 -37 -5 -41 0 -5 -5 -8 -10 -8 -10 0 -23 79 -22 133 1
22 -3 37 -10 37 -8 0 -10 18 -7 58 3 31 4 47 1 34 -2 -12 -9 -20 -14 -17 -12
8 -12 55 1 55 6 0 10 11 10 25 0 14 -4 25 -10 25 -5 0 -10 -4 -10 -10 0 -5 -5
-10 -11 -10 -7 0 -9 11 -6 28 3 16 0 33 -9 43 -11 12 -16 52 -19 145 -4 141
-8 163 -66 389 -24 94 -29 148 -20 193 22 104 27 117 51 129 34 17 43 16 36
-3z m74 -4 c0 -5 -10 -10 -22 -10 -19 0 -20 2 -8 10 19 13 30 13 30 0z m260 1
c0 -5 -7 -11 -14 -14 -10 -4 -13 -1 -9 9 6 15 23 19 23 5z m-266 -47 c3 -8 2
-12 -4 -9 -6 3 -10 10 -10 16 0 14 7 11 14 -7z m1535 2 c17 -11 14 -66 -4 -66
-9 0 -15 9 -15 24 0 26 -24 53 -34 37 -4 -5 -2 -12 4 -16 18 -11 11 -45 -9
-45 -11 0 -23 5 -26 10 -3 6 -17 10 -30 10 -14 0 -43 7 -65 16 -39 16 -50 29
-30 36 19 6 197 1 209 -6z m-629 -6 c0 -5 -13 -10 -30 -10 -16 0 -30 5 -30 10
0 6 14 10 30 10 17 0 30 -4 30 -10z m358 -8 c-66 -92 -143 -171 -155 -159 -8
8 64 106 107 144 40 36 70 46 48 15z m332 8 c0 -5 9 -10 20 -10 14 0 20 -7 21
-22 2 -23 2 -23 6 -1 4 20 10 21 81 21 42 -1 82 -5 88 -10 7 -5 16 -8 20 -7
32 6 74 -3 74 -15 0 -21 -24 -26 -53 -11 -18 9 -28 10 -36 2 -8 -8 -11 -6 -11
6 0 9 -4 17 -10 17 -5 0 -10 -7 -10 -16 0 -12 -5 -13 -22 -8 -35 12 -70 8 -80
-10 -5 -9 -20 -16 -34 -16 -15 0 -35 -12 -53 -32 -33 -37 -42 -35 -41 8 1 16
1 48 2 72 0 34 3 42 19 42 10 0 19 -4 19 -10z m380 -50 c0 -5 -7 -10 -15 -10
-8 0 -15 5 -15 10 0 6 7 10 15 10 8 0 15 -4 15 -10z m50 -15 c0 -8 -4 -15 -10
-15 -5 0 -10 7 -10 15 0 8 5 15 10 15 6 0 10 -7 10 -15z m50 -5 c0 -5 -4 -10
-10 -10 -5 0 -10 5 -10 10 0 6 5 10 10 10 6 0 10 -4 10 -10z m-218 -16 c9 -3
20 -19 23 -36 8 -33 -3 -53 -11 -21 -3 11 -17 26 -30 33 -24 13 -35 47 -11 36
6 -3 20 -9 29 -12z m273 -14 c3 -5 1 -10 -4 -10 -6 0 -11 5 -11 10 0 6 2 10 4
10 3 0 8 -4 11 -10z m-131 -51 c-9 -11 -19 -17 -21 -15 -8 7 21 45 30 39 4 -3
1 -14 -9 -24z m-124 -46 c0 -19 -5 -23 -30 -23 -16 0 -30 5 -30 10 0 6 -6 10
-14 10 -24 0 -29 20 -12 39 16 17 19 17 51 2 24 -11 34 -23 35 -38z m-260 11
c0 -8 7 -17 15 -20 17 -7 21 -44 5 -44 -5 0 -10 6 -10 14 0 8 -5 18 -11 22 -8
5 -10 -1 -7 -20 6 -31 -18 -49 -33 -25 -13 21 -11 47 7 74 17 26 34 25 34 -1z
m-520 -4 c0 -11 -7 -20 -15 -20 -27 0 -18 30 13 39 1 1 2 -8 2 -19z m353 -23
c22 4 27 2 27 -15 0 -14 -8 -22 -22 -24 -13 -2 -24 -11 -26 -22 -2 -10 -18
-31 -35 -46 -18 -15 -45 -40 -60 -54 -15 -14 -35 -26 -43 -26 -7 0 -14 -9 -14
-20 0 -11 -7 -20 -15 -20 -23 0 -18 37 10 74 14 19 23 40 20 48 -3 8 1 21 10
28 8 7 15 21 15 31 0 11 6 19 14 19 8 0 16 7 20 15 3 8 12 15 21 15 8 0 15 5
15 12 0 7 7 5 18 -5 11 -10 27 -13 45 -10z m-293 -29 c0 -5 -7 -8 -15 -8 -15
0 -20 21 -8 33 7 7 23 -11 23 -25z m774 5 c-4 -16 -12 -35 -19 -43 -7 -8 -15
-32 -18 -53 -7 -43 -38 -116 -49 -117 -12 0 -9 13 7 34 8 11 15 30 15 43 0 13
5 23 10 23 6 0 10 23 10 50 0 39 3 50 16 50 10 0 14 6 11 14 -5 12 1 19 21 25
1 1 -1 -11 -4 -26z m-884 -23 c0 -5 -9 -14 -20 -20 -22 -12 -23 -10 -14 14 7
17 34 22 34 6z m810 1 c0 -17 -97 -74 -112 -65 -16 10 -5 22 42 48 48 26 70
32 70 17z m-668 -63 c31 -18 47 -40 40 -57 -3 -8 -1 -12 4 -9 15 10 3 -80 -12
-93 -8 -6 -14 -22 -14 -35 0 -34 -18 -39 -64 -16 -23 11 -49 23 -58 26 -11 3
-15 11 -12 21 4 10 13 13 25 10 26 -9 15 19 -17 40 -27 17 -32 35 -10 35 19 0
66 -43 66 -61 1 -8 7 -25 16 -39 16 -28 16 -30 -2 107 -6 49 -2 83 11 83 3 0
15 -6 27 -12z m78 -25 c0 -22 -2 -25 -10 -13 -13 20 -13 40 0 40 6 0 10 -12
10 -27z m-310 -13 c0 -5 -4 -10 -10 -10 -5 0 -10 5 -10 10 0 6 5 10 10 10 6 0
10 -4 10 -10z m50 -50 c0 -5 -5 -10 -11 -10 -5 0 -7 5 -4 10 3 6 8 10 11 10 2
0 4 -4 4 -10z m820 -17 c-1 -15 -49 -67 -56 -60 -4 4 0 15 9 25 10 10 17 24
17 30 0 7 7 12 15 12 8 0 15 -3 15 -7z m-152 -44 c7 -12 10 -24 6 -27 -4 -4
-9 -1 -11 6 -3 6 -13 12 -24 12 -19 0 -25 11 -12 23 12 13 28 7 41 -14z m-8
-60 c0 -11 -4 -19 -10 -19 -5 0 -10 6 -10 14 0 8 -3 23 -7 33 -6 16 -5 16 10
4 9 -7 17 -22 17 -32z m-242 -11 c2 -26 -2 -40 -15 -50 -10 -7 -23 -22 -28
-32 -11 -20 -95 -51 -95 -35 0 5 -7 9 -16 9 -9 0 -13 5 -10 13 3 6 9 20 12 30
4 9 10 17 15 17 5 0 9 6 9 14 0 24 72 77 100 74 21 -3 25 -9 28 -40z m392 7
c0 -19 -4 -35 -10 -35 -5 0 -9 16 -8 35 1 19 5 35 10 35 4 0 8 -16 8 -35z m84
13 c-9 -31 -11 -33 -29 -18 -14 11 -13 14 2 26 26 20 35 17 27 -8z m-26 -40
c25 -25 14 -72 -28 -116 -38 -39 -60 -52 -60 -34 0 4 10 12 23 17 23 10 31 54
12 67 -6 5 -3 14 8 25 17 17 18 17 12 -2 -5 -14 -4 -16 3 -7 5 8 8 24 6 38 -2
26 5 31 24 12z m-128 -88 c22 -7 21 -8 -12 -9 -21 -1 -38 -4 -38 -8 0 -17 16
-31 40 -36 24 -4 24 -4 -4 -6 -21 -1 -27 -5 -22 -17 8 -20 -32 -87 -46 -78 -6
4 -6 10 1 17 6 6 11 20 11 32 0 12 6 27 13 34 10 10 9 14 -5 22 -22 12 -23 23
-2 43 17 17 26 18 64 6z m220 -35 c0 -8 -4 -15 -10 -15 -5 0 -7 7 -4 15 4 8 8
15 10 15 2 0 4 -7 4 -15z m-370 -125 c0 -5 -7 -10 -15 -10 -18 0 -20 -26 -2
-33 9 -3 9 -7 0 -17 -9 -10 -15 -10 -27 3 -19 19 -20 33 -3 52 14 16 47 20 47
5z m-244 -11 c3 -6 1 -15 -6 -19 -9 -6 -3 -18 24 -46 37 -38 49 -67 19 -43
-42 31 -103 94 -103 106 0 16 56 18 66 2z m194 -58 c14 -26 -13 -53 -49 -49
-33 4 -45 48 -12 48 11 0 23 5 26 10 10 16 23 12 35 -9z m337 -67 c-3 -3 -12
-4 -19 -1 -8 3 -5 6 6 6 11 1 17 -2 13 -5z m-497 -34 c0 -16 -27 -29 -65 -32
-35 -3 -40 0 -43 19 -3 20 1 21 52 21 31 0 56 -4 56 -8z m-1450 -434 c0 -3 -4
-8 -10 -11 -5 -3 -10 -1 -10 4 0 6 5 11 10 11 6 0 10 -2 10 -4z m1966 -222
c-20 -36 -36 -72 -36 -79 0 -8 -12 -23 -26 -34 -28 -22 -25 -41 7 -41 24 0 24
-1 -1 -45 -11 -20 -20 -46 -21 -58 0 -12 -3 -17 -5 -10 -7 17 -146 -122 -183
-183 -31 -51 -71 -78 -71 -47 0 8 3 12 8 9 11 -7 38 16 44 39 3 11 9 29 14 39
6 17 4 18 -20 12 -25 -6 -26 -5 -21 21 19 87 39 132 78 175 33 36 47 45 67 42
14 -3 32 0 40 5 13 9 12 12 -5 25 -13 10 -15 15 -6 16 20 0 96 81 114 121 8
19 23 54 34 78 l18 44 3 -31 c2 -22 -8 -53 -32 -98z m-1969 69 c2 -6 -2 -13
-9 -16 -9 -3 -14 3 -14 14 0 20 17 21 23 2z m1728 -192 c3 -5 1 -12 -5 -16 -5
-3 -10 1 -10 9 0 18 6 21 15 7z m-495 -221 c0 -5 -4 -10 -10 -10 -5 0 -10 5
-10 10 0 6 5 10 10 10 6 0 10 -4 10 -10z m422 -102 c-9 -9 -12 -7 -12 12 0 19
3 21 12 12 9 -9 9 -15 0 -24z m133 2 c3 -11 13 -20 21 -20 16 0 19 -16 4 -25
-5 -3 -15 5 -22 19 -6 14 -15 26 -20 26 -4 0 -8 5 -8 10 0 18 18 11 25 -10z
m-50 -68 c-8 -8 -25 10 -19 20 4 6 9 5 15 -3 4 -7 6 -15 4 -17z m118 9 c-13
-11 -23 -26 -23 -35 0 -8 -9 -20 -20 -26 -11 -6 -20 -8 -20 -5 0 8 43 68 55
77 22 16 29 6 8 -11z m-55 -19 c2 -7 -2 -10 -12 -6 -9 3 -16 11 -16 16 0 13
23 5 28 -10z m-56 -14 c-8 -8 -9 -15 -1 -25 8 -9 8 -13 0 -13 -18 0 -26 31
-10 41 20 12 25 11 11 -3z m120 -10 c-7 -7 -12 -8 -12 -2 0 14 12 26 19 19 2
-3 -1 -11 -7 -17z m-933 -35 c0 -25 -1 -26 -9 -8 -12 27 -12 35 0 35 6 0 10
-12 9 -27z m954 2 c-3 -9 -8 -14 -10 -11 -3 3 -2 9 2 15 9 16 15 13 8 -4z
m-1873 -73 c0 -4 -9 -13 -19 -19 -16 -10 -18 -9 -14 8 5 18 33 28 33 11z m-90
-82 c0 -11 -7 -20 -15 -20 -8 0 -15 9 -15 20 0 11 7 20 15 20 8 0 15 -9 15
-20z m2112 -152 c-7 -7 -12 -21 -12 -32 0 -17 -2 -18 -9 -7 -11 17 4 51 21 51
9 0 9 -3 0 -12z m-2232 -8 c0 -5 -4 -10 -10 -10 -5 0 -10 5 -10 10 0 6 5 10
10 10 6 0 10 -4 10 -10z m1503 -62 c-3 -16 -12 -28 -19 -28 -8 0 -14 -4 -14
-10 0 -5 7 -10 16 -10 8 0 12 -5 9 -10 -7 -12 -48 7 -43 19 4 11 52 70 54 68
1 -1 0 -14 -3 -29z m614 0 c-3 -8 -6 -5 -6 6 -1 11 2 17 5 13 3 -3 4 -12 1
-19z m72 -153 c22 -44 21 -65 -2 -65 -8 0 -8 3 1 12 9 9 6 14 -11 22 -15 8
-23 22 -25 44 -5 45 11 40 37 -13z m-299 -69 c0 -3 -4 -8 -10 -11 -5 -3 -10
-1 -10 4 0 6 5 11 10 11 6 0 10 -2 10 -4z"/>
<path d="M2452 3633 c9 -10 18 -25 21 -33 4 -11 6 -9 6 6 1 21 -16 44 -33 44
-5 0 -2 -8 6 -17z"/>
<path d="M3120 3610 c0 -5 -9 -10 -20 -10 -11 0 -20 -6 -20 -14 0 -15 21 -26
51 -26 23 0 62 37 54 50 -8 13 -65 13 -65 0z"/>
<path d="M2445 3570 c3 -5 8 -10 11 -10 2 0 4 5 4 10 0 6 -5 10 -11 10 -5 0
-7 -4 -4 -10z"/>
<path d="M2473 3555 c-9 -15 -8 -25 3 -40 8 -10 14 -13 14 -7 0 7 8 12 18 12
15 1 15 2 1 13 -9 7 -18 19 -21 27 -4 12 -7 11 -15 -5z"/>
<path d="M2590 3525 c0 -8 4 -15 10 -15 5 0 7 7 4 15 -4 8 -8 15 -10 15 -2 0
-4 -7 -4 -15z"/>
<path d="M2514 3456 c-6 -17 12 -56 26 -56 5 0 7 -7 4 -15 -4 -8 -12 -15 -19
-15 -7 0 -18 -13 -25 -30 -7 -16 -16 -30 -21 -30 -5 0 -9 -7 -9 -15 0 -21 17
-19 37 5 10 11 25 20 34 20 11 0 19 11 23 34 8 40 -1 67 -19 60 -15 -6 -30 30
-20 46 3 5 4 10 0 10 -3 0 -8 -6 -11 -14z"/>
<path d="M2320 3441 c0 -11 5 -23 10 -26 6 -4 10 5 10 19 0 14 -4 26 -10 26
-5 0 -10 -9 -10 -19z"/>
<path d="M2345 3400 c-3 -6 -3 -20 1 -33 5 -12 8 -25 9 -29 0 -3 3 -10 8 -14
4 -4 7 -19 7 -34 0 -14 5 -31 11 -37 9 -9 9 -23 1 -52 -10 -42 -1 -54 18 -23
9 14 10 13 4 -8 -4 -14 -9 -32 -12 -40 -5 -12 -2 -11 11 2 9 9 25 19 36 23 17
5 17 9 5 57 -8 28 -11 55 -8 59 7 12 -3 11 -27 -1 -16 -9 -19 -7 -19 10 0 14
4 19 12 14 8 -5 9 0 5 17 -4 13 -7 28 -7 33 0 4 -7 6 -15 2 -9 -3 -15 0 -15 8
0 8 -6 17 -12 19 -10 4 -10 8 1 15 8 6 9 12 3 16 -6 3 -13 2 -17 -4z"/>
<path d="M2385 3370 c3 -5 8 -10 11 -10 2 0 4 5 4 10 0 6 -5 10 -11 10 -5 0
-7 -4 -4 -10z"/>
<path d="M2597 3343 c-4 -3 -7 -11 -7 -17 0 -6 5 -5 12 2 6 6 9 14 7 17 -3 3
-9 2 -12 -2z"/>
<path d="M2603 3308 c-13 -6 -23 -18 -23 -26 0 -8 -6 -12 -15 -9 -8 4 -17 2
-20 -3 -4 -6 -1 -10 4 -10 19 0 12 -29 -9 -40 -35 -18 -23 -37 26 -45 42 -6
79 -20 94 -35 3 -3 22 -18 43 -33 20 -15 37 -35 37 -43 0 -7 5 -14 10 -14 6 0
10 -8 10 -19 0 -26 25 -47 27 -22 1 9 8 33 16 52 13 28 16 30 16 12 1 -13 6
-23 12 -23 6 0 9 9 6 20 -3 12 1 23 10 29 9 4 13 14 11 22 -3 8 -1 22 4 32 7
15 4 17 -28 17 -45 0 -97 24 -132 61 -29 32 -45 37 -36 14 9 -22 -20 -19 -41
5 -15 17 -16 24 -7 45 6 14 11 25 9 24 -1 0 -12 -5 -24 -11z m8 -68 c5 0 9 -4
9 -10 0 -5 -11 -10 -25 -10 -16 0 -25 6 -25 16 0 11 5 14 16 10 9 -3 20 -6 25
-6z m20 -43 c-1 -12 -15 -9 -19 4 -3 6 1 10 8 8 6 -3 11 -8 11 -12z m92 -11
c4 -10 1 -13 -9 -9 -15 6 -19 23 -5 23 5 0 11 -7 14 -14z"/>
<path d="M3020 3240 c-10 -19 -9 -21 12 -18 13 2 23 9 23 17 0 23 -23 24 -35
1z"/>
<path d="M2980 3210 c-8 -5 -12 -11 -9 -14 2 -3 11 -1 19 4 8 5 12 11 9 14 -2
3 -11 1 -19 -4z"/>
<path d="M2807 3033 c-4 -3 -7 -11 -7 -17 0 -6 5 -5 12 2 6 6 9 14 7 17 -3 3
-9 2 -12 -2z"/>
<path d="M3165 2861 c-3 -6 -3 -11 2 -11 4 0 2 -4 -5 -8 -17 -11 -4 -42 17
-42 18 0 41 18 41 32 0 4 -10 8 -22 9 -22 1 -22 1 2 9 14 4 20 8 13 9 -6 1
-18 4 -26 7 -8 3 -18 1 -22 -5z"/>
<path d="M2470 2724 c0 -8 5 -12 10 -9 6 3 10 10 10 16 0 5 -4 9 -10 9 -5 0
-10 -7 -10 -16z"/>
<path d="M2536 2723 c-10 -10 -7 -77 4 -93 9 -13 12 -12 25 4 9 12 12 28 8 40
-3 12 -6 26 -6 33 0 14 -22 25 -31 16z"/>
<path d="M2479 2612 c-3 -45 -1 -56 14 -64 16 -8 18 -7 13 10 -4 11 -10 40
-15 63 l-8 44 -4 -53z"/>
<path d="M2937 2620 c-3 -13 -10 -18 -21 -14 -11 4 -16 1 -16 -10 0 -20 -2
-20 41 2 19 10 34 23 31 30 -6 19 -29 14 -35 -8z"/>
<path d="M2991 2544 c0 -11 3 -14 6 -6 3 7 2 16 -1 19 -3 4 -6 -2 -5 -13z"/>
<path d="M3404 2408 c2 -31 7 -44 19 -46 22 -4 34 27 16 40 -10 7 -8 8 8 5 33
-7 37 8 8 27 -41 27 -53 21 -51 -26z"/>
<path d="M3803 2430 c1 -15 8 -20 29 -20 26 0 27 2 16 20 -7 11 -20 20 -30 20
-11 0 -16 -7 -15 -20z"/>
<path d="M3348 2397 c-26 -22 -27 -22 -9 -46 l18 -23 16 41 c25 61 20 65 -25
28z"/>
<path d="M3120 2370 c0 -5 5 -10 10 -10 6 0 10 5 10 10 0 6 -4 10 -10 10 -5 0
-10 -4 -10 -10z"/>
<path d="M3490 2346 c0 -9 7 -19 16 -23 8 -3 13 -12 10 -19 -4 -10 3 -14 20
-14 32 0 28 16 -14 48 -27 20 -32 22 -32 8z"/>
<path d="M3580 2339 c0 -11 5 -17 10 -14 6 3 10 13 10 21 0 8 -4 14 -10 14 -5
0 -10 -9 -10 -21z"/>
<path d="M3286 2333 c-4 -9 -1 -20 6 -24 19 -12 29 0 18 22 -13 23 -16 24 -24
2z"/>
<path d="M3923 2273 c-28 -5 -29 -19 -4 -33 31 -16 41 -12 41 15 0 14 -3 24
-7 24 -5 -1 -18 -4 -30 -6z"/>
<path d="M2970 2256 c0 -7 -7 -19 -15 -26 -8 -7 -12 -16 -9 -21 3 -5 11 -3 18
3 16 17 27 58 15 58 -5 0 -9 -6 -9 -14z"/>
<path d="M3070 2260 c0 -5 5 -10 10 -10 6 0 10 5 10 10 0 6 -4 10 -10 10 -5 0
-10 -4 -10 -10z"/>
<path d="M3730 2134 c0 -16 9 -18 28 -5 10 6 9 10 -7 14 -14 3 -21 0 -21 -9z"/>
<path d="M3348 2133 c6 -2 12 -11 12 -19 0 -18 16 -18 23 0 7 18 -1 26 -27 25
-12 0 -15 -3 -8 -6z"/>
<path d="M3215 2040 c-10 -16 23 -60 43 -60 10 0 23 -5 29 -11 8 -8 14 -5 22
10 10 17 9 21 -3 21 -8 0 -23 11 -34 25 -21 26 -46 33 -57 15z"/>
<path d="M3160 1990 c0 -5 5 -10 10 -10 6 0 10 5 10 10 0 6 -4 10 -10 10 -5 0
-10 -4 -10 -10z"/>
<path d="M3745 1990 c-3 -5 -1 -10 4 -10 6 0 11 5 11 10 0 6 -2 10 -4 10 -3 0
-8 -4 -11 -10z"/>
<path d="M3464 1966 c-3 -14 -1 -32 4 -42 9 -16 11 -15 21 5 13 23 6 61 -9 61
-6 0 -12 -11 -16 -24z"/>
<path d="M3227 1944 c-4 -4 -7 -15 -7 -25 0 -12 -9 -19 -27 -21 -35 -4 -45
-37 -14 -45 11 -3 18 -9 15 -14 -3 -5 6 -14 21 -21 22 -10 27 -9 40 8 8 10 12
27 9 37 -9 28 24 33 50 8 21 -19 27 -21 44 -10 24 15 12 39 -18 39 -10 0 -24
9 -31 19 -15 20 -70 37 -82 25z"/>
<path d="M3038 1863 c7 -3 16 -2 19 1 4 3 -2 6 -13 5 -11 0 -14 -3 -6 -6z"/>
<path d="M3612 1810 c-7 -11 -9 -20 -4 -20 10 0 32 22 32 32 0 15 -15 8 -28
-12z"/>
<path d="M3395 1800 c3 -5 8 -10 11 -10 2 0 4 5 4 10 0 6 -5 10 -11 10 -5 0
-7 -4 -4 -10z"/>
<path d="M3057 1794 c-9 -10 2 -24 18 -24 9 0 12 6 9 15 -6 16 -17 19 -27 9z"/>
<path d="M2995 1775 c-3 -8 -7 -22 -10 -30 -3 -10 2 -15 15 -15 11 0 20 6 20
14 0 8 3 21 6 30 4 11 1 16 -10 16 -9 0 -19 -7 -21 -15z"/>
<path d="M3205 1780 c-3 -5 1 -13 10 -16 22 -9 29 1 11 15 -10 8 -16 9 -21 1z"/>
<path d="M3290 1763 c0 -14 19 -38 25 -32 8 8 -5 39 -16 39 -5 0 -9 -3 -9 -7z"/>
<path d="M2859 1744 c-12 -14 -11 -16 5 -13 11 2 21 10 24 17 5 17 -13 15 -29
-4z"/>
<path d="M2865 1709 c-10 -15 3 -25 16 -12 7 7 7 13 1 17 -6 3 -14 1 -17 -5z"/>
<path d="M3340 1690 c0 -5 5 -10 10 -10 6 0 10 5 10 10 0 6 -4 10 -10 10 -5 0
-10 -4 -10 -10z"/>
<path d="M2941 1617 c-13 -21 -12 -21 5 -5 10 10 16 20 13 22 -3 3 -11 -5 -18
-17z"/>
<path d="M3222 1578 c6 -18 28 -21 28 -4 0 9 -7 16 -16 16 -9 0 -14 -5 -12
-12z"/>
<path d="M3641 1554 c0 -11 3 -14 6 -6 3 7 2 16 -1 19 -3 4 -6 -2 -5 -13z"/>
<path d="M3630 1496 c0 -9 5 -16 10 -16 6 0 10 4 10 9 0 6 -4 13 -10 16 -5 3
-10 -1 -10 -9z"/>
<path d="M3835 1291 c-44 -10 -79 -22 -78 -27 1 -5 24 -12 50 -16 48 -8 100 4
115 26 10 14 10 36 1 35 -5 -1 -44 -9 -88 -18z"/>
<path d="M4071 1074 c14 -17 32 -19 27 -2 -2 6 -12 12 -22 14 -14 2 -15 0 -5
-12z"/>
<path d="M4010 1056 c0 -9 39 -13 51 -5 10 6 4 9 -18 9 -18 0 -33 -2 -33 -4z"/>
<path d="M4165 1030 c3 -5 8 -10 11 -10 2 0 4 5 4 10 0 6 -5 10 -11 10 -5 0
-7 -4 -4 -10z"/>
<path d="M3772 3084 c-12 -8 -22 -20 -22 -25 0 -6 7 -4 15 4 8 9 20 17 27 20
7 2 10 7 7 10 -3 4 -15 0 -27 -9z"/>
<path d="M4193 1816 c-20 -22 -28 -38 -23 -46 6 -11 16 -6 39 19 30 32 40 61
23 61 -5 0 -23 -15 -39 -34z"/>
<path d="M3057 5024 c-13 -17 -15 -29 -9 -41 9 -14 11 -14 21 6 7 12 11 30 9
41 -3 16 -5 16 -21 -6z"/>
<path d="M3011 4939 c-13 -38 -14 -49 -3 -49 11 0 42 66 35 74 -13 12 -21 5
-32 -25z"/>
</g>
</svg>
