<?xml version="1.0" standalone="no"?>
<!DOCTYPE svg PUBLIC "-//W3C//DTD SVG 20010904//EN"
 "http://www.w3.org/TR/2001/REC-SVG-20010904/DTD/svg10.dtd">
<svg version="1.0" xmlns="http://www.w3.org/2000/svg"
 width="740.000000pt" height="556.000000pt" viewBox="0 0 740.000000 556.000000"
 preserveAspectRatio="xMidYMid meet">

<g transform="translate(0.000000,556.000000) scale(0.100000,-0.100000)"
fill="#000000" stroke="none">
<path d="M4565 5515 c-4 -22 -10 -54 -15 -72 -10 -39 0 -49 55 -56 22 -3 49
-7 60 -9 16 -2 20 3 20 22 0 21 -6 26 -35 30 -31 4 -37 10 -50 50 -26 76 -27
77 -35 35z"/>
<path d="M4520 4625 c0 -2 30 -21 68 -42 111 -62 131 -78 267 -216 136 -138
238 -273 350 -465 44 -75 64 -101 77 -98 19 4 55 -18 81 -51 23 -28 37 -30 30
-3 -3 12 0 20 7 20 7 0 9 8 5 20 -5 16 -2 20 19 20 32 0 32 0 1 58 -14 26 -25
55 -25 66 0 10 -8 33 -19 50 -10 17 -22 42 -26 56 -10 33 -64 90 -86 90 -10 0
-20 4 -24 9 -9 16 15 24 30 11 10 -9 15 -9 15 -1 0 6 -12 14 -27 17 -16 4 -38
17 -51 30 -13 13 -29 24 -37 24 -7 0 -16 8 -19 18 -3 9 -28 27 -56 40 -27 13
-50 29 -50 37 0 7 -30 43 -67 79 -55 54 -76 67 -116 76 -27 5 -56 19 -65 29
-19 22 -86 61 -104 61 -6 0 -19 6 -27 14 -9 8 -43 24 -76 35 -60 21 -75 25
-75 16z m277 -131 c-3 -3 -12 -4 -19 -1 -8 3 -5 6 6 6 11 1 17 -2 13 -5z"/>
<path d="M4240 4599 c0 -6 18 -32 39 -58 84 -100 205 -320 280 -508 47 -119
151 -428 180 -536 12 -43 29 -95 39 -115 10 -20 17 -46 15 -57 -3 -14 10 -5
40 28 24 26 48 47 53 47 5 0 20 16 34 36 14 19 37 49 52 67 15 18 28 37 28 42
0 6 20 28 45 48 36 31 45 35 45 20 1 -15 5 -13 23 10 24 29 43 36 34 13 -4 -9
-1 -13 6 -10 7 2 22 -5 34 -16 12 -11 27 -20 33 -20 13 0 4 38 -15 60 -7 8
-15 45 -18 82 -6 82 -41 159 -134 289 -129 181 -346 429 -376 429 -4 0 -42 21
-84 46 -121 73 -353 141 -353 103z"/>
<path d="M4028 4539 c-37 -21 -54 -164 -38 -310 15 -137 44 -304 81 -464 47
-202 81 -302 131 -388 69 -118 59 -236 -19 -237 -14 0 -21 -5 -18 -12 7 -20
-6 -34 -60 -61 -58 -30 -72 -26 -31 9 24 21 28 30 23 60 -6 36 1 42 22 22 19
-19 4 80 -26 169 -74 226 -155 598 -184 848 -5 44 -12 86 -14 94 -3 8 -6 63
-6 123 0 121 -4 128 -61 109 -40 -13 -127 -78 -142 -106 -6 -11 -18 -31 -27
-45 -24 -37 -96 -262 -114 -355 -9 -44 -21 -193 -27 -332 -11 -248 -11 -253
12 -344 16 -65 21 -106 17 -141 -10 -81 -55 -131 -92 -104 -17 12 -17 18 -6
74 8 33 10 79 7 103 -24 165 -12 564 23 751 32 170 87 307 168 421 19 27 33
51 30 53 -2 2 -25 -3 -52 -12 -49 -17 -148 -107 -183 -166 -9 -16 -24 -28 -34
-28 -21 0 -39 -27 -115 -176 -55 -110 -56 -113 -57 -200 -1 -51 -5 -89 -11
-89 -5 0 -8 9 -7 20 3 18 2 18 -13 -3 -12 -17 -16 -35 -12 -63 3 -21 1 -37 -3
-34 -16 10 -22 -38 -14 -114 l9 -76 5 70 5 70 18 -34 c15 -26 20 -60 22 -150
3 -104 16 -176 38 -197 4 -4 7 -37 7 -74 0 -57 -4 -71 -25 -94 -48 -52 -67
-21 -36 60 11 31 21 65 21 76 0 26 -43 138 -52 138 -8 0 -10 -10 -13 -90 -2
-25 -6 -57 -10 -72 -11 -41 4 -117 26 -136 16 -14 18 -25 13 -58 -6 -42 11
-74 41 -74 8 0 16 -8 19 -17 6 -22 19 -83 21 -103 1 -8 5 -22 9 -31 4 -9 -3
-36 -18 -64 -27 -51 -32 -75 -16 -75 19 0 10 -29 -11 -35 -18 -6 -24 -38 -6
-35 4 1 19 -6 33 -15 13 -9 28 -13 33 -11 5 3 21 -10 35 -29 17 -22 36 -35 50
-35 15 0 27 -9 35 -27 9 -21 14 -24 21 -13 7 11 13 10 35 -4 15 -10 24 -23 22
-30 -7 -17 51 -15 62 3 7 11 15 11 44 2 50 -17 58 -31 62 -107 2 -36 8 -71 14
-77 8 -8 11 -6 11 6 0 9 5 17 11 17 7 0 9 -9 6 -22 -3 -13 -11 -43 -17 -68
-12 -47 -6 -141 12 -173 5 -10 13 -43 18 -74 12 -70 81 -215 117 -243 15 -11
31 -31 37 -43 9 -17 23 -23 61 -28 54 -7 77 -1 52 12 -18 11 -61 85 -71 123
-4 15 -20 46 -36 68 -17 23 -30 48 -30 57 0 36 -22 90 -46 115 -23 22 -26 32
-22 71 3 24 2 62 -2 84 -6 33 -3 47 18 82 l25 43 -17 68 c-14 53 -15 72 -6 83
13 15 40 9 53 -12 4 -7 15 -13 22 -13 8 0 15 -7 15 -16 0 -24 25 -11 28 15 3
17 7 20 17 11 23 -19 26 6 5 42 -22 39 -17 78 11 78 22 0 53 -31 74 -77 21
-43 40 -38 39 10 -1 21 3 37 8 37 6 0 8 10 5 22 -3 12 -2 30 4 40 7 13 6 18
-3 18 -10 0 -10 3 1 9 8 5 11 16 8 24 -3 8 0 20 6 26 6 6 7 11 3 11 -5 0 2 9
15 20 l24 19 -48 1 c-62 0 -90 16 -155 83 -57 61 -65 77 -93 182 -24 91 -24
145 2 203 53 119 151 165 220 104 26 -23 31 -33 25 -55 -6 -26 -8 -26 -30 -12
-22 15 -56 12 -56 -6 0 -23 25 -59 42 -59 32 0 20 -18 -32 -47 -39 -22 -50
-32 -46 -47 3 -11 0 -28 -5 -39 -16 -28 -2 -66 29 -79 15 -7 42 -25 60 -40 60
-51 86 -29 85 71 -1 79 17 114 55 105 28 -8 28 -20 1 -27 -13 -4 -18 -10 -14
-17 6 -9 9 -9 15 0 14 22 32 0 25 -31 -8 -36 11 -39 27 -4 11 25 28 34 28 15
0 -5 -5 -21 -12 -35 -12 -27 -3 -49 12 -25 5 8 11 12 14 9 11 -10 -7 -100 -21
-115 -10 -10 -12 -19 -5 -27 5 -7 13 -43 16 -82 9 -93 52 -258 79 -307 12 -22
29 -53 39 -69 9 -17 19 -26 22 -21 3 6 -11 41 -32 79 -38 67 -56 132 -83 303
-7 42 -9 87 -6 100 6 25 48 80 61 80 3 0 16 10 29 23 l22 22 6 -120 c4 -66 11
-154 18 -195 12 -81 58 -237 72 -246 13 -7 11 3 -10 87 -18 68 -36 186 -45
298 -7 91 33 299 56 285 4 -3 13 7 18 21 6 15 19 29 29 32 12 3 17 11 14 19
-4 10 0 12 10 8 16 -6 77 24 77 37 0 4 9 11 20 14 11 3 20 11 20 16 0 5 16 24
35 42 42 39 44 48 7 41 -22 -4 -35 1 -59 23 -36 34 -53 86 -53 163 0 242 -272
856 -455 1029 -46 43 -60 51 -92 51 -21 0 -46 -5 -55 -11z m-418 -1184 c0 -8
-7 -15 -15 -15 -8 0 -15 5 -15 11 0 5 5 7 10 4 6 -3 10 -1 10 4 0 6 2 11 5 11
3 0 5 -7 5 -15z m1010 -184 c0 -5 -7 -12 -16 -15 -14 -5 -15 -4 -4 9 14 17 20
19 20 6z m-1130 -181 c0 -5 -8 -10 -17 -10 -15 0 -16 2 -3 10 19 12 20 12 20
0z m-25 -160 c-3 -5 -11 -10 -17 -10 -5 0 -30 -20 -55 -45 -34 -35 -51 -45
-76 -44 l-32 0 25 17 c13 9 39 30 57 45 38 33 113 62 98 37z m-105 -30 c0 -5
-5 -10 -11 -10 -5 0 -7 5 -4 10 3 6 8 10 11 10 2 0 4 -4 4 -10z m40 -90 c0
-11 -88 -80 -103 -80 -11 0 23 42 58 72 22 19 45 23 45 8z m577 -132 c-3 -8
-6 -5 -6 6 -1 11 2 17 5 13 3 -3 4 -12 1 -19z m-237 -122 c0 -8 -7 -16 -15
-20 -13 -4 -14 -2 -5 14 13 23 20 26 20 6z m-13 -388 c-3 -8 -6 -5 -6 6 -1 11
2 17 5 13 3 -3 4 -12 1 -19z"/>
<path d="M3550 4470 c-44 -39 -35 -47 9 -9 19 16 32 31 30 34 -3 3 -21 -9 -39
-25z"/>
<path d="M1503 4001 c-70 -12 -61 -21 18 -21 79 0 119 12 77 23 -26 8 -36 7
-95 -2z"/>
<path d="M3196 3874 c-10 -25 1 -29 14 -5 6 12 7 21 1 21 -5 0 -12 -7 -15 -16z"/>
<path d="M5070 3178 c-52 -14 -57 -26 -14 -33 64 -10 118 -29 137 -48 36 -36
107 -1 81 41 -25 40 -130 61 -204 40z"/>
<path d="M3883 3118 c-9 -51 -6 -94 5 -84 3 3 8 27 13 53 4 27 10 56 14 66 5
12 2 17 -8 17 -11 0 -18 -16 -24 -52z"/>
<path d="M4995 3020 c3 -5 8 -10 11 -10 2 0 4 5 4 10 0 6 -5 10 -11 10 -5 0
-7 -4 -4 -10z"/>
<path d="M5065 3000 c3 -5 10 -10 16 -10 5 0 9 5 9 10 0 6 -7 10 -16 10 -8 0
-12 -4 -9 -10z"/>
<path d="M4928 2988 c-6 -17 24 -68 40 -68 8 0 11 -7 8 -18 -7 -21 22 -64 30
-45 4 10 13 9 40 -2 32 -13 59 -10 92 11 2 1 -8 20 -23 42 -26 40 -64 60 -75
41 -4 -6 -17 -1 -32 11 -15 11 -33 20 -42 20 -9 0 -16 5 -16 10 0 14 -18 12
-22 -2z"/>
<path d="M4230 2805 c0 -8 5 -15 10 -15 6 0 10 7 10 15 0 8 -4 15 -10 15 -5 0
-10 -7 -10 -15z"/>
<path d="M5052 2588 c-13 -13 -16 -48 -4 -48 14 0 32 23 32 42 0 21 -11 23
-28 6z"/>
<path d="M5089 2536 c6 -7 30 -17 54 -22 57 -10 57 -10 57 1 1 5 -23 15 -52
22 -68 16 -73 16 -59 -1z"/>
<path d="M4850 2402 c-42 -14 -65 -87 -36 -111 8 -6 19 -25 26 -41 7 -17 18
-30 25 -30 7 0 16 -7 19 -16 9 -22 28 -12 33 16 2 15 -3 30 -13 37 -9 6 -13
16 -10 21 11 19 -12 60 -36 64 -41 5 -21 23 39 34 32 6 54 12 48 13 -5 1 -26
5 -45 10 -19 4 -42 6 -50 3z"/>
<path d="M4973 2393 c9 -2 23 -2 30 0 6 3 -1 5 -18 5 -16 0 -22 -2 -12 -5z"/>
<path d="M4561 2206 c-1 -21 -6 -56 -13 -77 -10 -36 -6 -61 8 -47 11 11 21
123 13 143 -6 15 -8 11 -8 -19z"/>
<path d="M4240 2070 c0 -6 19 -29 43 -50 38 -36 43 -38 55 -23 16 22 15 33 -3
33 -8 0 -15 4 -15 8 0 4 -15 14 -32 22 -18 7 -36 15 -40 18 -5 2 -8 -1 -8 -8z"/>
<path d="M4384 1995 c11 -8 27 -15 35 -15 10 1 7 6 -9 15 -33 19 -50 18 -26 0z"/>
<path d="M4450 1975 c0 -8 7 -15 15 -15 9 0 12 6 9 15 -4 8 -10 15 -15 15 -5
0 -9 -7 -9 -15z"/>
<path d="M4332 1788 c3 -7 22 -23 42 -34 62 -35 104 -80 171 -181 3 -6 229
-34 247 -31 15 2 11 7 -19 23 -21 11 -42 25 -48 31 -5 6 -39 23 -75 38 -100
43 -130 57 -130 61 0 7 61 2 66 -6 2 -5 11 -6 19 -2 9 3 21 0 29 -6 12 -10 26
-6 26 9 0 3 -24 12 -52 19 -63 15 -219 71 -232 83 -15 13 -48 10 -44 -4z"/>
<path d="M6300 1756 c0 -14 -4 -28 -10 -31 -5 -3 -10 -15 -10 -26 0 -14 -6
-19 -18 -17 -10 1 -30 -7 -45 -19 l-27 -21 0 -160 c0 -152 1 -161 20 -167 32
-10 37 0 39 82 2 80 4 95 39 223 26 98 35 160 22 160 -5 0 -10 -11 -10 -24z"/>
<path d="M6422 1580 c3 -22 9 -26 58 -31 75 -8 210 10 210 29 0 12 -20 13
-120 7 -93 -6 -124 -4 -136 6 -14 11 -15 10 -12 -11z"/>
<path d="M6400 1400 c0 -4 7 -13 16 -21 11 -9 14 -22 9 -45 l-6 -33 46 3 c25
1 51 8 57 14 7 7 18 12 25 12 15 0 17 16 3 25 -5 3 -10 10 -10 16 0 5 5 9 10
9 6 0 10 -7 10 -15 0 -15 19 -14 68 1 24 7 52 -16 52 -42 l0 -25 22 20 c21 20
21 21 3 41 -10 11 -28 20 -41 20 -13 0 -25 4 -28 9 -6 8 -63 7 -123 -4 -17 -3
-50 1 -72 9 -23 7 -41 10 -41 6z"/>
<path d="M6458 1278 c17 -8 26 -8 34 0 9 9 4 12 -22 11 -33 0 -34 -1 -12 -11z"/>
</g>
</svg>
