<?xml version="1.0" standalone="no"?>
<!DOCTYPE svg PUBLIC "-//W3C//DTD SVG 20010904//EN"
 "http://www.w3.org/TR/2001/REC-SVG-20010904/DTD/svg10.dtd">
<svg version="1.0" xmlns="http://www.w3.org/2000/svg"
 width="540.000000pt" height="305.000000pt" viewBox="0 0 540.000000 305.000000"
 preserveAspectRatio="xMidYMid meet">

<g transform="translate(0.000000,305.000000) scale(0.100000,-0.100000)"
fill="#000000" stroke="none">
<path d="M351 3046 c2 -2 103 -12 224 -21 121 -10 223 -20 227 -24 4 -3 17
-105 29 -226 12 -121 24 -222 26 -224 12 -16 12 30 -2 191 -9 101 -19 206 -23
234 l-7 49 -85 12 c-78 10 -399 18 -389 9z"/>
<path d="M3013 3043 c-7 -2 -13 -10 -13 -18 0 -8 -12 -11 -40 -9 -21 2 -42 -1
-46 -7 -3 -6 -17 -14 -30 -19 -13 -5 -24 -15 -24 -22 0 -7 -10 -14 -22 -15
-57 -6 -78 -10 -85 -16 -13 -13 -23 -7 -23 15 0 21 0 21 -20 -2 -24 -27 -35
-63 -25 -82 3 -7 -1 -4 -9 6 -22 27 -20 8 3 -35 13 -24 19 -54 18 -96 l-1 -61
-110 -17 c-61 -9 -131 -21 -156 -26 l-46 -10 3 -41 c1 -23 7 -44 12 -47 5 -4
41 -4 78 0 37 3 71 3 75 0 3 -3 11 -58 17 -121 6 -63 19 -179 28 -256 9 -78
13 -149 10 -158 -4 -10 -18 -16 -36 -16 -16 0 -33 -5 -36 -10 -3 -6 3 -54 14
-108 25 -124 30 -218 10 -214 -23 5 -27 14 -39 82 -7 36 -15 72 -18 80 -3 8
-7 33 -8 55 -6 74 -12 87 -37 80 -12 -4 -35 -13 -51 -21 -16 -8 -42 -14 -57
-14 -15 0 -31 -4 -34 -10 -3 -5 -1 -10 4 -10 20 0 11 -22 -10 -27 -21 -6 -21
-9 -15 -112 4 -58 11 -124 16 -146 5 -22 10 -58 11 -80 l3 -41 32 15 33 15
-29 17 c-17 11 -27 25 -26 36 2 15 13 18 57 19 61 2 84 -12 105 -62 10 -25 19
-31 45 -32 39 -1 51 -13 73 -75 10 -26 32 -69 50 -95 48 -70 59 -105 52 -160
-4 -29 -1 -69 8 -102 27 -110 28 -129 8 -163 -35 -57 -46 -106 -31 -133 11
-21 10 -28 -9 -52 -12 -15 -34 -46 -49 -69 -27 -40 -30 -42 -73 -39 -25 1 -51
5 -58 10 -7 4 -26 5 -43 1 -25 -6 -29 -10 -23 -28 6 -19 7 -78 1 -137 -1 -11
-8 -22 -17 -25 -17 -5 -45 -45 -32 -45 4 0 17 7 28 15 43 32 159 11 184 -34
15 -30 12 -38 -6 -13 -19 28 -66 52 -96 51 -19 -1 -17 -2 8 -10 40 -11 50 -24
58 -74 7 -38 4 -43 -28 -73 -20 -18 -36 -39 -36 -47 0 -23 -20 -28 -61 -15
-43 15 -52 40 -20 62 10 8 29 31 41 53 l23 40 -32 -37 c-36 -42 -56 -49 -46
-17 7 20 6 20 -16 2 -47 -38 -99 -88 -99 -96 0 -5 -14 -42 -31 -83 -29 -68
-33 -74 -61 -74 -16 0 -27 4 -24 8 2 4 7 26 9 47 3 22 9 59 12 82 7 42 7 43
-19 41 -14 -1 -26 -6 -26 -11 0 -4 -9 -27 -20 -49 -22 -46 -20 -59 5 -34 9 9
21 16 26 16 5 0 0 -9 -11 -20 -11 -11 -24 -20 -30 -20 -5 0 -10 -10 -10 -23 0
-13 -6 -30 -12 -39 -16 -19 -56 -29 -61 -15 -2 7 -12 5 -27 -6 -23 -16 -13
-17 211 -17 l236 0 22 24 23 24 -36 13 -35 13 37 13 c20 7 51 13 68 13 35 0
63 23 43 36 -8 5 -9 3 -4 -6 6 -9 4 -11 -5 -5 -9 6 -11 4 -5 -5 5 -9 4 -11 -4
-6 -9 6 -9 11 0 22 6 8 14 12 17 10 2 -3 14 -1 25 5 15 9 18 8 12 -3 -5 -7 3
-3 16 8 46 41 246 155 261 149 8 -3 21 1 28 11 13 15 15 15 20 -1 9 -27 203
-74 330 -82 59 -3 108 -11 112 -17 19 -27 7 -91 -27 -153 -26 -45 -32 -63 -21
-63 8 0 19 12 24 28 6 15 17 36 26 47 15 20 15 20 16 -2 0 -13 5 -23 11 -23 8
0 9 13 5 38 -4 26 -1 45 9 58 13 17 14 10 8 -63 l-6 -83 959 1 c832 0 951 2
897 14 -104 23 -153 64 -139 119 5 19 34 41 126 93 l119 68 1 227 0 227 -30
-5 c-30 -7 -86 19 -76 34 3 5 28 14 55 22 l51 14 0 191 0 192 -177 11 c-98 7
-188 12 -200 12 -15 0 -33 18 -62 61 -53 79 -53 89 3 89 45 0 56 10 56 49 0
15 -7 18 -37 15 -21 -1 -45 -5 -54 -9 -10 -3 -20 -1 -25 6 -4 7 -3 14 4 17 7
2 8 12 0 33 -17 48 -6 61 49 54 53 -7 83 -32 83 -70 0 -32 53 -45 81 -19 15
13 36 17 87 17 37 0 77 -3 88 -7 14 -4 26 -1 34 9 7 8 25 15 41 15 16 0 29 5
29 10 0 13 -77 13 -85 0 -9 -15 -55 -12 -53 3 2 6 -3 11 -10 9 -8 -1 -47 -8
-88 -14 -67 -10 -75 -10 -94 7 -25 23 -16 38 21 33 15 -3 26 0 23 4 -3 5 0 15
6 23 9 11 9 15 1 15 -6 0 -11 9 -11 20 0 20 -5 21 -80 19 -62 -2 -79 -6 -75
-16 3 -7 8 -19 11 -27 6 -15 -7 -15 -68 0 -21 5 -29 2 -34 -10 -10 -27 -23
-18 -35 25 -11 34 -10 42 2 50 8 5 20 7 26 4 7 -2 22 5 32 16 l19 21 16 -30
15 -29 53 11 53 11 -57 3 c-40 2 -58 7 -58 16 0 8 -7 19 -15 26 -8 7 -15 20
-15 30 0 15 20 18 198 24 225 7 302 15 302 29 0 6 -29 7 -77 4 -118 -10 -450
-18 -435 -11 14 7 16 44 2 44 -6 0 -8 11 -4 25 6 24 4 25 -32 24 -35 0 -37 -1
-16 -11 22 -11 30 -28 12 -28 -16 0 -12 -22 7 -36 10 -7 14 -16 10 -21 -5 -4
-13 0 -18 9 -5 9 -16 24 -24 32 -8 8 -15 21 -15 30 0 8 -4 18 -10 21 -5 3 -10
20 -10 36 0 22 -6 32 -22 38 -17 6 -24 5 -26 -5 -2 -8 -8 -12 -13 -8 -6 4 -6
11 2 20 6 7 8 22 5 31 -6 15 -9 15 -16 3 -6 -10 -10 -7 -15 16 -3 16 -12 46
-20 67 -12 34 -12 37 5 37 11 0 24 -8 29 -17 6 -10 11 -14 11 -10 0 13 -21 49
-51 88 -16 20 -26 38 -24 41 10 10 -34 39 -67 44 -32 6 -37 3 -57 -29 -11 -19
-21 -43 -21 -55 0 -11 -11 -27 -25 -36 -20 -13 -55 -74 -56 -96 -1 -13 -33
-39 -57 -46 -20 -6 2 -10 78 -14 58 -4 130 -14 160 -23 49 -15 57 -22 73 -57
9 -22 16 -52 16 -68 -2 -24 -2 -25 -6 -4 -5 27 -29 40 -46 23 -6 -6 -19 -11
-28 -11 -20 0 -64 65 -54 80 9 15 36 12 57 -7 17 -15 18 -15 13 -1 -4 9 -20
21 -37 27 -38 13 -41 14 -33 1 3 -5 1 -10 -4 -10 -6 0 -19 -8 -29 -18 -10 -10
-31 -23 -47 -30 -44 -17 -227 -44 -304 -43 -32 0 -32 -1 -14 -14 11 -8 51 -30
89 -50 38 -20 83 -46 100 -58 18 -12 46 -30 64 -40 18 -10 30 -20 27 -23 -3
-3 -23 6 -44 20 -20 14 -51 26 -68 26 -23 0 -27 3 -15 10 12 8 11 10 -6 10
-12 0 -28 7 -35 16 -10 12 -25 15 -64 12 -27 -3 -44 -3 -37 -1 18 7 15 23 -4
23 -9 0 -34 5 -55 12 -30 8 -39 16 -39 33 0 11 5 26 12 33 16 16 2 28 -16 13
-12 -10 -18 -9 -33 8 -9 12 -23 21 -30 21 -7 0 -13 9 -13 19 0 11 -4 23 -10
26 -5 3 -10 -1 -10 -9 0 -9 -4 -16 -10 -16 -5 0 -10 4 -10 9 0 5 -8 12 -17 14
-15 4 -15 6 5 12 30 10 28 19 -13 41 -30 16 -35 23 -35 56 0 21 -4 38 -10 38
-5 0 -10 -7 -10 -16 0 -8 -4 -12 -10 -9 -16 10 -12 21 13 32 19 9 23 17 19 42
-2 19 -10 31 -19 31 -9 0 -13 -6 -10 -15 4 -8 3 -17 -2 -19 -16 -10 -52 27
-81 84 -17 33 -47 73 -69 90 -32 26 -40 39 -45 80 -7 52 -26 78 -26 36 0 -14
-4 -27 -9 -30 -9 -6 -34 161 -25 175 3 5 11 9 19 9 21 0 30 85 16 154 -7 32
-23 83 -36 113 -14 30 -24 64 -22 76 3 27 -29 36 -36 10 -4 -16 -5 -16 -6 -1
-1 11 -28 30 -75 53 -41 20 -77 41 -79 48 -4 7 -6 8 -6 1 -2 -18 -69 8 -80 31
-10 20 -10 20 -11 0 -1 -19 -2 -18 -10 3 -11 26 -30 29 -31 5 0 -15 -1 -16 -7
-2 -5 10 -23 16 -61 18 -36 2 -51 -1 -46 -8 8 -14 2 -14 -28 0 -18 8 -30 8
-45 0 -14 -7 -23 -8 -27 -1 -7 11 -13 11 -32 3z m92 -33 c3 -5 1 -10 -4 -10
-6 0 -11 5 -11 10 0 6 2 10 4 10 3 0 8 -4 11 -10z m-166 -14 c10 -12 8 -13 -8
-9 -12 3 -18 9 -15 14 7 12 10 11 23 -5z m91 -6 c0 -5 -2 -10 -4 -10 -3 0 -8
5 -11 10 -3 6 -1 10 4 10 6 0 11 -4 11 -10z m130 -10 c0 -5 -5 -10 -11 -10 -5
0 -7 5 -4 10 3 6 8 10 11 10 2 0 4 -4 4 -10z m-43 -32 c-3 -8 -6 -5 -6 6 -1
11 2 17 5 13 3 -3 4 -12 1 -19z m96 -185 c-7 -2 -19 -2 -25 0 -7 3 -2 5 12 5
14 0 19 -2 13 -5z m-60 -10 c-7 -2 -19 -2 -25 0 -7 3 -2 5 12 5 14 0 19 -2 13
-5z m-70 -10 c-7 -2 -19 -2 -25 0 -7 3 -2 5 12 5 14 0 19 -2 13 -5z m-243 -33
c-57 -11 -106 -17 -108 -15 -7 6 13 11 83 23 110 17 131 11 25 -8z m-75 -149
c0 -8 -6 -16 -14 -19 -10 -3 -12 0 -8 11 3 9 1 18 -6 21 -7 3 -3 5 8 3 11 -1
20 -9 20 -16z m142 -28 c-3 -10 -5 -4 -5 12 0 17 2 24 5 18 2 -7 2 -21 0 -30z
m232 -16 c8 -10 7 -14 -4 -14 -8 0 -15 6 -15 14 0 7 2 13 4 13 2 0 9 -6 15
-13z m-355 -41 c6 -29 5 -40 -5 -47 -25 -16 -29 -10 -29 42 0 60 20 63 34 5z
m165 -78 c1 -11 -6 -18 -17 -18 -20 0 -27 40 -15 90 6 23 7 22 19 -15 7 -22
13 -48 13 -57z m218 50 c-3 -8 -6 -5 -6 6 -1 11 2 17 5 13 3 -3 4 -12 1 -19z
m-95 -28 c13 -31 14 -40 3 -40 -19 0 -38 27 -31 45 3 8 1 15 -5 15 -6 0 -7 5
-4 10 11 18 20 11 37 -30z m-42 -18 c0 -26 -25 -5 -28 24 -2 28 -2 28 13 10 8
-11 15 -26 15 -34z m-150 -2 c0 -19 9 -48 20 -65 l21 -30 -6 30 c-5 24 -4 27
5 13 6 -9 17 -15 24 -12 8 3 16 -4 19 -16 3 -13 10 -19 16 -15 6 3 9 10 6 15
-3 5 -1 11 5 15 5 3 10 -1 10 -10 0 -9 4 -14 9 -11 5 4 12 0 14 -6 4 -10 8
-10 15 0 7 11 11 7 17 -15 l7 -28 10 27 9 27 24 -25 c14 -15 22 -34 20 -46 -3
-12 -1 -26 3 -32 10 -16 31 -100 26 -105 -2 -2 -4 2 -4 10 0 12 -2 11 -11 -1
-9 -13 -10 -12 -5 3 6 20 -3 49 -14 42 -5 -3 -7 -13 -5 -23 11 -56 14 -82 7
-81 -19 3 -26 -2 -13 -10 10 -7 11 -13 1 -31 -6 -12 -9 -33 -5 -47 5 -22 3
-25 -14 -20 -12 3 -21 1 -21 -4 0 -5 -5 -9 -11 -9 -5 0 -7 5 -4 11 4 5 -7 23
-23 38 -16 16 -32 35 -36 42 -3 8 -4 -6 0 -31 3 -25 8 -72 11 -104 l5 -59 -36
6 c-27 4 -36 2 -36 -8 0 -21 -22 -65 -33 -65 -5 0 -6 7 -3 15 3 8 9 22 12 30
4 11 2 13 -9 9 -12 -4 -17 3 -23 31 -8 45 10 70 30 43 7 -10 16 -15 20 -11 4
4 11 1 16 -7 8 -13 10 -12 10 2 0 9 8 22 18 27 9 6 11 11 4 11 -6 0 -11 3 -11
8 1 4 1 19 0 33 -1 22 -7 28 -33 32 -18 2 -34 1 -36 -4 -6 -16 -32 -10 -32 7
0 11 -5 14 -17 9 -21 -8 -22 -8 -46 -6 -9 0 -16 4 -15 9 2 4 -7 18 -19 31 -35
38 -60 189 -33 206 14 8 41 63 51 100 8 29 8 29 5 -5 -2 -19 -6 -44 -10 -55
-4 -11 1 -6 10 10 16 27 19 28 22 10 5 -28 22 -44 22 -21 0 9 5 14 10 11 11
-7 13 15 3 41 -6 16 -7 16 -14 -2 -6 -15 -8 -11 -10 16 -1 19 -3 47 -4 63 -2
24 1 27 26 25 26 -2 29 -6 29 -38z m-183 -52 c-3 -7 -5 -2 -5 12 0 14 2 19 5
13 2 -7 2 -19 0 -25z m393 3 c0 -6 -4 -13 -10 -16 -5 -3 -10 1 -10 9 0 9 5 16
10 16 6 0 10 -4 10 -9z m81 -8 c13 -16 12 -17 -3 -4 -17 13 -22 21 -14 21 2 0
10 -8 17 -17z m14 -273 c9 -16 13 -30 11 -30 -3 0 -12 14 -21 30 -9 17 -13 30
-11 30 3 0 12 -13 21 -30z m-273 -125 c-5 -30 -28 -33 -35 -6 -6 23 0 31 23
31 13 0 16 -6 12 -25z m188 -45 c0 -5 -4 -10 -10 -10 -5 0 -10 5 -10 10 0 6 5
10 10 10 6 0 10 -4 10 -10z m-710 -20 c0 -5 -10 -10 -22 -10 -19 0 -20 2 -8
10 19 13 30 13 30 0z m187 -42 c-3 -8 -6 -5 -6 6 -1 11 2 17 5 13 3 -3 4 -12
1 -19z m-176 -48 c-19 -5 -44 -4 -55 0 -15 6 -5 9 34 8 50 0 52 -1 21 -8z
m2471 -600 c93 -29 138 -83 115 -139 -7 -17 -17 -28 -21 -24 -5 5 -5 -12 -2
-37 l7 -45 -15 31 c-22 50 -33 48 -40 -7 -7 -49 -7 -50 -39 -47 l-32 3 -1 75
c-1 92 -2 100 -12 100 -5 0 -9 -16 -10 -35 -1 -32 -25 -77 -70 -134 -19 -23
-19 -24 -38 -5 -18 18 -18 24 -8 61 15 52 32 83 45 83 6 0 7 -5 3 -12 -4 -7
-3 -8 4 -4 7 4 12 15 12 25 0 10 10 25 23 34 12 8 19 18 16 21 -10 11 -76 -20
-87 -40 -7 -12 -24 -18 -56 -20 -46 -3 -46 -2 -46 30 l0 32 69 -3 c40 -2 72 1
76 7 3 5 -2 10 -12 11 -16 0 -16 1 2 9 17 7 15 9 -12 9 -17 1 -35 5 -38 11 -3
5 -20 14 -38 19 -26 7 -16 9 54 10 61 1 106 -5 151 -19z m-210 -327 c10 -9 18
-20 18 -25 0 -11 -49 24 -50 35 0 12 12 8 32 -10z m213 -83 c-3 -5 -10 -10
-16 -10 -5 0 -9 5 -9 10 0 6 7 10 16 10 8 0 12 -4 9 -10z m206 -187 c-9 -16
-10 -15 -11 8 0 14 3 29 8 33 12 12 14 -22 3 -41z m32 -67 c25 -22 35 -39 31
-50 -8 -22 -37 -20 -59 4 -10 11 -14 20 -10 20 5 0 4 5 -3 12 -13 13 -16 48
-4 48 4 0 25 -15 45 -34z m-2613 -60 c0 -2 -9 -6 -20 -9 -11 -3 -18 -1 -14 4
5 9 34 13 34 5z m2830 -85 c0 -10 -36 -17 -144 -27 -56 -5 -68 -4 -64 7 3 8
22 17 44 20 63 10 164 10 164 0z m-1750 -64 c0 -2 -15 -16 -32 -33 l-33 -29
29 33 c28 30 36 37 36 29z m-132 -83 c2 -27 -2 -45 -13 -54 -13 -11 -15 -8
-15 18 0 17 -5 43 -10 57 -9 24 -8 26 12 23 19 -2 24 -10 26 -44z"/>
<path d="M2780 2220 c0 -5 -1 -13 -2 -17 -2 -3 5 -7 15 -9 9 -1 17 2 17 7 0 4
7 6 15 3 8 -4 15 -2 15 4 0 5 -10 12 -22 16 -32 8 -38 7 -38 -4z"/>
<path d="M2825 2170 c-4 -6 3 -10 14 -10 25 0 27 6 6 13 -8 4 -17 2 -20 -3z"/>
<path d="M2805 2120 c-3 -5 -15 -10 -26 -10 -10 0 -19 -3 -19 -7 1 -14 30 -47
30 -35 0 7 5 12 10 12 6 0 10 -15 10 -34 0 -43 17 -56 26 -20 5 19 9 22 15 12
6 -9 9 -2 9 20 0 17 5 32 10 32 6 0 10 -6 10 -12 0 -9 3 -8 10 2 6 10 2 19
-18 32 -30 20 -58 23 -67 8z"/>
<path d="M4840 1140 c41 -34 69 -46 39 -18 -15 14 -35 28 -45 32 -13 4 -12 0
6 -14z"/>
<path d="M4865 940 c3 -5 8 -10 11 -10 2 0 4 5 4 10 0 6 -5 10 -11 10 -5 0 -7
-4 -4 -10z"/>
<path d="M4303 3043 c-12 -2 -27 -10 -33 -18 -15 -18 4 -55 29 -55 23 0 31
-26 31 -105 0 -33 3 -110 7 -171 l6 -112 58 5 57 6 7 -49 c3 -27 10 -69 15
-94 5 -25 5 -49 0 -53 -4 -5 -11 19 -15 52 -8 68 -25 73 -25 7 0 -24 -6 -48
-12 -54 -7 -6 -59 -15 -116 -20 -57 -6 -109 -15 -115 -20 -7 -5 -34 -12 -62
-16 -123 -16 -245 -40 -245 -48 0 -5 9 -6 20 -3 16 5 20 2 20 -19 0 -23 4 -26
34 -26 22 0 36 -6 40 -16 9 -24 -2 -34 -40 -34 -42 0 -43 -9 -1 -37 17 -13 26
-23 19 -23 -6 0 -12 -10 -11 -22 l0 -23 16 23 c8 12 21 22 28 22 12 0 -12 -82
-49 -171 -10 -23 9 -28 105 -26 56 1 84 6 87 15 2 6 7 10 12 7 4 -3 6 5 3 17
-4 19 -3 20 6 8 6 -9 11 -10 11 -3 0 6 -12 21 -27 33 -16 12 -31 31 -34 43 -3
12 -10 21 -16 20 -5 -1 -10 3 -10 10 0 7 -8 45 -17 85 -18 80 -16 92 18 92 12
0 28 6 34 12 10 10 14 10 21 0 6 -10 25 -9 97 4 49 10 107 18 129 18 97 1 213
-31 256 -70 12 -10 19 -12 24 -4 11 18 25 0 19 -25 -3 -12 -1 -26 5 -29 6 -4
11 1 11 11 1 40 74 95 126 95 l34 0 0 77 c0 42 -4 82 -9 90 -16 25 -31 1 -31
-49 0 -27 -5 -52 -12 -56 -7 -5 -9 -2 -6 8 7 18 -9 109 -22 122 -6 6 -17 -8
-29 -37 -11 -26 -26 -47 -33 -47 -17 0 -68 94 -59 108 4 6 24 12 46 13 79 3
77 -1 74 110 -1 54 1 102 5 106 4 4 53 13 109 19 l102 11 -122 2 c-116 1 -123
0 -151 -24 -49 -41 -202 -48 -202 -9 0 22 40 53 70 54 14 0 44 9 65 20 22 11
45 18 52 15 9 -3 13 6 13 26 0 26 -3 29 -21 24 -45 -15 -222 -4 -233 14 -21
33 68 45 197 28 l57 -7 0 50 0 50 180 0 180 0 0 25 0 25 -377 -1 c-208 -1
-388 -4 -400 -6z m237 -682 c0 -12 -20 -25 -27 -18 -7 7 6 27 18 27 5 0 9 -4
9 -9z m30 -1 c0 -5 -5 -10 -11 -10 -5 0 -7 5 -4 10 3 6 8 10 11 10 2 0 4 -4 4
-10z m-536 -195 c-4 -8 -10 -12 -15 -9 -11 6 -2 24 11 24 5 0 7 -7 4 -15z"/>
<path d="M5391 2984 c0 -11 3 -14 6 -6 3 7 2 16 -1 19 -3 4 -6 -2 -5 -13z"/>
<path d="M4763 2979 c9 -5 17 -19 17 -29 0 -11 7 -20 15 -20 8 0 15 -5 15 -11
0 -5 -4 -7 -10 -4 -5 3 -10 3 -10 -2 0 -4 11 -13 25 -20 14 -6 25 -7 25 -2 0
5 -5 9 -12 9 -7 0 -6 6 4 18 16 18 20 52 7 52 -4 0 -14 -7 -22 -15 -17 -16
-27 -10 -27 17 0 12 -7 18 -22 18 -21 -1 -21 -2 -5 -11z m77 -33 c0 -3 -4 -8
-10 -11 -5 -3 -10 -1 -10 4 0 6 5 11 10 11 6 0 10 -2 10 -4z"/>
<path d="M4800 2981 c0 -3 19 -6 42 -6 38 0 43 -3 42 -22 0 -18 3 -20 18 -12
10 5 18 12 18 15 0 3 -6 2 -12 -2 -10 -5 -10 -4 -2 5 6 6 27 14 48 18 30 5 35
3 31 -10 -4 -8 -1 -18 6 -23 8 -4 10 -3 5 4 -5 8 -2 10 8 6 9 -3 13 -11 10
-16 -4 -6 3 -5 15 1 24 13 29 26 6 17 -10 -3 -15 1 -15 13 0 17 -9 19 -110 19
-60 -1 -110 -3 -110 -7z"/>
<path d="M5060 2984 c0 -3 8 -13 17 -22 16 -16 16 -16 10 0 -5 14 1 18 31 21
33 3 32 4 -10 5 -27 1 -48 -1 -48 -4z"/>
<path d="M5233 2983 c9 -2 25 -2 35 0 9 3 1 5 -18 5 -19 0 -27 -2 -17 -5z"/>
<path d="M5299 2943 c-2 -21 -1 -60 2 -88 5 -42 6 -35 7 38 2 90 -3 116 -9 50z"/>
<path d="M4748 2960 c-2 -8 2 -27 9 -42 10 -20 11 -33 4 -45 -9 -15 -11 -14
-11 12 -1 17 -4 24 -7 17 -3 -7 -2 -24 1 -38 6 -21 9 -24 21 -14 18 15 18 43
1 90 -8 21 -15 29 -18 20z"/>
<path d="M5158 2958 c5 -5 16 -8 23 -6 8 3 3 7 -10 11 -17 4 -21 3 -13 -5z"/>
<path d="M5108 2953 c6 -2 12 -9 12 -14 0 -6 -5 -7 -12 -3 -7 5 -8 3 -3 -5 5
-9 11 -9 17 -3 12 12 2 32 -15 31 -9 0 -9 -2 1 -6z"/>
<path d="M5155 2930 c3 -5 8 -10 11 -10 2 0 4 5 4 10 0 6 -5 10 -11 10 -5 0
-7 -4 -4 -10z"/>
<path d="M4853 2901 c0 -11 5 -18 9 -15 4 3 5 11 1 19 -7 21 -12 19 -10 -4z"/>
<path d="M4948 2893 c6 -2 18 -2 25 0 6 3 1 5 -13 5 -14 0 -19 -2 -12 -5z"/>
<path d="M5115 2870 c-1 -16 3 -26 7 -24 10 7 10 41 0 47 -4 3 -7 -8 -7 -23z"/>
<path d="M4790 2880 c0 -6 7 -10 15 -10 8 0 15 2 15 4 0 2 -7 6 -15 10 -8 3
-15 1 -15 -4z"/>
<path d="M5194 2881 c7 -11 -18 -33 -27 -24 -4 3 -7 1 -7 -5 0 -10 56 -7 69 4
9 8 -10 34 -24 34 -9 0 -14 -4 -11 -9z"/>
<path d="M4854 2850 c0 -11 3 -20 7 -20 10 0 19 27 12 34 -12 11 -19 6 -19
-14z"/>
<path d="M5280 2855 c0 -9 -9 -15 -25 -15 -16 0 -25 -6 -25 -15 0 -8 7 -15 16
-15 8 0 12 5 8 11 -4 8 0 8 15 0 19 -11 21 -9 21 19 0 16 -2 30 -5 30 -3 0 -5
-7 -5 -15z"/>
<path d="M4936 2852 c-2 -4 4 -8 14 -8 10 0 16 4 14 8 -3 4 -9 8 -14 8 -5 0
-11 -4 -14 -8z"/>
<path d="M5015 2840 c11 -13 12 -19 3 -28 -7 -7 -9 -12 -4 -12 12 0 31 23 34
42 2 14 -3 17 -22 16 -22 -2 -24 -4 -11 -18z"/>
<path d="M4765 2820 c3 -5 8 -10 11 -10 2 0 4 5 4 10 0 6 -5 10 -11 10 -5 0
-7 -4 -4 -10z"/>
<path d="M5070 2810 c-9 -6 -10 -10 -3 -10 6 0 15 5 18 10 8 12 4 12 -15 0z"/>
<path d="M4897 2800 c-15 -5 -48 -7 -73 -5 -25 2 -54 1 -65 -4 -11 -4 29 -7
90 -7 89 0 108 3 99 13 -12 15 -12 15 -51 3z"/>
<path d="M5128 2804 c12 -3 20 -9 17 -14 -6 -9 154 -5 163 5 3 3 -10 5 -29 5
-19 0 -65 2 -104 5 -38 2 -60 2 -47 -1z"/>
<path d="M5010 2790 l-35 -7 32 -2 c17 0 35 4 38 9 3 6 5 9 3 9 -2 -1 -19 -5
-38 -9z"/>
<path d="M5098 2788 c5 -5 16 -8 23 -6 8 3 3 7 -10 11 -17 4 -21 3 -13 -5z"/>
<path d="M5091 2744 c0 -11 3 -14 6 -6 3 7 2 16 -1 19 -3 4 -6 -2 -5 -13z"/>
<path d="M3686 2653 c4 -54 7 -99 8 -99 0 -1 40 -4 89 -7 l87 -5 0 89 0 89
-36 15 c-20 8 -63 15 -95 15 l-59 0 6 -97z m64 -13 c0 -20 -5 -30 -15 -30 -15
0 -21 40 -8 53 14 15 23 6 23 -23z"/>
<path d="M5372 2733 c-17 -16 -19 -27 -15 -80 5 -53 8 -63 24 -63 17 0 19 8
19 80 0 44 -2 80 -4 80 -2 0 -13 -8 -24 -17z"/>
<path d="M1488 2652 c-30 -4 -35 -14 -15 -29 29 -23 48 -23 57 1 5 13 15 26
22 29 15 5 -23 5 -64 -1z"/>
<path d="M1640 2623 c-25 -6 -47 -12 -50 -13 -3 -1 9 -5 25 -9 21 -4 30 -12
31 -27 1 -11 6 -29 12 -41 7 -12 17 -45 23 -73 6 -28 13 -49 16 -46 8 7 4 153
-5 191 l-7 30 -45 -12z"/>
<path d="M1760 2605 c0 -19 5 -35 10 -35 6 0 10 4 10 10 0 5 22 17 49 27 27 9
47 21 45 25 -3 4 -30 8 -60 8 l-54 0 0 -35z"/>
<path d="M2033 2623 c15 -2 37 -2 50 0 12 2 0 4 -28 4 -27 0 -38 -2 -22 -4z"/>
<path d="M939 2556 c-17 -17 -667 -162 -854 -191 -73 -11 -69 1 -81 -254 -4
-79 -2 -106 8 -113 10 -8 10 -11 1 -15 -10 -4 -13 -173 -13 -797 0 -436 3
-821 6 -855 l7 -62 31 7 c38 8 113 41 120 53 3 5 26 12 52 16 44 6 45 7 39 36
-4 18 -3 29 4 29 6 0 11 -11 11 -25 0 -18 5 -25 20 -25 10 0 23 7 27 15 8 13
28 8 138 -29 79 -26 129 -48 127 -56 -2 -7 5 -9 18 -5 11 4 80 -13 167 -40 82
-26 162 -50 178 -55 205 -58 440 -139 431 -147 -2 -2 -107 30 -232 71 l-229
75 -65 -14 c-89 -19 -100 -24 -100 -49 0 -17 14 -27 68 -48 77 -31 164 -39
142 -13 -11 13 -8 13 30 0 23 -8 68 -15 99 -15 31 0 97 -11 146 -25 l90 -25
62 22 c63 23 81 45 69 86 -3 10 -14 69 -25 132 -11 63 -27 156 -36 205 -9 50
-20 115 -25 145 -5 30 -27 161 -49 290 -94 545 -173 1027 -215 1314 -25 168
-48 311 -51 316 -3 6 -13 10 -21 10 -8 0 -14 6 -14 14 0 18 -67 36 -81 22z
m-904 -476 l6 -35 -15 40 c-18 47 -19 52 -6 39 5 -5 12 -25 15 -44z m30 -1610
c3 -5 13 -6 23 -3 15 3 18 -3 20 -45 2 -48 1 -50 -29 -56 -66 -13 -67 -12 -64
57 1 34 3 63 4 64 3 4 42 -10 46 -17z m82 -42 c-3 -8 -6 -5 -6 6 -1 11 2 17 5
13 3 -3 4 -12 1 -19z"/>
<path d="M3692 2507 c-53 -12 -50 -31 6 -35 32 -2 44 1 48 13 10 25 -7 32 -54
22z"/>
<path d="M3798 2514 c-5 -4 -8 -16 -8 -26 0 -17 6 -18 49 -12 48 6 63 -1 67
-31 0 -5 2 -16 2 -22 1 -7 7 -13 12 -13 13 0 13 87 0 95 -17 10 -114 18 -122
9z"/>
<path d="M2301 2358 c0 -7 4 -22 9 -33 7 -16 9 -17 9 -3 1 9 4 23 7 32 4 11 1
16 -10 16 -9 0 -16 -6 -15 -12z"/>
<path d="M1823 2312 c-37 -4 -39 -14 -27 -105 5 -35 10 -45 23 -42 90 20 83
24 105 -68 6 -27 14 -48 19 -48 4 1 16 1 26 1 18 0 19 7 14 120 l-6 120 39 0
c47 0 84 9 84 20 0 8 -212 10 -277 2z"/>
<path d="M1707 2288 c-3 -10 -12 -18 -20 -18 -10 0 -14 -21 -15 -82 -2 -91 3
-118 21 -118 26 0 38 19 42 66 4 58 -17 178 -28 152z"/>
<path d="M1501 2234 c0 -11 3 -14 6 -6 3 7 2 16 -1 19 -3 4 -6 -2 -5 -13z"/>
<path d="M3810 2230 c-27 -17 14 -22 51 -6 l34 14 -35 1 c-19 0 -42 -3 -50 -9z"/>
<path d="M4236 2211 c-3 -5 1 -11 9 -15 9 -3 15 0 15 9 0 16 -16 20 -24 6z"/>
<path d="M1230 2179 c0 -16 4 -28 9 -25 8 5 3 56 -5 56 -2 0 -4 -14 -4 -31z"/>
<path d="M1224 2134 c-18 -7 17 -74 38 -74 22 0 23 12 3 50 -15 30 -20 33 -41
24z"/>
<path d="M5165 2098 c-66 -4 -160 -12 -210 -16 l-90 -7 3 -85 c2 -47 7 -91 11
-98 4 -8 6 22 3 66 -3 51 -1 82 6 86 8 5 404 33 505 36 4 0 7 7 7 15 0 17 -37
18 -235 3z"/>
<path d="M4215 2090 c-3 -5 -2 -10 4 -10 5 0 13 5 16 10 3 6 2 10 -4 10 -5 0
-13 -4 -16 -10z"/>
<path d="M3970 2066 c0 -9 5 -16 10 -16 6 0 10 4 10 9 0 6 -4 13 -10 16 -5 3
-10 -1 -10 -9z"/>
<path d="M1395 2038 c-27 -5 -53 -15 -57 -21 -6 -9 -8 -8 -8 2 0 10 -3 11 -13
2 -8 -6 -17 -8 -20 -4 -4 3 -7 1 -7 -5 0 -7 10 -11 23 -9 13 1 21 -3 20 -10
-2 -7 8 -15 22 -19 13 -3 25 -13 27 -22 2 -13 15 -15 63 -13 33 1 62 7 63 12
2 5 10 9 18 9 8 0 14 5 14 10 0 6 37 10 90 10 53 0 90 4 90 10 0 6 -4 10 -10
10 -5 0 -9 3 -9 8 5 31 -1 33 -100 26 -56 -4 -111 -3 -127 3 -18 6 -49 6 -79
1z"/>
<path d="M4201 2034 c0 -11 3 -14 6 -6 3 7 2 16 -1 19 -3 4 -6 -2 -5 -13z"/>
<path d="M4243 2018 c-26 -34 -24 -38 11 -22 19 10 33 21 30 26 -8 12 -30 10
-41 -4z"/>
<path d="M1210 1995 c1 -26 2 -28 11 -12 8 14 8 22 0 30 -8 8 -11 3 -11 -18z"/>
<path d="M1248 2003 c6 -2 18 -2 25 0 6 3 1 5 -13 5 -14 0 -19 -2 -12 -5z"/>
<path d="M1980 1858 c-69 -19 -92 -20 -116 -8 -31 17 -38 9 -30 -36 6 -27 11
-35 24 -31 32 9 37 9 77 8 33 -1 37 -4 25 -14 -14 -11 -15 -21 -11 -70 1 -16
8 -18 69 -11 78 7 106 19 98 41 -3 8 -6 30 -6 48 0 27 -3 32 -19 28 -15 -4
-18 0 -16 21 3 20 -1 26 -15 26 -10 0 -24 2 -32 4 -7 2 -29 0 -48 -6z m50 -98
c0 -5 -4 -10 -10 -10 -5 0 -10 5 -10 10 0 6 5 10 10 10 6 0 10 -4 10 -10z m70
-24 c0 -3 -4 -8 -10 -11 -5 -3 -10 -1 -10 4 0 6 5 11 10 11 6 0 10 -2 10 -4z"/>
<path d="M1261 1654 c0 -11 3 -14 6 -6 3 7 2 16 -1 19 -3 4 -6 -2 -5 -13z"/>
<path d="M5210 1651 c-30 -3 -50 -9 -45 -12 16 -8 125 2 125 12 0 5 -6 8 -12
7 -7 -1 -38 -4 -68 -7z"/>
<path d="M1272 1595 c0 -16 2 -22 5 -12 2 9 2 23 0 30 -3 6 -5 -1 -5 -18z"/>
<path d="M2255 1565 c-5 -16 -9 -48 -9 -71 l-1 -40 -42 6 c-24 4 -45 5 -48 2
-16 -16 3 -22 62 -20 l68 3 -3 40 c-2 22 -7 56 -11 75 l-8 35 -8 -30z"/>
<path d="M5160 1541 c0 -16 -6 -32 -12 -34 -8 -3 -7 -6 4 -6 9 -1 20 4 23 9 3
6 15 10 26 10 10 0 19 7 19 15 0 8 -9 15 -20 15 -11 0 -20 5 -20 10 0 6 -4 10
-10 10 -5 0 -10 -13 -10 -29z"/>
<path d="M1282 1530 c0 -14 2 -19 5 -12 2 6 2 18 0 25 -3 6 -5 1 -5 -13z"/>
<path d="M1292 1475 c0 -16 2 -22 5 -12 2 9 2 23 0 30 -3 6 -5 -1 -5 -18z"/>
<path d="M1622 1470 c-42 -10 -44 -12 -37 -43 4 -16 12 -24 23 -21 71 13 72
14 72 44 0 32 -4 33 -58 20z"/>
<path d="M1340 1452 c0 -18 19 -24 37 -13 10 6 13 11 6 11 -6 0 -18 3 -27 6
-9 3 -16 1 -16 -4z"/>
<path d="M1538 1443 c7 -3 16 -2 19 1 4 3 -2 6 -13 5 -11 0 -14 -3 -6 -6z"/>
<path d="M1302 1415 c0 -16 2 -22 5 -12 2 9 2 23 0 30 -3 6 -5 -1 -5 -18z"/>
<path d="M5214 1419 c-2 -4 10 -9 27 -13 17 -3 28 -10 24 -16 -4 -6 5 -10 22
-10 22 0 25 2 13 10 -13 8 -12 10 3 10 9 0 17 7 17 15 0 11 -11 14 -51 12 -28
-1 -52 -5 -55 -8z"/>
<path d="M1780 1394 c0 -8 5 -12 10 -9 6 4 8 11 5 16 -9 14 -15 11 -15 -7z"/>
<path d="M1696 1373 c-7 -18 -9 -270 -2 -281 2 -4 7 -63 11 -132 4 -69 10
-156 14 -195 6 -68 7 -70 35 -72 25 -2 27 1 22 20 -4 12 -11 60 -16 106 -8 75
-7 86 8 97 16 12 16 13 0 19 -25 10 -29 44 -28 237 0 147 -2 180 -14 184 -8 3
-12 12 -9 20 3 8 1 14 -5 14 -5 0 -13 -8 -16 -17z"/>
<path d="M2214 1365 c-4 -8 -3 -35 0 -60 6 -34 12 -45 25 -45 21 0 31 26 31
83 0 33 -3 37 -25 37 -14 0 -28 -7 -31 -15z"/>
<path d="M1311 1349 c-1 -8 98 -600 104 -619 10 -32 -5 74 -40 290 -32 199
-61 346 -64 329z"/>
<path d="M2386 1163 c4 -55 9 -71 19 -62 7 8 -7 119 -16 119 -4 0 -6 -26 -3
-57z"/>
<path d="M2493 945 c0 -22 2 -30 4 -17 2 12 2 30 0 40 -3 9 -5 -1 -4 -23z"/>
<path d="M2459 910 c-7 -35 -4 -48 7 -38 3 4 4 21 2 40 l-3 33 -6 -35z"/>
<path d="M2380 920 c0 -5 5 -10 10 -10 6 0 10 5 10 10 0 6 -4 10 -10 10 -5 0
-10 -4 -10 -10z"/>
<path d="M2386 862 c-10 -17 3 -162 15 -162 10 0 10 98 0 145 -5 21 -9 26 -15
17z"/>
<path d="M2427 858 c4 -7 6 -21 4 -32 -4 -26 53 -166 68 -166 8 0 4 102 -5
128 -2 7 -8 10 -14 7 -5 -3 -15 -3 -21 1 -7 4 1 12 20 20 19 8 31 20 30 31 0
16 -1 17 -11 2 -9 -14 -16 -15 -35 -6 -13 5 -23 14 -23 19 0 4 -5 8 -11 8 -6
0 -7 -5 -2 -12z"/>
<path d="M1905 839 c-4 -6 -5 -13 -2 -16 7 -7 27 6 27 18 0 12 -17 12 -25 -2z"/>
<path d="M1865 821 c-3 -5 -1 -12 5 -16 5 -3 10 1 10 9 0 18 -6 21 -15 7z"/>
<path d="M1422 690 c0 -14 2 -19 5 -12 2 6 2 18 0 25 -3 6 -5 1 -5 -13z"/>
<path d="M1432 625 c0 -16 2 -22 5 -12 2 9 2 23 0 30 -3 6 -5 -1 -5 -18z"/>
<path d="M2412 590 c0 -14 2 -19 5 -12 2 6 2 18 0 25 -3 6 -5 1 -5 -13z"/>
<path d="M1442 570 c0 -14 2 -19 5 -12 2 6 2 18 0 25 -3 6 -5 1 -5 -13z"/>
<path d="M2395 530 c3 -5 10 -29 15 -52 l8 -43 -1 53 c0 38 -4 52 -14 52 -8 0
-11 -4 -8 -10z"/>
<path d="M1452 510 c0 -14 2 -19 5 -12 2 6 2 18 0 25 -3 6 -5 1 -5 -13z"/>
<path d="M1544 355 c-27 -14 -50 -25 -51 -25 -2 0 -3 10 -4 23 0 12 -2 18 -5
12 -2 -5 7 -71 20 -145 13 -74 22 -138 20 -142 -2 -4 41 8 97 27 55 19 121 37
146 39 24 3 63 12 86 20 23 8 61 19 84 25 44 12 67 38 57 64 -7 20 -74 48
-206 87 -146 43 -184 45 -244 15z m136 -59 c0 -18 -16 -29 -70 -49 -52 -19
-103 -22 -98 -6 3 10 132 67 156 68 6 1 12 -5 12 -13z"/>
<path d="M291 341 c-10 -6 -12 -24 -9 -65 3 -31 7 -58 10 -61 10 -11 38 8 38
25 0 12 11 20 36 24 31 6 35 10 32 34 -3 23 -8 27 -33 26 -16 0 -34 5 -38 13
-9 15 -17 16 -36 4z"/>
<path d="M233 332 c-18 -3 -20 -7 -13 -20 5 -9 12 -38 15 -64 4 -32 11 -48 21
-48 10 0 14 12 13 48 -1 68 -10 88 -36 84z"/>
<path d="M535 248 c-38 -10 -117 -28 -175 -39 -58 -12 -109 -25 -114 -30 -21
-19 5 -19 77 1 42 12 82 20 89 19 7 -1 29 1 49 5 30 6 51 2 119 -28 73 -33 86
-35 115 -26 54 18 62 36 30 66 -29 27 -74 48 -83 39 -3 -3 0 -5 6 -5 7 0 12
-12 12 -27 0 -25 -1 -25 -18 -10 -10 10 -24 17 -30 17 -7 0 -12 5 -12 11 0 6
7 9 15 5 9 -3 15 0 15 9 0 18 -5 18 -95 -7z"/>
<path d="M101 198 c-1 -20 -5 -26 -16 -22 -23 9 -9 -18 21 -39 14 -11 28 -16
32 -12 4 4 1 10 -5 12 -7 3 -13 14 -14 26 0 12 -4 31 -9 42 -8 18 -9 17 -9 -7z"/>
<path d="M0 168 c0 -49 9 -46 15 6 3 20 1 36 -5 36 -6 0 -10 -19 -10 -42z"/>
<path d="M1840 141 c8 -6 25 -11 38 -11 35 0 26 -18 -13 -26 -40 -7 -57 2 -35
17 12 9 12 10 -3 5 -10 -3 -32 -6 -48 -6 -18 0 -28 -4 -24 -10 3 -5 17 -10 31
-10 13 0 24 -5 24 -11 0 -6 6 -9 14 -6 7 3 26 -1 41 -9 15 -8 39 -14 54 -14
20 0 23 -2 11 -10 -10 -6 -2 -8 25 -3 32 4 38 3 28 -7 -12 -13 -113 -5 -113 9
0 4 -14 8 -32 8 -18 0 -34 5 -36 11 -2 7 -17 12 -33 12 -20 0 -28 4 -23 11 4
7 1 10 -7 7 -8 -3 -25 -1 -38 4 -26 10 -175 -34 -188 -55 -5 -7 -17 -13 -28
-15 -67 -8 -91 -14 -100 -23 -6 -6 51 -8 175 -4 102 2 196 4 210 3 60 -2 128
0 160 7 26 5 31 4 20 -4 -20 -14 -7 -14 24 0 30 14 42 39 24 51 -10 6 -10 8 1
8 8 0 12 3 9 6 -4 3 -15 1 -26 -5 -10 -5 -29 -7 -42 -4 l-22 6 23 13 c13 7 34
13 47 14 12 0 22 5 22 11 0 6 -9 8 -21 4 -16 -5 -19 -4 -14 6 6 9 3 11 -9 6
-10 -4 -26 -2 -37 3 -27 15 -109 24 -89 11z m104 -30 c17 -6 15 -9 -12 -20
-18 -7 -39 -10 -49 -7 -15 6 -14 9 7 21 30 16 30 16 54 6z m-211 -38 c6 -3 0
-10 -12 -15 -21 -7 -81 13 -81 29 0 7 78 -5 93 -14z m-117 -45 c-32 -11 -68
-17 -80 -16 -14 3 1 11 44 25 36 11 71 18 79 15 8 -3 -11 -14 -43 -24z m140 7
c-36 -24 -85 -33 -100 -18 -9 9 78 41 113 42 21 1 20 -2 -13 -24z m107 -2 c15
-3 27 -10 27 -16 0 -10 -94 -2 -114 10 -13 9 25 23 44 17 8 -3 27 -8 43 -11z"/>
<path d="M2850 130 c-8 -5 -10 -10 -5 -10 6 0 17 5 25 10 8 5 11 10 5 10 -5 0
-17 -5 -25 -10z"/>
<path d="M2045 90 c-3 -5 1 -10 10 -10 9 0 13 5 10 10 -3 6 -8 10 -10 10 -2 0
-7 -4 -10 -10z"/>
<path d="M2651 48 c-35 -23 -58 -44 -52 -46 11 -4 121 73 121 83 0 8 -2 7 -69
-37z"/>
<path d="M54 35 c-9 -24 5 -35 44 -34 20 0 31 3 24 6 -10 4 -10 8 -1 19 9 11
4 13 -26 9 -23 -3 -34 -1 -30 5 3 5 4 10 0 10 -3 0 -8 -7 -11 -15z"/>
<path d="M2900 43 c-14 -2 -38 -10 -55 -18 -16 -7 -39 -15 -50 -18 -11 -3 3
-5 30 -5 35 -1 64 6 95 23 43 23 38 28 -20 18z"/>
</g>
</svg>
