<?xml version="1.0" standalone="no"?>
<!DOCTYPE svg PUBLIC "-//W3C//DTD SVG 20010904//EN"
 "http://www.w3.org/TR/2001/REC-SVG-20010904/DTD/svg10.dtd">
<svg version="1.0" xmlns="http://www.w3.org/2000/svg"
 width="500.000000pt" height="384.000000pt" viewBox="0 0 500.000000 384.000000"
 preserveAspectRatio="xMidYMid meet">

<g transform="translate(0.000000,384.000000) scale(0.100000,-0.100000)"
fill="#000000" stroke="none">
<path d="M1030 3493 c-38 -14 -50 -36 -50 -90 0 -65 22 -93 75 -93 48 0 85 36
85 84 0 50 -18 83 -53 96 -33 11 -35 11 -57 3z m61 -32 c31 -25 33 -96 4 -117
-46 -34 -95 -4 -95 58 0 25 7 45 20 58 25 25 41 25 71 1z"/>
<path d="M1187 3493 c-4 -3 -7 -14 -7 -24 0 -9 -6 -19 -12 -22 -10 -3 -10 -7
1 -20 7 -9 11 -23 8 -30 -2 -7 -1 -30 3 -52 7 -38 8 -38 9 18 1 50 4 60 21 64
26 7 26 23 0 23 -13 0 -18 5 -14 15 4 8 15 15 25 15 10 0 19 5 19 10 0 11 -43
14 -53 3z"/>
<path d="M1264 3469 c-9 -19 -12 -34 -6 -38 5 -3 9 -22 8 -41 -1 -19 1 -46 5
-60 5 -17 7 -7 8 33 1 50 4 60 21 64 26 7 26 23 0 23 -13 0 -18 5 -14 15 4 8
15 15 25 15 10 0 19 5 19 10 0 6 -11 10 -25 10 -17 0 -29 -9 -41 -31z"/>
<path d="M1350 3480 c0 -5 5 -10 10 -10 6 0 10 5 10 10 0 6 -4 10 -10 10 -5 0
-10 -4 -10 -10z"/>
<path d="M1350 3380 c0 -40 4 -70 10 -70 6 0 10 30 10 70 0 40 -4 70 -10 70
-6 0 -10 -30 -10 -70z"/>
<path d="M1427 3429 c-27 -31 -19 -89 14 -108 31 -17 79 -8 79 16 0 13 -3 14
-12 5 -7 -7 -21 -12 -33 -12 -29 0 -45 19 -45 51 0 36 23 53 60 45 31 -6 42 7
14 18 -30 12 -60 6 -77 -15z"/>
<path d="M1557 3432 c-25 -28 -22 -87 5 -106 23 -17 55 -20 82 -10 29 11 16
23 -19 17 -37 -6 -65 9 -65 33 0 10 14 14 50 14 43 0 50 3 50 19 0 47 -71 69
-103 33z m76 -16 c8 -19 -1 -26 -33 -26 -33 0 -43 9 -29 27 15 17 55 17 62 -1z"/>
<path d="M1780 3353 c0 -55 4 -93 10 -93 6 0 10 11 10 25 0 21 5 25 30 25 40
0 70 31 70 74 0 48 -21 66 -75 64 l-45 -2 0 -93z m96 51 c10 -41 -11 -76 -44
-72 -23 2 -28 8 -30 36 -4 40 12 62 44 62 17 0 25 -7 30 -26z"/>
<path d="M1940 3441 c0 -6 14 -11 32 -13 37 -4 51 -28 16 -28 -27 0 -68 -26
-68 -43 1 -30 20 -42 70 -43 l50 -1 0 53 c0 34 -5 58 -16 68 -17 17 -84 22
-84 7z m68 -83 c-3 -23 -28 -34 -54 -24 -24 9 2 46 32 46 21 0 25 -4 22 -22z"/>
<path d="M2080 3353 c0 -55 4 -93 10 -93 6 0 10 11 10 25 0 21 5 25 30 25 40
0 70 31 70 74 0 48 -21 66 -75 64 l-45 -2 0 -93z m93 56 c16 -25 0 -68 -28
-75 -13 -3 -29 -3 -34 1 -15 9 -14 68 1 83 16 16 48 11 61 -9z"/>
<path d="M2250 3430 c-28 -28 -27 -84 2 -104 23 -17 55 -20 82 -10 26 10 7 24
-24 17 -32 -6 -60 10 -60 33 0 10 14 14 50 14 43 0 50 3 50 19 0 48 -64 67
-100 31z m70 -10 c0 -5 1 -13 3 -17 3 -8 -44 -15 -61 -8 -11 4 -12 8 -2 20 14
17 60 21 60 5z"/>
<path d="M2380 3378 c0 -39 4 -68 10 -68 6 0 10 19 10 43 0 50 10 67 38 70 40
3 24 24 -18 23 l-40 -1 0 -67z"/>
<path d="M3180 3356 c0 -8 4 -17 10 -21 5 -3 6 -13 3 -23 -4 -13 -1 -12 16 5
21 23 28 53 12 53 -5 0 -12 -6 -14 -12 -4 -10 -6 -10 -6 0 -1 17 -21 15 -21
-2z"/>
<path d="M3328 3333 c6 -2 18 -2 25 0 6 3 1 5 -13 5 -14 0 -19 -2 -12 -5z"/>
<path d="M3467 3313 c21 -4 23 -11 26 -101 l3 -97 0 100 c-1 99 -1 100 -26
102 -21 1 -22 1 -3 -4z"/>
<path d="M2844 3257 c0 -18 -4 -41 -9 -51 -6 -14 -5 -17 3 -12 15 9 27 75 16
86 -5 5 -9 -5 -10 -23z"/>
<path d="M566 3202 c-2 -4 -1 -14 4 -22 7 -11 9 -9 7 8 -1 24 -3 26 -11 14z"/>
<path d="M1590 3180 c0 -5 5 -10 10 -10 6 0 10 5 10 10 0 6 -4 10 -10 10 -5 0
-10 -4 -10 -10z"/>
<path d="M2821 3164 c0 -11 3 -14 6 -6 3 7 2 16 -1 19 -3 4 -6 -2 -5 -13z"/>
<path d="M3262 3145 c0 -16 2 -22 5 -12 2 9 2 23 0 30 -3 6 -5 -1 -5 -18z"/>
<path d="M600 3142 c0 -12 39 -60 40 -49 0 5 -9 20 -20 34 -11 14 -20 21 -20
15z"/>
<path d="M1590 3080 c0 -40 4 -70 10 -70 6 0 10 30 10 70 0 40 -4 70 -10 70
-6 0 -10 -30 -10 -70z"/>
<path d="M1660 3078 c0 -39 4 -68 10 -68 6 0 10 25 10 55 0 51 2 55 26 61 34
9 44 -7 44 -69 0 -30 4 -46 10 -42 15 9 12 111 -3 123 -7 6 -32 10 -55 9 l-42
-1 0 -68z"/>
<path d="M2759 3099 c-32 -34 -42 -50 -32 -53 8 -3 12 -2 9 3 -8 12 19 33 29
23 5 -4 5 -2 2 4 -8 13 36 57 47 47 4 -4 4 0 0 10 -3 9 -7 16 -8 16 0 -1 -22
-24 -47 -50z"/>
<path d="M448 3074 c-9 -9 1 -86 14 -101 15 -19 52 -16 71 5 10 11 16 32 14
57 -2 38 -2 38 -47 42 -25 2 -49 1 -52 -3z m82 -24 c8 -5 10 -10 4 -10 -6 0
-10 -10 -10 -21 1 -12 -5 -24 -11 -26 -7 -3 -13 2 -13 11 0 9 -4 16 -9 16 -7
0 -8 17 -2 38 2 6 27 1 41 -8z"/>
<path d="M2660 3011 c0 -5 -16 -15 -36 -21 -19 -7 -33 -14 -31 -17 7 -6 73 23
81 36 4 6 2 11 -3 11 -6 0 -11 -4 -11 -9z"/>
<path d="M2530 2950 c-8 -5 -10 -10 -5 -10 6 0 17 5 25 10 8 5 11 10 5 10 -5
0 -17 -5 -25 -10z"/>
<path d="M400 2920 c0 -5 5 -10 10 -10 6 0 10 5 10 10 0 6 -4 10 -10 10 -5 0
-10 -4 -10 -10z"/>
<path d="M440 2910 c-6 -11 -17 -20 -25 -20 -31 0 -21 -15 12 -18 19 -1 32 2
29 7 -3 5 3 7 14 4 16 -4 20 0 20 18 0 19 -2 21 -10 9 -8 -13 -10 -12 -10 3 0
23 -17 22 -30 -3z"/>
<path d="M2445 2915 c-16 -8 -23 -14 -15 -14 8 0 29 6 45 14 17 7 23 13 15 13
-8 0 -28 -6 -45 -13z"/>
<path d="M982 2899 c11 -34 269 -88 543 -114 22 -2 43 -4 48 -4 4 -1 7 -569 7
-1263 0 -694 3 -1259 6 -1256 3 4 5 566 5 1250 -1 683 2 1248 6 1254 5 7 71
13 173 17 164 7 271 20 300 38 11 7 6 8 -15 5 -257 -41 -747 -12 -983 59 -29
9 -58 13 -64 9 -7 -4 -8 -3 -4 4 4 7 1 12 -9 12 -9 0 -15 -5 -13 -11z"/>
<path d="M2365 2890 c-13 -5 -14 -9 -5 -9 8 0 24 4 35 9 13 5 14 9 5 9 -8 0
-24 -4 -35 -9z"/>
<path d="M2290 2869 c-14 -5 -45 -12 -70 -18 l-45 -10 50 6 c78 8 122 18 105
24 -8 3 -26 2 -40 -2z"/>
<path d="M980 2840 c0 -5 9 -14 20 -20 23 -12 22 -26 -2 -52 -10 -10 -18 -33
-18 -50 0 -25 3 -29 10 -18 5 8 10 28 10 44 0 23 3 26 14 17 11 -9 15 -6 20
15 6 22 2 32 -18 51 -27 25 -36 28 -36 13z"/>
<path d="M2102 2828 c3 -7 13 -15 23 -16 12 -3 15 0 10 8 -6 10 -1 11 21 6 21
-5 25 -4 14 4 -22 14 -73 13 -68 -2z"/>
<path d="M3203 2755 c0 -27 2 -38 4 -22 2 15 2 37 0 50 -2 12 -4 0 -4 -28z"/>
<path d="M876 2732 c-3 -5 1 -9 9 -9 8 0 12 4 9 9 -3 4 -7 8 -9 8 -2 0 -6 -4
-9 -8z"/>
<path d="M3198 2693 c7 -3 16 -2 19 1 4 3 -2 6 -13 5 -11 0 -14 -3 -6 -6z"/>
<path d="M3248 2693 c12 -2 32 -2 45 0 12 2 2 4 -23 4 -25 0 -35 -2 -22 -4z"/>
<path d="M3493 2595 c0 -27 2 -38 4 -22 2 15 2 37 0 50 -2 12 -4 0 -4 -28z"/>
<path d="M980 2612 c0 -5 7 -13 16 -16 10 -4 14 -1 12 6 -5 15 -28 23 -28 10z"/>
<path d="M885 2597 c-15 -12 -16 -15 -4 -22 8 -5 11 -5 7 0 -4 4 0 14 10 21
23 18 11 18 -13 1z"/>
<path d="M980 2558 c0 -19 2 -20 10 -8 13 19 13 30 0 30 -5 0 -10 -10 -10 -22z"/>
<path d="M412 2304 l3 -238 123 -4 122 -4 0 235 c0 179 -3 236 -12 239 -7 2
-64 6 -126 7 l-112 3 2 -238z"/>
<path d="M3480 2485 c-46 -9 -196 -29 -203 -27 -5 1 -6 -1 -3 -6 2 -4 -11 -8
-30 -8 -19 0 -40 -6 -46 -13 -11 -11 -5 -12 32 -7 25 3 96 11 158 18 96 11
112 15 112 30 0 10 -1 17 -2 17 -2 -1 -10 -3 -18 -4z"/>
<path d="M3250 2105 c0 -57 4 -95 10 -95 6 0 10 38 10 95 0 57 -4 95 -10 95
-6 0 -10 -38 -10 -95z"/>
<path d="M2890 2180 c0 -5 16 -10 35 -10 l35 0 -2 -75 c-1 -43 2 -74 7 -72 6
1 10 35 10 75 l0 72 33 0 c17 0 32 5 32 10 0 6 -32 10 -75 10 -43 0 -75 -4
-75 -10z"/>
<path d="M3190 2180 c0 -5 5 -10 10 -10 6 0 10 5 10 10 0 6 -4 10 -10 10 -5 0
-10 -4 -10 -10z"/>
<path d="M3470 2171 c0 -11 -6 -22 -12 -25 -10 -5 -10 -7 0 -12 7 -3 12 -25
12 -53 0 -52 12 -71 47 -71 30 0 30 18 1 22 -20 3 -23 10 -26 51 -3 45 -2 47
22 47 15 0 26 5 26 10 0 6 -11 10 -25 10 -18 0 -25 5 -25 20 0 11 -4 20 -10
20 -5 0 -10 -9 -10 -19z"/>
<path d="M2596 2128 c-15 -18 -25 -43 -25 -57 l2 -26 4 25 c3 14 8 27 12 30 9
7 42 60 38 60 -2 0 -16 -14 -31 -32z"/>
<path d="M3047 2132 c-23 -25 -22 -85 1 -105 44 -40 102 -6 102 59 0 56 -67
86 -103 46z m72 -16 c31 -37 -9 -103 -46 -80 -37 23 -24 94 17 94 10 0 23 -6
29 -14z"/>
<path d="M3190 2080 c0 -40 4 -70 10 -70 6 0 10 30 10 70 0 40 -4 70 -10 70
-6 0 -10 -30 -10 -70z"/>
<path d="M3336 2135 c-26 -19 -29 -82 -5 -106 19 -19 54 -24 83 -13 28 11 17
24 -14 18 -32 -7 -60 8 -60 32 0 10 13 14 45 14 40 0 45 2 45 23 0 13 -5 28
-12 35 -16 16 -59 15 -82 -3z m69 -25 c0 -10 -12 -16 -32 -18 -32 -3 -45 13
-26 32 13 12 58 2 58 -14z"/>
<path d="M3650 2053 c0 -51 4 -93 9 -93 5 0 11 12 13 28 3 23 7 27 30 24 53
-6 87 64 58 119 -9 15 -20 19 -60 17 l-50 -2 0 -93z m94 55 c7 -11 7 -26 0
-45 -7 -22 -16 -28 -39 -28 -27 0 -30 4 -33 33 -2 18 2 40 9 48 15 19 49 14
63 -8z"/>
<path d="M3810 2138 c0 -8 14 -13 37 -13 20 0 38 -6 40 -12 3 -8 -5 -13 -22
-13 -43 0 -65 -17 -65 -50 0 -32 15 -40 78 -38 l32 1 0 57 c0 31 -5 61 -12 68
-16 16 -88 16 -88 0z m80 -78 c0 -23 -45 -39 -62 -22 -18 18 -1 42 32 42 23 0
30 -4 30 -20z"/>
<path d="M3960 2053 c0 -55 4 -93 10 -93 6 0 10 11 10 25 0 23 14 31 44 26 22
-4 46 34 46 74 0 52 -14 65 -68 62 l-42 -1 0 -93z m85 33 c0 -42 -20 -64 -49
-53 -11 4 -16 19 -16 46 0 41 10 51 45 48 16 -2 20 -9 20 -41z"/>
<path d="M4127 2138 c-25 -19 -26 -96 -2 -114 20 -15 53 -18 79 -8 28 11 17
24 -14 18 -32 -7 -60 8 -60 32 0 10 13 14 45 14 40 0 45 2 45 23 0 13 -5 28
-12 35 -16 16 -60 15 -81 0z m68 -28 c0 -18 -43 -26 -57 -12 -16 16 2 33 30
30 16 -2 27 -9 27 -18z"/>
<path d="M4260 2078 c0 -39 4 -68 10 -68 6 0 10 22 10 50 0 39 4 51 20 60 11
6 25 8 30 5 6 -3 10 0 10 8 0 10 -11 14 -40 13 l-40 -1 0 -67z"/>
<path d="M2553 2013 c-10 -21 -10 -36 2 -77 17 -56 31 -83 39 -75 3 3 -3 23
-14 45 -11 21 -18 45 -15 53 3 8 0 18 -7 22 -9 6 -9 11 1 23 7 8 11 20 9 25
-1 6 -9 -1 -15 -16z"/>
<path d="M310 1990 c157 -13 580 -23 580 -14 0 5 -15 9 -32 9 -18 1 -170 4
-338 7 -168 4 -262 3 -210 -2z"/>
<path d="M1467 1960 c-3 -11 -2 -20 3 -20 4 0 10 9 13 20 3 11 2 20 -3 20 -4
0 -10 -9 -13 -20z"/>
<path d="M1676 1955 c-9 -26 -7 -32 5 -12 6 10 9 21 6 23 -2 3 -7 -2 -11 -11z"/>
<path d="M412 1907 c-11 -13 -2 -16 70 -22 103 -8 200 -3 205 10 2 7 -27 12
-79 13 -46 1 -106 5 -134 8 -38 4 -53 2 -62 -9z"/>
<path d="M3740 1871 c0 -11 -6 -22 -12 -25 -10 -5 -10 -7 0 -12 7 -3 12 -25
12 -53 0 -52 12 -71 47 -71 30 0 30 18 1 22 -20 3 -23 10 -26 51 -3 45 -2 47
23 47 15 0 24 4 20 10 -3 6 -15 10 -26 10 -12 0 -19 7 -19 20 0 11 -4 20 -10
20 -5 0 -10 -9 -10 -19z"/>
<path d="M1461 1844 c0 -11 3 -14 6 -6 3 7 2 16 -1 19 -3 4 -6 -2 -5 -13z"/>
<path d="M3445 1836 c-26 -19 -26 -94 1 -113 56 -41 119 17 93 85 -17 44 -57
55 -94 28z m75 -31 c13 -35 -6 -75 -37 -75 -30 0 -47 39 -33 75 13 35 57 35
70 0z"/>
<path d="M3580 1791 c0 -69 10 -81 68 -78 l42 1 0 69 c0 43 -4 66 -10 62 -5
-3 -10 -28 -10 -55 0 -45 -2 -50 -26 -56 -34 -9 -44 7 -44 69 0 26 -4 47 -10
47 -6 0 -10 -26 -10 -59z"/>
<path d="M1464 1783 c3 -28 8 -39 22 -40 11 -2 13 0 7 3 -8 3 -11 15 -7 28 3
14 -1 27 -10 35 -13 11 -15 8 -12 -26z"/>
<path d="M1672 1768 c2 -17 9 -33 16 -34 7 -1 8 0 3 2 -6 3 -8 19 -4 35 3 19
1 29 -6 29 -8 0 -11 -12 -9 -32z"/>
<path d="M2820 1669 c0 -5 6 -9 13 -9 6 0 23 -3 37 -7 36 -9 19 6 -19 17 -19
5 -31 5 -31 -1z"/>
<path d="M3203 1553 c0 -14 42 -27 119 -38 26 -3 60 -12 75 -19 15 -8 45 -16
66 -19 35 -5 37 -4 37 22 l0 28 -89 7 c-48 4 -115 13 -148 20 -49 10 -60 10
-60 -1z"/>
<path d="M3187 1494 c-11 -14 -16 -28 -13 -31 3 -4 6 -1 6 5 0 16 36 33 54 26
22 -9 20 -28 -9 -74 -14 -22 -25 -49 -25 -61 0 -21 1 -22 20 -4 25 23 52 74
44 86 -3 5 0 9 5 9 22 0 10 36 -18 53 -38 22 -42 21 -64 -9z"/>
<path d="M2991 1377 c-13 -21 -12 -21 5 -5 10 10 16 20 13 22 -3 3 -11 -5 -18
-17z"/>
<path d="M3085 1339 c-4 -6 -5 -12 -2 -15 2 -3 7 2 10 11 7 17 1 20 -8 4z"/>
<path d="M3146 1293 c-6 -14 -5 -15 5 -6 7 7 10 15 7 18 -3 3 -9 -2 -12 -12z"/>
<path d="M3197 1276 c-4 -10 0 -12 14 -9 23 6 24 -6 4 -33 -17 -23 -21 -74 -4
-57 6 6 11 17 13 24 1 8 7 24 14 36 7 12 9 29 6 37 -8 20 -40 21 -47 2z"/>
<path d="M2982 1250 c0 -19 2 -27 5 -17 2 9 2 25 0 35 -3 9 -5 1 -5 -18z"/>
<path d="M2986 1195 c4 -8 8 -15 10 -15 2 0 4 7 4 15 0 8 -4 15 -10 15 -5 0
-7 -7 -4 -15z"/>
<path d="M2990 1151 c0 -5 7 -11 14 -14 10 -4 13 -1 9 9 -6 15 -23 19 -23 5z"/>
<path d="M2760 767 l0 -355 23 -5 c12 -3 74 -9 137 -13 l116 -6 -4 358 c-2
198 -5 360 -6 360 0 1 -61 5 -133 9 l-133 7 0 -355z"/>
<path d="M3480 600 l-3 -65 -7 55 c-4 30 -7 42 -8 27 -1 -16 -6 -25 -12 -22
-6 4 -11 -8 -11 -27 l-2 -33 -7 35 c-6 29 -8 31 -9 10 -2 -23 -3 -23 -10 -5
-7 18 -9 17 -14 -10 -3 -16 -6 -70 -6 -120 l0 -90 -54 -50 c-29 -27 -74 -68
-99 -90 -35 -32 -45 -48 -46 -73 l-1 -33 81 73 c45 40 112 100 149 133 37 33
71 71 75 83 3 13 2 78 -3 145 -9 107 -10 114 -13 57z"/>
<path d="M1865 500 c3 -5 16 -10 28 -10 18 0 19 2 7 10 -20 13 -43 13 -35 0z"/>
<path d="M1945 490 c17 -4 59 -8 95 -7 l65 0 -50 7 c-27 5 -70 8 -95 8 -40 0
-42 -1 -15 -8z"/>
<path d="M2155 480 l-30 -8 32 -1 c17 0 35 4 38 9 7 11 3 11 -40 0z"/>
<path d="M210 440 c20 -13 33 -13 25 0 -3 6 -14 10 -23 10 -15 0 -15 -2 -2
-10z"/>
<path d="M300 430 c51 -14 330 -38 510 -44 l155 -5 -125 9 c-173 12 -411 31
-440 34 -123 15 -135 15 -100 6z"/>
<path d="M980 395 c-8 -9 -8 -15 -2 -15 12 0 26 19 19 26 -2 2 -10 -2 -17 -11z"/>
<path d="M1025 400 c19 -8 123 -14 114 -6 -2 2 -33 6 -69 9 -38 3 -57 1 -45
-3z"/>
<path d="M1738 333 c6 -2 18 -2 25 0 6 3 1 5 -13 5 -14 0 -19 -2 -12 -5z"/>
<path d="M1853 323 c9 -2 23 -2 30 0 6 3 -1 5 -18 5 -16 0 -22 -2 -12 -5z"/>
<path d="M1938 313 c12 -2 32 -2 45 0 12 2 2 4 -23 4 -25 0 -35 -2 -22 -4z"/>
<path d="M2048 303 c18 -2 45 -2 60 0 15 2 0 4 -33 4 -33 0 -45 -2 -27 -4z"/>
<path d="M2165 295 c6 -2 87 -11 180 -20 94 -8 190 -18 215 -22 25 -3 42 -2
37 2 -4 5 -22 10 -40 11 -17 2 -107 10 -198 19 -162 15 -214 17 -194 10z"/>
</g>
</svg>
